<svg width="49" height="28" viewBox="0 0 49 28" fill="none" xmlns="http://www.w3.org/2000/svg">
<path fill-rule="evenodd" clip-rule="evenodd" d="M43.3254 21.3226L48.7214 2.01052C49.0084 0.998419 48.2584 -0.00393867 47.194 1.16379e-05L11.2973 0.131726C10.1859 0.135797 9.22 0.886255 8.95447 1.95187L2.83567 25.174C2.65243 25.6524 2.30702 26.0672 1.76336 26.2151C0.992753 26.4252 0.208117 26.0602 9.44597e-05 25.9393C-0.00896801 26.0523 0.635235 26.7194 1.42573 27.1765C2.99748 28.0854 4.83338 28.0176 5.50987 27.9832C11.8288 27.5809 31.2062 26.3174 37.5251 25.915C40.2333 25.7448 42.5938 23.9028 43.3254 21.3226Z" fill="#FACF45"/>
</svg>
