<svg width="19" height="2" viewBox="0 0 19 2" fill="none" xmlns="http://www.w3.org/2000/svg">
<g style="mix-blend-mode:multiply">
<mask id="mask0_0_23057" style="mask-type:luminance" maskUnits="userSpaceOnUse" x="-1" y="-1" width="20" height="4">
<path fill-rule="evenodd" clip-rule="evenodd" d="M-0.00400313 -0.00206411H18.7217V2.00418H-0.00400313V-0.00206411Z" fill="white"/>
</mask>
<g mask="url(#mask0_0_23057)">
<mask id="mask1_0_23057" style="mask-type:luminance" maskUnits="userSpaceOnUse" x="-1" y="-1" width="20" height="4">
<path fill-rule="evenodd" clip-rule="evenodd" d="M-0.00400313 -0.00206411H18.7217V2.00418H-0.00400313V-0.00206411Z" fill="white"/>
</mask>
<g mask="url(#mask1_0_23057)">
<g opacity="0.01">
<mask id="mask2_0_23057" style="mask-type:luminance" maskUnits="userSpaceOnUse" x="0" y="0" width="19" height="2">
<path fill-rule="evenodd" clip-rule="evenodd" d="M0 0H18.712V1.99998H0V0Z" fill="white"/>
</mask>
<g mask="url(#mask2_0_23057)">
<path fill-rule="evenodd" clip-rule="evenodd" d="M0.688672 1.9995L18.0747 1.32548C18.4405 1.31122 18.7256 1.00317 18.7115 0.637319C18.6973 0.271404 18.3892 -0.0136857 18.0233 0.000507796L0.637257 0.674468C0.271414 0.688733 -0.0136857 0.99685 0.00050778 1.36269C0.0147013 1.72854 0.322818 2.01364 0.688672 1.9995Z" fill="#FEFEFE"/>
</g>
</g>
<g opacity="0.0180206">
<mask id="mask3_0_23057" style="mask-type:luminance" maskUnits="userSpaceOnUse" x="0" y="0" width="19" height="2">
<path fill-rule="evenodd" clip-rule="evenodd" d="M0.00500391 0.00206411H18.7031V1.99603H0.00500391V0.00206411Z" fill="white"/>
</mask>
<g mask="url(#mask3_0_23057)">
<path fill-rule="evenodd" clip-rule="evenodd" d="M0.690667 1.99544L18.0687 1.32172C18.4329 1.30759 18.7168 1.00085 18.7027 0.636563C18.6885 0.272277 18.3818 -0.0115718 18.0175 0.00257044L0.63956 0.676223C0.275274 0.690355 -0.00857483 0.997098 0.00550593 1.36138C0.0196379 1.72567 0.326443 2.00958 0.690667 1.99544Z" fill="#FDFDFE"/>
</g>
</g>
<g opacity="0.0270233">
<mask id="mask4_0_23057" style="mask-type:luminance" maskUnits="userSpaceOnUse" x="0" y="0" width="19" height="2">
<path fill-rule="evenodd" clip-rule="evenodd" d="M0.00950743 0.00306489H18.6939V1.99077H0.00950743V0.00306489Z" fill="white"/>
</mask>
<g mask="url(#mask4_0_23057)">
<path fill-rule="evenodd" clip-rule="evenodd" d="M0.692169 1.99043L18.062 1.31703C18.4248 1.30296 18.7074 0.997533 18.6933 0.634815C18.6792 0.272097 18.3738 -0.0105022 18.0111 0.00356833L0.641257 0.676965C0.278539 0.691035 -0.00405965 0.996405 0.0100109 1.35912C0.0240199 1.72184 0.329513 2.00444 0.692169 1.99043Z" fill="#FCFCFD"/>
</g>
</g>
<g opacity="0.0360413">
<mask id="mask5_0_23057" style="mask-type:luminance" maskUnits="userSpaceOnUse" x="0" y="0" width="19" height="2">
<path fill-rule="evenodd" clip-rule="evenodd" d="M0.0145113 0.00512901H18.6849V1.98706H0.0145113V0.00512901Z" fill="white"/>
</mask>
<g mask="url(#mask5_0_23057)">
<path fill-rule="evenodd" clip-rule="evenodd" d="M0.69423 1.98636L18.056 1.31334C18.4171 1.29933 18.6985 0.995219 18.6845 0.63412C18.6705 0.273021 18.3664 -0.00837885 18.0053 0.00563018L0.643502 0.678719C0.282403 0.692728 0.00100348 0.996838 0.0150125 1.35788C0.0290215 1.71904 0.333131 2.00037 0.69423 1.98636Z" fill="#FBFBFD"/>
</g>
</g>
<g opacity="0.0450439">
<mask id="mask6_0_23057" style="mask-type:luminance" maskUnits="userSpaceOnUse" x="0" y="0" width="19" height="2">
<path fill-rule="evenodd" clip-rule="evenodd" d="M0.0185145 0.00713057H18.6752V1.9828H0.0185145V0.00713057Z" fill="white"/>
</mask>
<g mask="url(#mask6_0_23057)">
<path fill-rule="evenodd" clip-rule="evenodd" d="M0.695167 1.98235L18.0489 1.30958C18.4084 1.29564 18.6886 0.992899 18.6747 0.633369C18.6607 0.273838 18.358 -0.00626069 17.9984 0.00762535L0.644757 0.680397C0.285226 0.694406 0.00506591 0.997142 0.0190134 1.35661C0.032961 1.7162 0.335697 1.9963 0.695167 1.98235Z" fill="#FAFBFC"/>
</g>
</g>
<g opacity="0.0540466">
<mask id="mask7_0_23057" style="mask-type:luminance" maskUnits="userSpaceOnUse" x="0" y="0" width="19" height="2">
<path fill-rule="evenodd" clip-rule="evenodd" d="M0.0235184 0.00919468H18.6663V1.97885H0.0235184V0.00919468Z" fill="white"/>
</mask>
<g mask="url(#mask7_0_23057)">
<path fill-rule="evenodd" clip-rule="evenodd" d="M0.697227 1.97835L18.0428 1.30589C18.4007 1.29207 18.6797 0.990579 18.6658 0.632678C18.6519 0.274777 18.3505 -0.00419466 17.9926 0.00969138L0.647002 0.682217C0.289039 0.696103 0.0101291 0.997466 0.0240152 1.35537C0.0379012 1.71327 0.339326 1.99224 0.697227 1.97835Z" fill="#F9FAFC"/>
</g>
</g>
<g opacity="0.0630646">
<mask id="mask8_0_23057" style="mask-type:luminance" maskUnits="userSpaceOnUse" x="0" y="0" width="19" height="2">
<path fill-rule="evenodd" clip-rule="evenodd" d="M0.0275215 0.010258H18.6564V1.97365H0.0275215V0.010258Z" fill="white"/>
</mask>
<g mask="url(#mask8_0_23057)">
<path fill-rule="evenodd" clip-rule="evenodd" d="M0.698225 1.97334L18.0358 1.30119C18.3921 1.28731 18.6698 0.987326 18.656 0.630921C18.6421 0.274639 18.3421 -0.003072 17.9857 0.0107526L0.648246 0.682899C0.291902 0.696723 0.0141915 0.996836 0.028016 1.35311C0.0418406 1.70939 0.341953 1.9871 0.698225 1.97334Z" fill="#F8F9FB"/>
</g>
</g>
<g opacity="0.0720673">
<mask id="mask9_0_23057" style="mask-type:luminance" maskUnits="userSpaceOnUse" x="0" y="0" width="19" height="2">
<path fill-rule="evenodd" clip-rule="evenodd" d="M0.0330258 0.0122596H18.6482V1.96988H0.0330258V0.0122596Z" fill="white"/>
</mask>
<g mask="url(#mask9_0_23057)">
<path fill-rule="evenodd" clip-rule="evenodd" d="M0.700725 1.96922L18.0302 1.29738C18.385 1.28362 18.6614 0.984888 18.6476 0.630174C18.6339 0.27546 18.3351 -0.00101114 17.9804 0.0127519L0.65094 0.684529C0.296164 0.698292 0.0197552 0.997022 0.0335183 1.3518C0.0472813 1.70651 0.346011 1.98291 0.700725 1.96922Z" fill="#F7F8FB"/>
</g>
</g>
<g opacity="0.0810852">
<mask id="mask10_0_23057" style="mask-type:luminance" maskUnits="userSpaceOnUse" x="0" y="0" width="19" height="2">
<path fill-rule="evenodd" clip-rule="evenodd" d="M0.0370289 0.0143237H18.6382V1.96568H0.0370289V0.0143237Z" fill="white"/>
</mask>
<g mask="url(#mask10_0_23057)">
<path fill-rule="evenodd" clip-rule="evenodd" d="M0.701785 1.9652L18.0231 1.29368C18.3763 1.28004 18.6515 0.982683 18.6378 0.629475C18.6241 0.276329 18.3267 0.00116958 17.9735 0.0148097L0.652184 0.686331C0.299038 0.699971 0.0238175 0.99745 0.0375191 1.3506C0.0512207 1.70374 0.348638 1.97896 0.701785 1.9652Z" fill="#F6F7FA"/>
</g>
</g>
<g opacity="0.0900879">
<mask id="mask11_0_23057" style="mask-type:luminance" maskUnits="userSpaceOnUse" x="0" y="0" width="19" height="2">
<path fill-rule="evenodd" clip-rule="evenodd" d="M0.0410321 0.0163878H18.6285V1.96173H0.0410321V0.0163878Z" fill="white"/>
</mask>
<g mask="url(#mask11_0_23057)">
<path fill-rule="evenodd" clip-rule="evenodd" d="M0.702778 1.96121L18.0161 1.29C18.3676 1.27636 18.6416 0.980382 18.628 0.628794C18.6143 0.277205 18.3183 0.00324526 17.9667 0.0168751L0.653434 0.688089C0.301845 0.701657 0.0279468 0.997773 0.0415152 1.34929C0.0552168 1.70094 0.3512 1.97484 0.702778 1.96121Z" fill="#F5F6FA"/>
</g>
</g>
<g opacity="0.0991058">
<mask id="mask12_0_23057" style="mask-type:luminance" maskUnits="userSpaceOnUse" x="0" y="0" width="19" height="2">
<path fill-rule="evenodd" clip-rule="evenodd" d="M0.046036 0.0173886H18.6196V1.95647H0.046036V0.0173886Z" fill="white"/>
</mask>
<g mask="url(#mask12_0_23057)">
<path fill-rule="evenodd" clip-rule="evenodd" d="M0.704725 1.95619L18.01 1.2853C18.3599 1.27173 18.6327 0.976996 18.6191 0.627036C18.6055 0.277016 18.3108 0.00429581 17.9608 0.0178744L0.655627 0.68877C0.305667 0.702339 0.0328859 0.997071 0.046526 1.34703C0.0600329 1.69699 0.354766 1.96977 0.704725 1.95619Z" fill="#F4F5F9"/>
</g>
</g>
<g opacity="0.108109">
<mask id="mask13_0_23057" style="mask-type:luminance" maskUnits="userSpaceOnUse" x="0" y="0" width="19" height="2">
<path fill-rule="evenodd" clip-rule="evenodd" d="M0.0505395 0.0194527H18.6102V1.95275H0.0505395V0.0194527Z" fill="white"/>
</mask>
<g mask="url(#mask13_0_23057)">
<path fill-rule="evenodd" clip-rule="evenodd" d="M0.706281 1.95207L18.0034 1.28154C18.3518 1.26803 18.6233 0.974676 18.6098 0.626284C18.5963 0.277883 18.3029 0.00636198 17.9545 0.0199406L0.657367 0.690468C0.308965 0.703974 0.037506 0.997334 0.0510232 1.34573C0.06453 1.69413 0.357889 1.96559 0.706281 1.95207Z" fill="#F3F4F9"/>
</g>
</g>
<g opacity="0.117111">
<mask id="mask14_0_23057" style="mask-type:luminance" maskUnits="userSpaceOnUse" x="0" y="0" width="19" height="2">
<path fill-rule="evenodd" clip-rule="evenodd" d="M0.0555434 0.0215168H18.6015V1.94856H0.0555434V0.0215168Z" fill="white"/>
</mask>
<g mask="url(#mask14_0_23057)">
<path fill-rule="evenodd" clip-rule="evenodd" d="M0.708293 1.94813L17.9973 1.27792C18.3441 1.26441 18.6144 0.972428 18.601 0.625595C18.5875 0.278761 18.2955 0.00855221 17.9486 0.0219976L0.659626 0.692207C0.312792 0.705714 0.0425215 0.9977 0.0560284 1.34453C0.0694123 1.69137 0.361521 1.96158 0.708283 1.94813" fill="#F2F3F8"/>
</g>
</g>
<g opacity="0.126129">
<mask id="mask15_0_23057" style="mask-type:luminance" maskUnits="userSpaceOnUse" x="0" y="0" width="19" height="2">
<path fill-rule="evenodd" clip-rule="evenodd" d="M0.0595465 0.0235809H18.5915V1.9446H0.0595465V0.0235809Z" fill="white"/>
</mask>
<g mask="url(#mask15_0_23057)">
<path fill-rule="evenodd" clip-rule="evenodd" d="M0.709339 1.94406L17.9903 1.27416C18.3355 1.26078 18.6045 0.970053 18.5911 0.624839C18.5777 0.279635 18.2871 0.0106756 17.9419 0.0240595L0.660866 0.693961C0.315724 0.707345 0.0466315 0.998071 0.0600256 1.34321C0.0734095 1.68848 0.364135 1.95745 0.70935 1.94405" fill="#F1F3F8"/>
</g>
</g>
<g opacity="0.135132">
<mask id="mask16_0_23057" style="mask-type:luminance" maskUnits="userSpaceOnUse" x="0" y="0" width="19" height="2">
<path fill-rule="evenodd" clip-rule="evenodd" d="M0.0645504 0.0255825H18.5828V1.94035H0.0645504V0.0255825Z" fill="white"/>
</mask>
<g mask="url(#mask16_0_23057)">
<path fill-rule="evenodd" clip-rule="evenodd" d="M0.711287 1.94006L17.9842 1.27042C18.3278 1.25709 18.5956 0.967742 18.5823 0.624096C18.5689 0.280511 18.2796 0.0126791 17.936 0.026063L0.663059 0.695647C0.319475 0.70897 0.0517044 0.998322 0.0650268 1.34197C0.0783492 1.68561 0.367702 1.95332 0.711287 1.94006Z" fill="#F0F2F7"/>
</g>
</g>
<g opacity="0.14415">
<mask id="mask17_0_23057" style="mask-type:luminance" maskUnits="userSpaceOnUse" x="0" y="0" width="19" height="2">
<path fill-rule="evenodd" clip-rule="evenodd" d="M0.0685536 0.0266458H18.5729V1.93563H0.0685536V0.0266458Z" fill="white"/>
</mask>
<g mask="url(#mask17_0_23057)">
<path fill-rule="evenodd" clip-rule="evenodd" d="M0.712346 1.93505L17.9771 1.26571C18.3192 1.25245 18.5857 0.964474 18.5725 0.622457C18.5592 0.280379 18.2712 0.0138591 17.9291 0.02712L0.664304 0.696397C0.322287 0.709658 0.0557668 0.99776 0.0690277 1.33978C0.0822886 1.68179 0.370329 1.94831 0.712346 1.93505Z" fill="#EFF1F7"/>
</g>
</g>
<g opacity="0.153152">
<mask id="mask18_0_23057" style="mask-type:luminance" maskUnits="userSpaceOnUse" x="0" y="0" width="19" height="2">
<path fill-rule="evenodd" clip-rule="evenodd" d="M0.0740579 0.0287099H18.5647V1.93168H0.0740579V0.0287099Z" fill="white"/>
</mask>
<g mask="url(#mask18_0_23057)">
<path fill-rule="evenodd" clip-rule="evenodd" d="M0.714845 1.93104L17.9716 1.26202C18.312 1.24876 18.5773 0.962103 18.5641 0.621644C18.5509 0.281256 18.2642 0.0159252 17.9238 0.0291861L0.667059 0.698145C0.32661 0.711345 0.0613399 0.998063 0.0745291 1.33846C0.0877286 1.67891 0.374386 1.94418 0.714845 1.93105" fill="#EEF0F6"/>
</g>
</g>
<g opacity="0.162155">
<mask id="mask19_0_23057" style="mask-type:luminance" maskUnits="userSpaceOnUse" x="0" y="0" width="19" height="2">
<path fill-rule="evenodd" clip-rule="evenodd" d="M0.078061 0.0307115H18.5547V1.92742H0.078061V0.0307115Z" fill="white"/>
</mask>
<g mask="url(#mask19_0_23057)">
<path fill-rule="evenodd" clip-rule="evenodd" d="M0.715848 1.92692L17.9645 1.25827C18.3033 1.24513 18.5674 0.959788 18.5543 0.620897C18.5411 0.282067 18.2558 0.0179861 17.9169 0.0311855L0.668246 0.699837C0.329416 0.712975 0.0653356 0.998321 0.078535 1.33721C0.0916115 1.67604 0.377018 1.94006 0.715848 1.92692Z" fill="#EDEFF6"/>
</g>
</g>
<g opacity="0.171173">
<mask id="mask20_0_23057" style="mask-type:luminance" maskUnits="userSpaceOnUse" x="0" y="0" width="19" height="2">
<path fill-rule="evenodd" clip-rule="evenodd" d="M0.0820641 0.0317748H18.5448V1.92247H0.0820641V0.0317748Z" fill="white"/>
</mask>
<g mask="url(#mask20_0_23057)">
<path fill-rule="evenodd" clip-rule="evenodd" d="M0.716904 1.92196L17.9574 1.25356C18.2947 1.24055 18.5575 0.956516 18.5444 0.619254C18.5313 0.281992 18.2473 0.0192232 17.9101 0.0322382L0.669486 0.700634C0.332224 0.71371 0.0694553 0.997744 0.0825317 1.33501C0.0955467 1.67227 0.37958 1.9351 0.716904 1.92196Z" fill="#ECEEF5"/>
</g>
</g>
<g opacity="0.180176">
<mask id="mask21_0_23057" style="mask-type:luminance" maskUnits="userSpaceOnUse" x="0" y="0" width="19" height="2">
<path fill-rule="evenodd" clip-rule="evenodd" d="M0.087068 0.0337764H18.5361V1.91845H0.087068V0.0337764Z" fill="white"/>
</mask>
<g mask="url(#mask21_0_23057)">
<path fill-rule="evenodd" clip-rule="evenodd" d="M0.718907 1.91791L17.9514 1.24982C18.2871 1.2368 18.5486 0.954153 18.5356 0.618449C18.5226 0.282817 18.2399 0.0212363 17.9043 0.034241L0.671807 0.702268C0.336103 0.715283 0.0744611 0.997994 0.0875376 1.3337C0.100553 1.6694 0.383203 1.93097 0.718907 1.91791Z" fill="#EBEDF5"/>
</g>
</g>
<g opacity="0.189194">
<mask id="mask22_0_23057" style="mask-type:luminance" maskUnits="userSpaceOnUse" x="0" y="0" width="19" height="2">
<path fill-rule="evenodd" clip-rule="evenodd" d="M0.0910711 0.0358405H18.5262V1.91449H0.0910711V0.0358405Z" fill="white"/>
</mask>
<g mask="url(#mask22_0_23057)">
<path fill-rule="evenodd" clip-rule="evenodd" d="M0.719958 1.91389L17.9444 1.24612C18.2785 1.23324 18.5388 0.951887 18.5258 0.617751C18.5129 0.283676 18.2316 0.0234075 17.8975 0.0362995L0.673043 0.70407C0.338968 0.717085 0.078638 0.998362 0.09153 1.33244C0.104545 1.66657 0.385884 1.9269 0.719958 1.91389Z" fill="#EAECF4"/>
</g>
</g>
<g opacity="0.198196">
<mask id="mask23_0_23057" style="mask-type:luminance" maskUnits="userSpaceOnUse" x="0" y="0" width="19" height="2">
<path fill-rule="evenodd" clip-rule="evenodd" d="M0.0965754 0.0379046H18.518V1.9103H0.0965754V0.0379046Z" fill="white"/>
</mask>
<g mask="url(#mask23_0_23057)">
<path fill-rule="evenodd" clip-rule="evenodd" d="M0.7224 1.9099L17.9387 1.2425C18.2712 1.22961 18.5303 0.949577 18.5174 0.61707C18.5045 0.284624 18.2245 0.0254831 17.8921 0.0383648L0.675741 0.705828C0.343234 0.718709 0.084154 0.998685 0.0970357 1.33119C0.109917 1.6637 0.389893 1.92278 0.7224 1.9099Z" fill="#E9EBF4"/>
</g>
</g>
<g opacity="0.207214">
<mask id="mask24_0_23057" style="mask-type:luminance" maskUnits="userSpaceOnUse" x="0" y="0" width="19" height="2">
<path fill-rule="evenodd" clip-rule="evenodd" d="M0.100579 0.0389054H18.508V1.90528H0.100579V0.0389054Z" fill="white"/>
</mask>
<g mask="url(#mask24_0_23057)">
<path fill-rule="evenodd" clip-rule="evenodd" d="M0.723402 1.90482L17.9317 1.23767C18.2625 1.22485 18.5204 0.946261 18.5075 0.615312C18.4947 0.284363 18.2161 0.0265433 17.8852 0.0393635L0.676928 0.706509C0.345979 0.719329 0.0881593 0.997983 0.101041 1.32893C0.1138 1.65982 0.392453 1.91764 0.723402 1.90482Z" fill="#E8EAF3"/>
</g>
</g>
<g opacity="0.216217">
<mask id="mask25_0_23057" style="mask-type:luminance" maskUnits="userSpaceOnUse" x="0" y="0" width="19" height="2">
<path fill-rule="evenodd" clip-rule="evenodd" d="M0.105582 0.0409695H18.4993V1.90133H0.105582V0.0409695Z" fill="white"/>
</mask>
<g mask="url(#mask25_0_23057)">
<path fill-rule="evenodd" clip-rule="evenodd" d="M0.725391 1.90075L17.9256 1.23399C18.2549 1.22123 18.5115 0.943885 18.4988 0.614566C18.486 0.285246 18.2087 0.0286667 17.8793 0.0414254L0.679183 0.708191C0.349863 0.72095 0.0932224 0.998292 0.106043 1.32761C0.118801 1.65693 0.396082 1.91357 0.725401 1.90075" fill="#E7EAF2"/>
</g>
</g>
<g opacity="0.22522">
<mask id="mask26_0_23057" style="mask-type:luminance" maskUnits="userSpaceOnUse" x="0" y="0" width="19" height="2">
<path fill-rule="evenodd" clip-rule="evenodd" d="M0.109586 0.0430336H18.4894V1.89738H0.109586V0.0430336Z" fill="white"/>
</mask>
<g mask="url(#mask26_0_23057)">
<path fill-rule="evenodd" clip-rule="evenodd" d="M0.726457 1.89681L17.9186 1.23029C18.2463 1.21765 18.5017 0.941684 18.489 0.613932C18.4763 0.286181 18.2003 0.03079 17.8725 0.0434873L0.680484 0.710007C0.352733 0.722705 0.097342 0.998673 0.110039 1.32636C0.122737 1.65412 0.398767 1.90957 0.726457 1.89681Z" fill="#E6E9F2"/>
</g>
</g>
<g opacity="0.234238">
<mask id="mask27_0_23057" style="mask-type:luminance" maskUnits="userSpaceOnUse" x="0" y="0" width="19" height="2">
<path fill-rule="evenodd" clip-rule="evenodd" d="M0.11509 0.0450977H18.481V1.89318H0.11509V0.0450977Z" fill="white"/>
</mask>
<g mask="url(#mask27_0_23057)">
<path fill-rule="evenodd" clip-rule="evenodd" d="M0.729027 1.8928L17.913 1.22659C18.2391 1.21396 18.4933 0.939309 18.4806 0.613176C18.468 0.287044 18.1934 0.0329134 17.8672 0.0455492L0.683239 0.711762C0.357045 0.724398 0.102915 0.998983 0.115541 1.32512C0.128176 1.65131 0.402823 1.90544 0.729017 1.89281" fill="#E5E8F1"/>
</g>
</g>
<g opacity="0.24324">
<mask id="mask28_0_23057" style="mask-type:luminance" maskUnits="userSpaceOnUse" x="0" y="0" width="19" height="2">
<path fill-rule="evenodd" clip-rule="evenodd" d="M0.119093 0.0460985H18.4713V1.88816H0.119093V0.0460985Z" fill="white"/>
</mask>
<g mask="url(#mask28_0_23057)">
<path fill-rule="evenodd" clip-rule="evenodd" d="M0.730012 1.88773L17.9059 1.22184C18.2305 1.20932 18.4834 0.935989 18.4708 0.611485C18.4582 0.286859 18.1849 0.0340308 17.8604 0.0465436L0.68448 0.712439C0.359915 0.725074 0.107025 0.998348 0.119538 1.32291C0.132174 1.64742 0.405447 1.90037 0.730012 1.88773Z" fill="#E4E7F1"/>
</g>
</g>
<g opacity="0.252258">
<mask id="mask29_0_23057" style="mask-type:luminance" maskUnits="userSpaceOnUse" x="0" y="0" width="19" height="2">
<path fill-rule="evenodd" clip-rule="evenodd" d="M0.123096 0.0481626H18.4613V1.88397H0.123096V0.0481626Z" fill="white"/>
</mask>
<g mask="url(#mask29_0_23057)">
<path fill-rule="evenodd" clip-rule="evenodd" d="M0.731014 1.88372L17.8989 1.2182C18.2218 1.20563 18.4735 0.933669 18.4609 0.610733C18.4484 0.287727 18.1765 0.036097 17.8535 0.0486098L0.685667 0.714197C0.36266 0.72671 0.111031 0.998672 0.123543 1.32167C0.136118 1.64454 0.408079 1.89624 0.731014 1.88373" fill="#E3E6F0"/>
</g>
</g>
<g opacity="0.261261">
<mask id="mask30_0_23057" style="mask-type:luminance" maskUnits="userSpaceOnUse" x="0" y="0" width="19" height="2">
<path fill-rule="evenodd" clip-rule="evenodd" d="M0.1281 0.0502267H18.4526V1.88026H0.1281V0.0502267Z" fill="white"/>
</mask>
<g mask="url(#mask30_0_23057)">
<path fill-rule="evenodd" clip-rule="evenodd" d="M0.733013 1.87967L17.8928 1.21446C18.2142 1.20195 18.4646 0.931358 18.4521 0.609991C18.4397 0.288613 18.169 0.0381726 17.8476 0.0506752L0.687921 0.715822C0.366544 0.728335 0.116103 0.998923 0.128544 1.32029C0.140996 1.64167 0.411645 1.89211 0.733013 1.87967Z" fill="#E2E5F0"/>
</g>
</g>
<g opacity="0.270264">
<mask id="mask31_0_23057" style="mask-type:luminance" maskUnits="userSpaceOnUse" x="0" y="0" width="19" height="2">
<path fill-rule="evenodd" clip-rule="evenodd" d="M0.132103 0.0522283H18.4427V1.876H0.132103V0.0522283Z" fill="white"/>
</mask>
<g mask="url(#mask31_0_23057)">
<path fill-rule="evenodd" clip-rule="evenodd" d="M0.734012 1.87572L17.8857 1.21077C18.2055 1.19832 18.4547 0.92905 18.4423 0.60923C18.4299 0.289482 18.1606 0.0402812 17.8408 0.052671L0.689105 0.717623C0.369357 0.730003 0.120156 0.999279 0.132546 1.31916C0.144925 1.63891 0.414264 1.88811 0.734012 1.87572Z" fill="#E1E4EF"/>
</g>
</g>
<g opacity="0.279282">
<mask id="mask32_0_23057" style="mask-type:luminance" maskUnits="userSpaceOnUse" x="0" y="0" width="19" height="2">
<path fill-rule="evenodd" clip-rule="evenodd" d="M0.137608 0.0532916H18.4345V1.87104H0.137608V0.0532916Z" fill="white"/>
</mask>
<g mask="url(#mask32_0_23057)">
<path fill-rule="evenodd" clip-rule="evenodd" d="M0.73651 1.87065L17.8802 1.20601C18.1983 1.19369 18.4463 0.925724 18.434 0.607544C18.4216 0.289354 18.1536 0.0414133 17.8355 0.0537315L0.69186 0.718315C0.373669 0.730694 0.125729 0.998659 0.138047 1.31685C0.150365 1.63504 0.41833 1.88298 0.73651 1.87066" fill="#E0E3EF"/>
</g>
</g>
<g opacity="0.288284">
<mask id="mask33_0_23057" style="mask-type:luminance" maskUnits="userSpaceOnUse" x="0" y="0" width="19" height="2">
<path fill-rule="evenodd" clip-rule="evenodd" d="M0.141611 0.0553557H18.4246V1.86709H0.141611V0.0553557Z" fill="white"/>
</mask>
<g mask="url(#mask33_0_23057)">
<path fill-rule="evenodd" clip-rule="evenodd" d="M0.737519 1.86665L17.8731 1.20238C18.1897 1.19012 18.4364 0.923471 18.4242 0.606849C18.4118 0.290288 18.1452 0.0435367 17.8286 0.0557933L0.693104 0.72012C0.376482 0.732377 0.129792 0.998958 0.142048 1.31558C0.154305 1.6322 0.420958 1.87889 0.737509 1.86664" fill="#DFE2EE"/>
</g>
</g>
<g opacity="0.297302">
<mask id="mask34_0_23057" style="mask-type:luminance" maskUnits="userSpaceOnUse" x="0" y="0" width="19" height="2">
<path fill-rule="evenodd" clip-rule="evenodd" d="M0.146615 0.0573573H18.4156V1.86307H0.146615V0.0573573Z" fill="white"/>
</mask>
<g mask="url(#mask34_0_23057)">
<path fill-rule="evenodd" clip-rule="evenodd" d="M0.73957 1.86258L17.867 1.19862C18.182 1.18642 18.4275 0.921091 18.4152 0.606088C18.4031 0.291095 18.1378 0.0456548 17.8228 0.0577885L0.69535 0.721808C0.380295 0.734003 0.134845 0.999273 0.147051 1.31428C0.159246 1.62933 0.424515 1.87484 0.73958 1.86258" fill="#DEE2EE"/>
</g>
</g>
<g opacity="0.306305">
<mask id="mask35_0_23057" style="mask-type:luminance" maskUnits="userSpaceOnUse" x="0" y="0" width="19" height="2">
<path fill-rule="evenodd" clip-rule="evenodd" d="M0.150618 0.0594214H18.4059V1.85912H0.150618V0.0594214Z" fill="white"/>
</mask>
<g mask="url(#mask35_0_23057)">
<path fill-rule="evenodd" clip-rule="evenodd" d="M0.740578 1.85851L17.86 1.19487C18.1734 1.18274 18.4176 0.918781 18.4054 0.605407C18.3933 0.291911 18.1294 0.0477211 17.8159 0.0598547L0.696542 0.723495C0.383107 0.735629 0.138917 0.999587 0.151051 1.31302C0.163185 1.62646 0.427143 1.87071 0.740578 1.85851Z" fill="#DDE1ED"/>
</g>
</g>
<g opacity="0.315323">
<mask id="mask36_0_23057" style="mask-type:luminance" maskUnits="userSpaceOnUse" x="0" y="0" width="19" height="2">
<path fill-rule="evenodd" clip-rule="evenodd" d="M0.155622 0.0614855H18.397V1.85492H0.155622V0.0614855Z" fill="white"/>
</mask>
<g mask="url(#mask36_0_23057)">
<path fill-rule="evenodd" clip-rule="evenodd" d="M0.742581 1.85457L17.8539 1.19118C18.1657 1.1791 18.4087 0.916518 18.3966 0.604712C18.3845 0.292845 18.122 0.0498444 17.8101 0.0619166L0.698791 0.725311C0.386985 0.737383 0.143923 0.999968 0.156057 1.31184C0.168129 1.62364 0.430775 1.86664 0.742581 1.85457Z" fill="#DCE0ED"/>
</g>
</g>
<g opacity="0.324326">
<mask id="mask37_0_23057" style="mask-type:luminance" maskUnits="userSpaceOnUse" x="0" y="0" width="19" height="2">
<path fill-rule="evenodd" clip-rule="evenodd" d="M0.160125 0.0624863H18.3878V1.84991H0.160125V0.0624863Z" fill="white"/>
</mask>
<g mask="url(#mask37_0_23057)">
<path fill-rule="evenodd" clip-rule="evenodd" d="M0.744075 1.84944L17.8473 1.18643C18.1575 1.17442 18.3993 0.913094 18.3873 0.602846C18.3752 0.292608 18.114 0.0508473 17.8037 0.0629195L0.700542 0.725935C0.390304 0.737945 0.148543 0.999208 0.160554 1.30952C0.172565 1.61976 0.433827 1.86144 0.744075 1.84944Z" fill="#DBDFEC"/>
</g>
</g>
<g opacity="0.333328">
<mask id="mask38_0_23057" style="mask-type:luminance" maskUnits="userSpaceOnUse" x="0" y="0" width="19" height="2">
<path fill-rule="evenodd" clip-rule="evenodd" d="M0.164128 0.0645504H18.3778V1.84595H0.164128V0.0645504Z" fill="white"/>
</mask>
<g mask="url(#mask38_0_23057)">
<path fill-rule="evenodd" clip-rule="evenodd" d="M0.745074 1.8455L17.8402 1.18273C18.1489 1.17084 18.3894 0.910889 18.3774 0.60227V0.602208C18.3655 0.293528 18.1055 0.0530279 17.7969 0.0649771L0.701786 0.727746C0.393106 0.739757 0.152606 0.999585 0.164555 1.30833C0.176504 1.61695 0.436455 1.85751 0.745074 1.8455Z" fill="#DADEEC"/>
</g>
</g>
<g opacity="0.342346">
<mask id="mask39_0_23057" style="mask-type:luminance" maskUnits="userSpaceOnUse" x="0" y="0" width="19" height="2">
<path fill-rule="evenodd" clip-rule="evenodd" d="M0.169132 0.0666145H18.3692V1.842H0.169132V0.0666145Z" fill="white"/>
</mask>
<g mask="url(#mask39_0_23057)">
<path fill-rule="evenodd" clip-rule="evenodd" d="M0.747124 1.84149L17.8342 1.1791C18.1412 1.16715 18.3805 0.908635 18.3686 0.601523C18.3567 0.294411 18.0981 0.0551609 17.7911 0.0670383L0.70397 0.72949C0.396919 0.741378 0.157669 0.999955 0.169557 1.30707C0.181444 1.61412 0.440084 1.85337 0.747134 1.84148" fill="#D9DDEB"/>
</g>
</g>
<g opacity="0.351349">
<mask id="mask40_0_23057" style="mask-type:luminance" maskUnits="userSpaceOnUse" x="0" y="0" width="19" height="2">
<path fill-rule="evenodd" clip-rule="evenodd" d="M0.173135 0.0686161H18.3592V1.83774H0.173135V0.0686161Z" fill="white"/>
</mask>
<g mask="url(#mask40_0_23057)">
<path fill-rule="evenodd" clip-rule="evenodd" d="M0.748132 1.83736L17.8271 1.17528C18.1326 1.16345 18.3706 0.906259 18.3588 0.600704C18.3469 0.295211 18.0897 0.0572218 17.7842 0.0690377L0.705286 0.73112C0.399792 0.743008 0.161731 1.0002 0.173557 1.3057C0.185384 1.61119 0.442639 1.84925 0.748132 1.83736Z" fill="#D8DCEB"/>
</g>
</g>
<g opacity="0.360367">
<mask id="mask41_0_23057" style="mask-type:luminance" maskUnits="userSpaceOnUse" x="0" y="0" width="19" height="2">
<path fill-rule="evenodd" clip-rule="evenodd" d="M0.17864 0.0696794H18.3508V1.83278H0.17864V0.0696794Z" fill="white"/>
</mask>
<g mask="url(#mask41_0_23057)">
<path fill-rule="evenodd" clip-rule="evenodd" d="M0.750693 1.83241L17.8215 1.17059C18.1254 1.15876 18.3622 0.902939 18.3504 0.599014C18.3387 0.295089 18.0827 0.0582776 17.7789 0.0701038L0.708031 0.73193C0.404106 0.743685 0.167295 0.999577 0.17906 1.3035C0.190886 1.60737 0.446707 1.84418 0.750693 1.83241Z" fill="#D7DBEA"/>
</g>
</g>
<g opacity="0.36937">
<mask id="mask42_0_23057" style="mask-type:luminance" maskUnits="userSpaceOnUse" x="0" y="0" width="19" height="2">
<path fill-rule="evenodd" clip-rule="evenodd" d="M0.182643 0.0717435H18.3411V1.82883H0.182643V0.0717435Z" fill="white"/>
</mask>
<g mask="url(#mask42_0_23057)">
<path fill-rule="evenodd" clip-rule="evenodd" d="M0.751691 1.82841L17.8145 1.16689C18.1168 1.1552 18.3523 0.900681 18.3406 0.598324C18.3289 0.295967 18.0743 0.0604678 17.772 0.0721608L0.709223 0.73368C0.406928 0.745373 0.171367 0.999954 0.18306 1.30225C0.194753 1.60455 0.449334 1.84011 0.751691 1.82841Z" fill="#D6DAEA"/>
</g>
</g>
<g opacity="0.378372">
<mask id="mask43_0_23057" style="mask-type:luminance" maskUnits="userSpaceOnUse" x="0" y="0" width="19" height="2">
<path fill-rule="evenodd" clip-rule="evenodd" d="M0.187647 0.0737451H18.3321V1.82481H0.187647V0.0737451Z" fill="white"/>
</mask>
<g mask="url(#mask43_0_23057)">
<path fill-rule="evenodd" clip-rule="evenodd" d="M0.753633 1.82434L17.8084 1.1632C18.1091 1.1515 18.3434 0.898305 18.3317 0.597567C18.3201 0.296829 18.0669 0.0625286 17.7661 0.0741601L0.711411 0.735361C0.410673 0.746993 0.176373 1.00025 0.188066 1.30099C0.199697 1.60167 0.452895 1.83603 0.753633 1.82434Z" fill="#D5DAE9"/>
</g>
</g>
<g opacity="0.38739">
<mask id="mask44_0_23057" style="mask-type:luminance" maskUnits="userSpaceOnUse" x="0" y="0" width="19" height="2">
<path fill-rule="evenodd" clip-rule="evenodd" d="M0.19165 0.0758092H18.3224V1.82062H0.19165V0.0758092Z" fill="white"/>
</mask>
<g mask="url(#mask44_0_23057)">
<path fill-rule="evenodd" clip-rule="evenodd" d="M0.754703 1.82028L17.8013 1.15945C18.1004 1.14788 18.3336 0.895929 18.3219 0.596821C18.3104 0.297712 18.0585 0.064652 17.7594 0.076222L0.712665 0.737054C0.413557 0.748686 0.180435 1.00051 0.192067 1.29968C0.203637 1.59885 0.455522 1.83191 0.754693 1.82028" fill="#D4D9E9"/>
</g>
</g>
<g opacity="0.396393">
<mask id="mask45_0_23057" style="mask-type:luminance" maskUnits="userSpaceOnUse" x="0" y="0" width="19" height="2">
<path fill-rule="evenodd" clip-rule="evenodd" d="M0.196654 0.0768726H18.3135V1.81566H0.196654V0.0768726Z" fill="white"/>
</mask>
<g mask="url(#mask45_0_23057)">
<path fill-rule="evenodd" clip-rule="evenodd" d="M0.756749 1.81533L17.7952 1.15475C18.0928 1.14318 18.3247 0.89267 18.3131 0.595129C18.3016 0.297589 18.051 0.0657174 17.7535 0.0772874L0.714968 0.737802C0.417427 0.749372 0.185556 0.999885 0.197064 1.29743C0.208634 1.59504 0.459147 1.82684 0.756749 1.81533Z" fill="#D3D8E8"/>
</g>
</g>
<g opacity="0.405411">
<mask id="mask46_0_23057" style="mask-type:luminance" maskUnits="userSpaceOnUse" x="0" y="0" width="19" height="2">
<path fill-rule="evenodd" clip-rule="evenodd" d="M0.201157 0.0788741H18.3043V1.81165H0.201157V0.0788741Z" fill="white"/>
</mask>
<g mask="url(#mask46_0_23057)">
<path fill-rule="evenodd" clip-rule="evenodd" d="M0.758247 1.81126L17.7887 1.15099C18.0847 1.13955 18.3153 0.890293 18.3038 0.594372C18.2923 0.298451 18.0431 0.0677782 17.7472 0.0792867L0.716722 0.739555C0.420739 0.751002 0.190128 1.00019 0.201565 1.29618C0.213073 1.5921 0.462264 1.82277 0.758247 1.81126Z" fill="#D2D7E7"/>
</g>
</g>
<g opacity="0.414413">
<mask id="mask47_0_23057" style="mask-type:luminance" maskUnits="userSpaceOnUse" x="0" y="0" width="19" height="2">
<path fill-rule="evenodd" clip-rule="evenodd" d="M0.20516 0.0809382H18.2943V1.80769H0.20516V0.0809382Z" fill="white"/>
</mask>
<g mask="url(#mask47_0_23057)">
<path fill-rule="evenodd" clip-rule="evenodd" d="M0.759189 1.80719L17.7816 1.14731C18.076 1.13592 18.3053 0.88798 18.2939 0.593626C18.2825 0.299273 18.0346 0.0699017 17.7403 0.0813487L0.717848 0.741238C0.423495 0.752624 0.194124 1.00056 0.205571 1.29492C0.216956 1.58927 0.464835 1.81858 0.759189 1.80719Z" fill="#D1D6E7"/>
</g>
</g>
<g opacity="0.423416">
<mask id="mask48_0_23057" style="mask-type:luminance" maskUnits="userSpaceOnUse" x="0" y="0" width="19" height="2">
<path fill-rule="evenodd" clip-rule="evenodd" d="M0.210164 0.0830023H18.2854V1.8035H0.210164V0.0830023Z" fill="white"/>
</mask>
<g mask="url(#mask48_0_23057)">
<path fill-rule="evenodd" clip-rule="evenodd" d="M0.761245 1.80325L17.7755 1.1436C18.0683 1.13228 18.2964 0.885713 18.2851 0.592927C18.2738 0.300203 18.0272 0.0720823 17.7344 0.0834063L0.72015 0.74305C0.427355 0.754436 0.199244 1.00088 0.210568 1.29367C0.221954 1.58646 0.468521 1.81457 0.761245 1.80325Z" fill="#D0D5E6"/>
</g>
</g>
<g opacity="0.432434">
<mask id="mask49_0_23057" style="mask-type:luminance" maskUnits="userSpaceOnUse" x="0" y="0" width="19" height="2">
<path fill-rule="evenodd" clip-rule="evenodd" d="M0.214167 0.0840031H18.2757V1.79848H0.214167V0.0840031Z" fill="white"/>
</mask>
<g mask="url(#mask49_0_23057)">
<path fill-rule="evenodd" clip-rule="evenodd" d="M0.762185 1.79818L17.7685 1.13892C18.0596 1.12759 18.2865 0.882339 18.2752 0.591245C18.264 0.300017 18.0187 0.0730851 17.7276 0.0844092L0.721347 0.743735C0.43018 0.754998 0.203259 1.00018 0.214573 1.29141C0.225835 1.58251 0.471019 1.80944 0.762185 1.79818Z" fill="#CFD4E6"/>
</g>
</g>
<g opacity="0.441437">
<mask id="mask50_0_23057" style="mask-type:luminance" maskUnits="userSpaceOnUse" x="0" y="0" width="19" height="2">
<path fill-rule="evenodd" clip-rule="evenodd" d="M0.219171 0.0860672H18.2668V1.79477H0.219171V0.0860672Z" fill="white"/>
</mask>
<g mask="url(#mask50_0_23057)">
<path fill-rule="evenodd" clip-rule="evenodd" d="M0.764185 1.79417L17.7623 1.13516C18.0519 1.12403 18.2776 0.880083 18.2664 0.590484C18.2552 0.300947 18.0113 0.0752657 17.7217 0.0864668L0.723531 0.745485C0.433933 0.756748 0.208313 1.00056 0.219575 1.29016C0.230776 1.57976 0.474587 1.80544 0.764185 1.79417Z" fill="#CED3E5"/>
</g>
</g>
<g opacity="0.450455">
<mask id="mask51_0_23057" style="mask-type:luminance" maskUnits="userSpaceOnUse" x="0" y="0" width="19" height="2">
<path fill-rule="evenodd" clip-rule="evenodd" d="M0.223675 0.0881314H18.2576V1.79057H0.223675V0.0881314Z" fill="white"/>
</mask>
<g mask="url(#mask51_0_23057)">
<path fill-rule="evenodd" clip-rule="evenodd" d="M0.765745 1.79011L17.7558 1.13147C18.0438 1.12034 18.2682 0.877772 18.2571 0.589803C18.2459 0.301824 18.0034 0.0773414 17.7154 0.0885322L0.725276 0.747172C0.437296 0.758301 0.212875 1.00087 0.224076 1.28884C0.235206 1.57688 0.477715 1.8013 0.765745 1.79011Z" fill="#CDD2E5"/>
</g>
</g>
<g opacity="0.459457">
<mask id="mask52_0_23057" style="mask-type:luminance" maskUnits="userSpaceOnUse" x="0" y="0" width="19" height="2">
<path fill-rule="evenodd" clip-rule="evenodd" d="M0.228679 0.0891321H18.2487V1.78555H0.228679V0.0891321Z" fill="white"/>
</mask>
<g mask="url(#mask52_0_23057)">
<path fill-rule="evenodd" clip-rule="evenodd" d="M0.767754 1.78504L17.7498 1.12671C18.0362 1.11564 18.2593 0.874385 18.2483 0.588045C18.2372 0.301572 17.996 0.0784016 17.7095 0.0895309L0.72753 0.747924C0.441119 0.758931 0.217948 1.00018 0.229077 1.28659C0.240145 1.57294 0.481332 1.79617 0.767743 1.78504" fill="#CCD2E4"/>
</g>
</g>
<g opacity="0.468475">
<mask id="mask53_0_23057" style="mask-type:luminance" maskUnits="userSpaceOnUse" x="0" y="0" width="19" height="2">
<path fill-rule="evenodd" clip-rule="evenodd" d="M0.232682 0.0911962H18.2387V1.78136H0.232682V0.0911962Z" fill="white"/>
</mask>
<g mask="url(#mask53_0_23057)">
<path fill-rule="evenodd" clip-rule="evenodd" d="M0.76881 1.7811L17.7428 1.12308C18.0276 1.11201 18.2495 0.872139 18.2385 0.587347C18.2274 0.302503 17.9876 0.0805727 17.7027 0.0915893L0.728832 0.749665C0.443989 0.760671 0.222058 1.00055 0.233075 1.28534C0.244143 1.57018 0.483956 1.79217 0.76881 1.7811Z" fill="#CBD1E4"/>
</g>
</g>
<g opacity="0.477478">
<mask id="mask54_0_23057" style="mask-type:luminance" maskUnits="userSpaceOnUse" x="0" y="0" width="19" height="2">
<path fill-rule="evenodd" clip-rule="evenodd" d="M0.237686 0.0932604H18.23V1.77765H0.237686V0.0932604Z" fill="white"/>
</mask>
<g mask="url(#mask54_0_23057)">
<path fill-rule="evenodd" clip-rule="evenodd" d="M0.770751 1.7771L17.7366 1.11933C18.0199 1.10839 18.2405 0.869886 18.2296 0.586661C18.2186 0.303437 17.9801 0.0827055 17.6968 0.0936504L0.73103 0.751419C0.447805 0.762425 0.227074 1.00087 0.23808 1.28415C0.249025 1.56738 0.487527 1.78811 0.770751 1.7771Z" fill="#CAD0E3"/>
</g>
</g>
<g opacity="0.486481">
<mask id="mask55_0_23057" style="mask-type:luminance" maskUnits="userSpaceOnUse" x="0" y="0" width="19" height="2">
<path fill-rule="evenodd" clip-rule="evenodd" d="M0.242189 0.0952619H18.2206V1.77339H0.242189V0.0952619Z" fill="white"/>
</mask>
<g mask="url(#mask55_0_23057)">
<path fill-rule="evenodd" clip-rule="evenodd" d="M0.772311 1.77297L17.7301 1.11552C18.0117 1.10463 18.2312 0.867442 18.2202 0.585847C18.2093 0.304129 17.9721 0.0847093 17.6905 0.0956542L0.732774 0.753043C0.451118 0.763988 0.231637 1.00112 0.242581 1.28277C0.253465 1.56443 0.490655 1.78391 0.772311 1.77297Z" fill="#C9CFE3"/>
</g>
</g>
<g opacity="0.495499">
<mask id="mask56_0_23057" style="mask-type:luminance" maskUnits="userSpaceOnUse" x="0" y="0" width="19" height="2">
<path fill-rule="evenodd" clip-rule="evenodd" d="M0.246192 0.097326H18.2109V1.76944H0.246192V0.097326Z" fill="white"/>
</mask>
<g mask="url(#mask56_0_23057)">
<path fill-rule="evenodd" clip-rule="evenodd" d="M0.773367 1.76902L17.723 1.11195C18.0031 1.10112 18.2213 0.865195 18.2104 0.58522C18.1996 0.305121 17.9637 0.0868898 17.6837 0.0977117L0.734025 0.754855C0.453926 0.765738 0.235756 1.00154 0.246578 1.28158C0.257462 1.56168 0.493268 1.77991 0.773367 1.76903" fill="#C8CEE2"/>
</g>
</g>
<g opacity="0.504501">
<mask id="mask57_0_23057" style="mask-type:luminance" maskUnits="userSpaceOnUse" x="0" y="0" width="19" height="2">
<path fill-rule="evenodd" clip-rule="evenodd" d="M0.251196 0.0983894H18.2019V1.76424H0.251196V0.0983894Z" fill="white"/>
</mask>
<g mask="url(#mask57_0_23057)">
<path fill-rule="evenodd" clip-rule="evenodd" d="M0.775304 1.76396L17.7169 1.10719C17.9954 1.09643 18.2124 0.861875 18.2015 0.583405C18.1908 0.304936 17.9563 0.0879553 17.6778 0.0987772L0.736208 0.755541C0.457739 0.766302 0.240819 1.00086 0.25158 1.27933C0.26234 1.5578 0.496835 1.77472 0.775304 1.76396Z" fill="#C8CDE2"/>
</g>
</g>
<g opacity="0.513519">
<mask id="mask58_0_23057" style="mask-type:luminance" maskUnits="userSpaceOnUse" x="0" y="0" width="19" height="2">
<path fill-rule="evenodd" clip-rule="evenodd" d="M0.255199 0.100391H18.1922V1.76046H0.255199V0.100391Z" fill="white"/>
</mask>
<g mask="url(#mask58_0_23057)">
<path fill-rule="evenodd" clip-rule="evenodd" d="M0.776307 1.75982L17.7098 1.10343C17.9867 1.09267 18.2025 0.859488 18.1917 0.582648C18.181 0.305686 17.9478 0.0900163 17.6709 0.100777L0.737456 0.757161C0.460617 0.767922 0.244825 1.00111 0.255585 1.27794C0.266284 1.55485 0.499405 1.77058 0.776307 1.75982Z" fill="#C7CCE1"/>
</g>
</g>
<g opacity="0.522522">
<mask id="mask59_0_23057" style="mask-type:luminance" maskUnits="userSpaceOnUse" x="0" y="0" width="19" height="2">
<path fill-rule="evenodd" clip-rule="evenodd" d="M0.260203 0.102455H18.1833V1.75627H0.260203V0.102455Z" fill="white"/>
</mask>
<g mask="url(#mask59_0_23057)">
<path fill-rule="evenodd" clip-rule="evenodd" d="M0.778363 1.75588L17.7038 1.09974C17.9791 1.08905 18.1936 0.857245 18.183 0.581963C18.1723 0.306682 17.9405 0.0921395 17.6652 0.102838L0.739769 0.758977C0.464426 0.769676 0.249945 1.00148 0.260582 1.27682C0.271281 1.55203 0.503081 1.76658 0.778363 1.75588Z" fill="#C6CBE1"/>
</g>
</g>
<g opacity="0.531525">
<mask id="mask60_0_23057" style="mask-type:luminance" maskUnits="userSpaceOnUse" x="0" y="0" width="19" height="2">
<path fill-rule="evenodd" clip-rule="evenodd" d="M0.264707 0.104519H18.1739V1.75231H0.264707V0.104519Z" fill="white"/>
</mask>
<g mask="url(#mask60_0_23057)">
<path fill-rule="evenodd" clip-rule="evenodd" d="M0.779923 1.75186L17.6972 1.09604C17.9709 1.08548 18.1842 0.854917 18.1736 0.581264C18.163 0.30755 17.9325 0.0943202 17.6588 0.104896L0.741452 0.760717C0.467738 0.771355 0.254508 1.00178 0.265084 1.2755C0.275721 1.54921 0.506148 1.7625 0.779923 1.75186Z" fill="#C5CAE0"/>
</g>
</g>
<g opacity="0.540543">
<mask id="mask61_0_23057" style="mask-type:luminance" maskUnits="userSpaceOnUse" x="0" y="0" width="19" height="2">
<path fill-rule="evenodd" clip-rule="evenodd" d="M0.269711 0.10552H18.1652V1.74706H0.269711V0.10552Z" fill="white"/>
</mask>
<g mask="url(#mask61_0_23057)">
<path fill-rule="evenodd" clip-rule="evenodd" d="M0.781926 1.7468L17.6911 1.09129C17.9633 1.08079 18.1753 0.8516 18.1648 0.579516C18.1542 0.307431 17.9251 0.0953897 17.653 0.105894L0.743711 0.761408C0.471565 0.771973 0.259523 1.0011 0.270089 1.27324C0.280655 1.54539 0.50978 1.75743 0.781926 1.7468Z" fill="#C4C9E0"/>
</g>
</g>
<g opacity="0.549545">
<mask id="mask62_0_23057" style="mask-type:luminance" maskUnits="userSpaceOnUse" x="0" y="0" width="19" height="2">
<path fill-rule="evenodd" clip-rule="evenodd" d="M0.273714 0.107584H18.1552V1.74334H0.273714V0.107584Z" fill="white"/>
</mask>
<g mask="url(#mask62_0_23057)">
<path fill-rule="evenodd" clip-rule="evenodd" d="M0.78292 1.74286L17.6841 1.0876C17.9546 1.07709 18.1654 0.849291 18.1549 0.578826C18.1444 0.308238 17.9166 0.0974465 17.6461 0.107961L0.744889 0.763218C0.474424 0.773661 0.263643 1.00153 0.274086 1.27199C0.28459 1.54252 0.512393 1.75337 0.78292 1.74286Z" fill="#C3C9DF"/>
</g>
</g>
<g opacity="0.558563">
<mask id="mask63_0_23057" style="mask-type:luminance" maskUnits="userSpaceOnUse" x="0" y="0" width="19" height="2">
<path fill-rule="evenodd" clip-rule="evenodd" d="M0.277717 0.109648H18.1455V1.73915H0.277717V0.109648Z" fill="white"/>
</mask>
<g mask="url(#mask63_0_23057)">
<path fill-rule="evenodd" clip-rule="evenodd" d="M0.783918 1.73886L17.677 1.08391C17.9459 1.07347 18.1555 0.847038 18.1451 0.578079C18.1347 0.30912 17.9082 0.0995794 17.6393 0.110022L0.746205 0.764911C0.477246 0.775353 0.267705 1.00178 0.278087 1.27074C0.288529 1.5397 0.514959 1.74924 0.783918 1.73886Z" fill="#C2C8DF"/>
</g>
</g>
<g opacity="0.567566">
<mask id="mask64_0_23057" style="mask-type:luminance" maskUnits="userSpaceOnUse" x="0" y="0" width="19" height="2">
<path fill-rule="evenodd" clip-rule="evenodd" d="M0.282721 0.111712H18.1366V1.7352H0.282721V0.111712Z" fill="white"/>
</mask>
<g mask="url(#mask64_0_23057)">
<path fill-rule="evenodd" clip-rule="evenodd" d="M0.785921 1.73484L17.6709 1.08027C17.9383 1.06988 18.1466 0.844767 18.1362 0.577437C18.1259 0.310108 17.9008 0.101817 17.6334 0.112075L0.748393 0.766708C0.481064 0.777089 0.272711 1.00221 0.283093 1.26954C0.293474 1.53694 0.518592 1.74522 0.785921 1.73484Z" fill="#C1C7DE"/>
</g>
</g>
<g opacity="0.576584">
<mask id="mask65_0_23057" style="mask-type:luminance" maskUnits="userSpaceOnUse" x="0" y="0" width="19" height="2">
<path fill-rule="evenodd" clip-rule="evenodd" d="M0.287224 0.113714H18.1274V1.73094H0.287224V0.113714Z" fill="white"/>
</mask>
<g mask="url(#mask65_0_23057)">
<path fill-rule="evenodd" clip-rule="evenodd" d="M0.787421 1.73077L17.6644 1.07651C17.9301 1.06619 18.1372 0.842395 18.1269 0.576623C18.1166 0.310851 17.8928 0.103821 17.6271 0.114079L0.750138 0.768343C0.484367 0.778724 0.277265 1.00253 0.287595 1.26823C0.297853 1.53406 0.52171 1.7411 0.787421 1.73077Z" fill="#C0C6DE"/>
</g>
</g>
<g opacity="0.585587">
<mask id="mask66_0_23057" style="mask-type:luminance" maskUnits="userSpaceOnUse" x="0" y="0" width="19" height="2">
<path fill-rule="evenodd" clip-rule="evenodd" d="M0.292228 0.114777H18.1184V1.72622H0.292228V0.114777Z" fill="white"/>
</mask>
<g mask="url(#mask66_0_23057)">
<path fill-rule="evenodd" clip-rule="evenodd" d="M0.78948 1.72571L17.6583 1.07176C17.9225 1.06156 18.1283 0.83908 18.1181 0.574876C18.1079 0.310734 17.8854 0.104944 17.6213 0.11514L0.752331 0.769086C0.488189 0.779344 0.282337 1.00177 0.292596 1.26597C0.302854 1.53011 0.525277 1.73596 0.78948 1.72571Z" fill="#BFC5DD"/>
</g>
</g>
<g opacity="0.594589">
<mask id="mask67_0_23057" style="mask-type:luminance" maskUnits="userSpaceOnUse" x="0" y="0" width="19" height="2">
<path fill-rule="evenodd" clip-rule="evenodd" d="M0.296231 0.116841H18.1085V1.72227H0.296231V0.116841Z" fill="white"/>
</mask>
<g mask="url(#mask67_0_23057)">
<path fill-rule="evenodd" clip-rule="evenodd" d="M0.790475 1.7217L17.6513 1.06806C17.9138 1.05787 18.1184 0.836756 18.1083 0.574181C18.0981 0.311597 17.8769 0.107067 17.6144 0.117202L0.753572 0.770841C0.490987 0.781037 0.286457 1.00215 0.296592 1.26472C0.306728 1.52731 0.5279 1.7319 0.790475 1.7217Z" fill="#BEC4DD"/>
</g>
</g>
<g opacity="0.603607">
<mask id="mask68_0_23057" style="mask-type:luminance" maskUnits="userSpaceOnUse" x="0" y="0" width="19" height="2">
<path fill-rule="evenodd" clip-rule="evenodd" d="M0.301235 0.118843H18.0998V1.71801H0.301235V0.118843Z" fill="white"/>
</mask>
<g mask="url(#mask68_0_23057)">
<path fill-rule="evenodd" clip-rule="evenodd" d="M0.792477 1.7177L17.6451 1.06432C17.9062 1.05418 18.1095 0.834454 18.0994 0.573438C18.0893 0.312482 17.8695 0.10908 17.6085 0.119205L0.75583 0.772587C0.494875 0.782722 0.291472 1.00239 0.301598 1.26347C0.311733 1.52442 0.531532 1.72783 0.792477 1.7177Z" fill="#BDC3DC"/>
</g>
</g>
<g opacity="0.61261">
<mask id="mask69_0_23057" style="mask-type:luminance" maskUnits="userSpaceOnUse" x="0" y="0" width="19" height="2">
<path fill-rule="evenodd" clip-rule="evenodd" d="M0.305238 0.119906H18.0899V1.71305H0.305238V0.119906Z" fill="white"/>
</mask>
<g mask="url(#mask69_0_23057)">
<path fill-rule="evenodd" clip-rule="evenodd" d="M0.793476 1.71263L17.6381 1.05962C17.8975 1.04955 18.0996 0.831191 18.0895 0.571743C18.0795 0.312417 17.8611 0.110193 17.6017 0.120267L0.757075 0.77328C0.497688 0.783415 0.295525 1.00177 0.305599 1.26116C0.315673 1.52061 0.534089 1.72271 0.793476 1.71263Z" fill="#BCC2DB"/>
</g>
</g>
<g opacity="0.621628">
<mask id="mask70_0_23057" style="mask-type:luminance" maskUnits="userSpaceOnUse" x="0" y="0" width="19" height="2">
<path fill-rule="evenodd" clip-rule="evenodd" d="M0.310743 0.121908H18.0817V1.7088H0.310743V0.121908Z" fill="white"/>
</mask>
<g mask="url(#mask70_0_23057)">
<path fill-rule="evenodd" clip-rule="evenodd" d="M0.796036 1.70863L17.6326 1.05587C17.8903 1.04586 18.0912 0.828814 18.0812 0.570995C18.0713 0.313165 17.8541 0.112264 17.5964 0.122266L0.759769 0.775023C0.502 0.785035 0.301099 1.00208 0.311101 1.2599C0.321113 1.51773 0.538217 1.71857 0.796047 1.70863" fill="#BBC1DB"/>
</g>
</g>
<g opacity="0.63063">
<mask id="mask71_0_23057" style="mask-type:luminance" maskUnits="userSpaceOnUse" x="0" y="0" width="19" height="2">
<path fill-rule="evenodd" clip-rule="evenodd" d="M0.314746 0.123972H18.0717V1.70509H0.314746V0.123972Z" fill="white"/>
</mask>
<g mask="url(#mask71_0_23057)">
<path fill-rule="evenodd" clip-rule="evenodd" d="M0.797035 1.70457L17.6254 1.05212C17.8816 1.04218 18.0813 0.826515 18.0714 0.570182C18.0615 0.313981 17.8457 0.11433 17.5895 0.124332L0.761013 0.77672C0.504813 0.786599 0.305161 1.00239 0.315102 1.25859C0.325042 1.51479 0.540773 1.71444 0.797045 1.70456" fill="#BAC1DA"/>
</g>
</g>
<g opacity="0.639633">
<mask id="mask72_0_23057" style="mask-type:luminance" maskUnits="userSpaceOnUse" x="0" y="0" width="19" height="2">
<path fill-rule="evenodd" clip-rule="evenodd" d="M0.31975 0.126036H18.063V1.70089H0.31975V0.126036Z" fill="white"/>
</mask>
<g mask="url(#mask72_0_23057)">
<path fill-rule="evenodd" clip-rule="evenodd" d="M0.799044 1.70055L17.6194 1.04848C17.874 1.0386 18.0725 0.824183 18.0626 0.569541C18.0527 0.314908 17.8383 0.116558 17.5836 0.126386L0.763258 0.778456C0.508688 0.788335 0.310215 1.00275 0.320104 1.2574C0.329983 1.51203 0.544402 1.71044 0.799044 1.70055Z" fill="#B9C0DA"/>
</g>
</g>
<g opacity="0.648651">
<mask id="mask73_0_23057" style="mask-type:luminance" maskUnits="userSpaceOnUse" x="0" y="0" width="19" height="2">
<path fill-rule="evenodd" clip-rule="evenodd" d="M0.323753 0.127037H18.0531V1.69587H0.323753V0.127037Z" fill="white"/>
</mask>
<g mask="url(#mask73_0_23057)">
<path fill-rule="evenodd" clip-rule="evenodd" d="M0.800042 1.6955L17.6123 1.04373C17.8654 1.03392 18.0626 0.820809 18.0527 0.567796C18.043 0.314783 17.8299 0.11757 17.5768 0.127388L0.764512 0.779151C0.511499 0.788907 0.314287 1.00208 0.324104 1.25509C0.33386 1.5081 0.547029 1.70538 0.800042 1.6955Z" fill="#B8BFD9"/>
</g>
</g>
<g opacity="0.657654">
<mask id="mask74_0_23057" style="mask-type:luminance" maskUnits="userSpaceOnUse" x="0" y="0" width="19" height="2">
<path fill-rule="evenodd" clip-rule="evenodd" d="M0.328256 0.129101H18.0437V1.69168H0.328256V0.129101Z" fill="white"/>
</mask>
<g mask="url(#mask74_0_23057)">
<path fill-rule="evenodd" clip-rule="evenodd" d="M0.801541 1.69154L17.6057 1.04004C17.8572 1.03028 18.0531 0.818547 18.0434 0.567163C18.0336 0.315718 17.8219 0.119684 17.5704 0.12945L0.766257 0.780957C0.51475 0.790713 0.318849 1.00245 0.328606 1.25389C0.3383 1.5054 0.550096 1.7013 0.801541 1.69154Z" fill="#B7BED9"/>
</g>
</g>
<g opacity="0.666672">
<mask id="mask75_0_23057" style="mask-type:luminance" maskUnits="userSpaceOnUse" x="0" y="0" width="19" height="2">
<path fill-rule="evenodd" clip-rule="evenodd" d="M0.33326 0.131165H18.035V1.68797H0.33326V0.131165Z" fill="white"/>
</mask>
<g mask="url(#mask75_0_23057)">
<path fill-rule="evenodd" clip-rule="evenodd" d="M0.803597 1.68749L17.5997 1.03635C17.8496 1.02665 18.0443 0.816243 18.0346 0.566355C18.0249 0.31654 17.8145 0.121817 17.5646 0.131512L0.768508 0.78265C0.518621 0.792344 0.32397 1.00276 0.333603 1.25264C0.343298 1.50246 0.553771 1.69718 0.803597 1.68749Z" fill="#B6BDD8"/>
</g>
</g>
<g opacity="0.675674">
<mask id="mask76_0_23057" style="mask-type:luminance" maskUnits="userSpaceOnUse" x="0" y="0" width="19" height="2">
<path fill-rule="evenodd" clip-rule="evenodd" d="M0.337263 0.133229H18.025V1.68377H0.337263V0.133229Z" fill="white"/>
</mask>
<g mask="url(#mask76_0_23057)">
<path fill-rule="evenodd" clip-rule="evenodd" d="M0.804595 1.68347L17.5926 1.03265C17.8409 1.02302 18.0344 0.813918 18.0247 0.565722C18.0151 0.317403 17.8061 0.123941 17.5578 0.133574L0.769752 0.784394C0.521433 0.794027 0.328032 1.00307 0.337604 1.25139C0.347237 1.49964 0.556337 1.69311 0.804595 1.68347Z" fill="#B5BCD8"/>
</g>
</g>
<g opacity="0.684677">
<mask id="mask77_0_23057" style="mask-type:luminance" maskUnits="userSpaceOnUse" x="0" y="0" width="19" height="2">
<path fill-rule="evenodd" clip-rule="evenodd" d="M0.342267 0.13423H18.0163V1.67875H0.342267V0.13423Z" fill="white"/>
</mask>
<g mask="url(#mask77_0_23057)">
<path fill-rule="evenodd" clip-rule="evenodd" d="M0.806531 1.67842L17.5866 1.0279C17.8333 1.01827 18.0254 0.810606 18.0159 0.563916C18.0063 0.317226 17.7986 0.124953 17.5519 0.134576L0.771883 0.785089C0.525254 0.794599 0.332981 1.00239 0.342614 1.24908C0.352124 1.49571 0.559913 1.68792 0.806541 1.67842" fill="#B4BBD7"/>
</g>
</g>
<g opacity="0.693695">
<mask id="mask78_0_23057" style="mask-type:luminance" maskUnits="userSpaceOnUse" x="0" y="0" width="19" height="2">
<path fill-rule="evenodd" clip-rule="evenodd" d="M0.346271 0.136294H18.0064V1.67456H0.346271V0.136294Z" fill="white"/>
</mask>
<g mask="url(#mask78_0_23057)">
<path fill-rule="evenodd" clip-rule="evenodd" d="M0.807597 1.6744L17.5795 1.0242C17.8245 1.01469 18.0155 0.808289 18.006 0.563218C17.9966 0.318086 17.7902 0.127124 17.5451 0.136634L0.773194 0.786829C0.528062 0.796339 0.337101 1.00274 0.346611 1.24782C0.356121 1.49295 0.562526 1.68391 0.807597 1.6744Z" fill="#B3BAD7"/>
</g>
</g>
<g opacity="0.702698">
<mask id="mask79_0_23057" style="mask-type:luminance" maskUnits="userSpaceOnUse" x="0" y="0" width="18" height="2">
<path fill-rule="evenodd" clip-rule="evenodd" d="M0.351775 0.138358H17.9982V1.67084H0.351775V0.138358Z" fill="white"/>
</mask>
<g mask="url(#mask79_0_23057)">
<path fill-rule="evenodd" clip-rule="evenodd" d="M0.810101 1.6704L17.5739 1.02051C17.8174 1.011 18.0072 0.805969 17.9977 0.562527C17.9883 0.318963 17.7832 0.12919 17.5397 0.1387L0.775944 0.788588C0.53238 0.797975 0.342607 1.00307 0.352117 1.24657C0.361566 1.49007 0.566598 1.67979 0.810101 1.6704Z" fill="#B2B9D6"/>
</g>
</g>
<g opacity="0.711716">
<mask id="mask80_0_23057" style="mask-type:luminance" maskUnits="userSpaceOnUse" x="0" y="0" width="18" height="2">
<path fill-rule="evenodd" clip-rule="evenodd" d="M0.355778 0.14036H17.9883V1.66659H0.355778V0.14036Z" fill="white"/>
</mask>
<g mask="url(#mask80_0_23057)">
<path fill-rule="evenodd" clip-rule="evenodd" d="M0.811151 1.66639L17.5669 1.01676C17.8088 1.00737 17.9973 0.803649 17.9879 0.561775C17.9786 0.31984 17.7748 0.131318 17.5329 0.140695L0.777189 0.790326C0.535254 0.799713 0.346793 1.00337 0.356109 1.24531C0.365496 1.48724 0.569278 1.67576 0.811151 1.66639Z" fill="#B1B9D6"/>
</g>
</g>
<g opacity="0.720718">
<mask id="mask81_0_23057" style="mask-type:luminance" maskUnits="userSpaceOnUse" x="0" y="0" width="18" height="2">
<path fill-rule="evenodd" clip-rule="evenodd" d="M0.359781 0.141423H17.9783V1.66163H0.359781V0.141423Z" fill="white"/>
</mask>
<g mask="url(#mask81_0_23057)">
<path fill-rule="evenodd" clip-rule="evenodd" d="M0.81215 1.66131L17.5598 1.01206C17.8001 1.00274 17.9874 0.800335 17.9781 0.560019C17.9687 0.319703 17.7664 0.132431 17.5261 0.141757L0.778434 0.791009C0.538057 0.800324 0.350846 1.00273 0.360111 1.24305C0.369498 1.48336 0.571834 1.67064 0.81215 1.66131Z" fill="#B0B8D5"/>
</g>
</g>
<g opacity="0.729736">
<mask id="mask82_0_23057" style="mask-type:luminance" maskUnits="userSpaceOnUse" x="0" y="0" width="18" height="2">
<path fill-rule="evenodd" clip-rule="evenodd" d="M0.364785 0.143487H17.9696V1.65744H0.364785V0.143487Z" fill="white"/>
</mask>
<g mask="url(#mask82_0_23057)">
<path fill-rule="evenodd" clip-rule="evenodd" d="M0.814091 1.65732L17.5537 1.00831C17.7924 0.999059 17.9784 0.798024 17.9692 0.559338C17.9599 0.32059 17.7589 0.134507 17.5201 0.143822L0.78057 0.792705C0.541884 0.802021 0.355862 1.00306 0.365116 1.24174C0.37437 1.48055 0.575405 1.66657 0.814091 1.65732Z" fill="#AFB7D5"/>
</g>
</g>
<g opacity="0.738739">
<mask id="mask83_0_23057" style="mask-type:luminance" maskUnits="userSpaceOnUse" x="0" y="0" width="18" height="2">
<path fill-rule="evenodd" clip-rule="evenodd" d="M0.368788 0.145489H17.9597V1.65366H0.368788V0.145489Z" fill="white"/>
</mask>
<g mask="url(#mask83_0_23057)">
<path fill-rule="evenodd" clip-rule="evenodd" d="M0.815155 1.65325L17.5467 1.00455C17.7838 0.995361 17.9686 0.795699 17.9594 0.558519C17.9502 0.321329 17.7504 0.136568 17.5133 0.145822L0.781818 0.794449C0.5447 0.80358 0.359867 1.0033 0.369121 1.24042C0.378252 1.47761 0.578037 1.66237 0.815155 1.65324" fill="#AEB6D4"/>
</g>
</g>
<g opacity="0.747742">
<mask id="mask84_0_23057" style="mask-type:luminance" maskUnits="userSpaceOnUse" x="0" y="0" width="18" height="2">
<path fill-rule="evenodd" clip-rule="evenodd" d="M0.374292 0.147553H17.9515V1.6497H0.374292V0.147553Z" fill="white"/>
</mask>
<g mask="url(#mask84_0_23057)">
<path fill-rule="evenodd" clip-rule="evenodd" d="M0.81765 1.64917L17.5411 1.00091C17.7767 0.991783 17.9602 0.793381 17.951 0.557821C17.9419 0.32226 17.7436 0.138739 17.508 0.14788L0.784631 0.796138C0.549071 0.805269 0.365488 1.00367 0.374619 1.23923C0.38375 1.47479 0.58209 1.65831 0.81765 1.64917Z" fill="#ADB5D4"/>
</g>
</g>
<g opacity="0.75676">
<mask id="mask85_0_23057" style="mask-type:luminance" maskUnits="userSpaceOnUse" x="0" y="0" width="18" height="2">
<path fill-rule="evenodd" clip-rule="evenodd" d="M0.378296 0.149617H17.9415V1.64551H0.378296V0.149617Z" fill="white"/>
</mask>
<g mask="url(#mask85_0_23057)">
<path fill-rule="evenodd" clip-rule="evenodd" d="M0.818649 1.64523L17.534 0.997226C17.768 0.988156 17.9503 0.791128 17.9412 0.557197C17.9321 0.323204 17.7351 0.140872 17.5012 0.149941L0.785814 0.797943C0.551883 0.807012 0.36955 1.00404 0.37862 1.23797C0.387689 1.47196 0.584717 1.6543 0.818649 1.64523Z" fill="#ACB4D3"/>
</g>
</g>
<g opacity="0.765762">
<mask id="mask86_0_23057" style="mask-type:luminance" maskUnits="userSpaceOnUse" x="0" y="0" width="18" height="2">
<path fill-rule="evenodd" clip-rule="evenodd" d="M0.383299 0.150618H17.9326V1.6405H0.383299V0.150618Z" fill="white"/>
</mask>
<g mask="url(#mask86_0_23057)">
<path fill-rule="evenodd" clip-rule="evenodd" d="M0.820709 1.6401L17.528 0.992465C17.7603 0.983396 17.9414 0.787679 17.9325 0.555377C17.9234 0.322942 17.7277 0.141932 17.4953 0.15094L0.788059 0.798573C0.555686 0.807581 0.374613 1.0033 0.383621 1.23566C0.392629 1.4681 0.588346 1.64911 0.820709 1.6401Z" fill="#ABB3D3"/>
</g>
</g>
<g opacity="0.77478">
<mask id="mask87_0_23057" style="mask-type:luminance" maskUnits="userSpaceOnUse" x="0" y="0" width="18" height="2">
<path fill-rule="evenodd" clip-rule="evenodd" d="M0.387303 0.152682H17.9229V1.63654H0.387303V0.152682Z" fill="white"/>
</mask>
<g mask="url(#mask87_0_23057)">
<path fill-rule="evenodd" clip-rule="evenodd" d="M0.821707 1.63622L17.5209 0.988778C17.7517 0.979831 17.9315 0.785498 17.9226 0.554693C17.9136 0.323949 17.7192 0.144055 17.4885 0.153002L0.789314 0.80044C0.558508 0.809325 0.378676 1.00372 0.387622 1.23452C0.396569 1.46527 0.590974 1.64509 0.821707 1.63622Z" fill="#AAB2D2"/>
</g>
</g>
<g opacity="0.783783">
<mask id="mask88_0_23057" style="mask-type:luminance" maskUnits="userSpaceOnUse" x="0" y="0" width="18" height="2">
<path fill-rule="evenodd" clip-rule="evenodd" d="M0.392807 0.154746H17.9145V1.63259H0.392807V0.154746Z" fill="white"/>
</mask>
<g mask="url(#mask88_0_23057)">
<path fill-rule="evenodd" clip-rule="evenodd" d="M0.824207 1.63216L17.5153 0.985091C17.7445 0.976206 17.9231 0.783184 17.9142 0.553936C17.9054 0.32476 17.7123 0.146179 17.4832 0.155064L0.792059 0.802071C0.562883 0.810956 0.384239 1.00398 0.393124 1.23323C0.402009 1.46246 0.594969 1.64098 0.824207 1.63216Z" fill="#A9B1D2"/>
</g>
</g>
<g opacity="0.792786">
<mask id="mask89_0_23057" style="mask-type:luminance" maskUnits="userSpaceOnUse" x="0" y="0" width="18" height="2">
<path fill-rule="evenodd" clip-rule="evenodd" d="M0.39681 0.15681H17.9048V1.62839H0.39681V0.15681Z" fill="white"/>
</mask>
<g mask="url(#mask89_0_23057)">
<path fill-rule="evenodd" clip-rule="evenodd" d="M0.825215 1.62814L17.5083 0.981392C17.7359 0.972507 17.9133 0.780859 17.9044 0.553313V0.553251C17.8956 0.325633 17.7039 0.148312 17.4763 0.157125L0.793313 0.803877C0.565633 0.8127 0.388312 1.00441 0.397125 1.23196C0.40601 1.45957 0.597658 1.63696 0.825205 1.62814" fill="#A8B1D1"/>
</g>
</g>
<g opacity="0.801804">
<mask id="mask90_0_23057" style="mask-type:luminance" maskUnits="userSpaceOnUse" x="0" y="0" width="18" height="2">
<path fill-rule="evenodd" clip-rule="evenodd" d="M0.400813 0.157811H17.8948V1.62337H0.400813V0.157811Z" fill="white"/>
</mask>
<g mask="url(#mask90_0_23057)">
<path fill-rule="evenodd" clip-rule="evenodd" d="M0.826265 1.62314L17.5012 0.976632C17.7272 0.96788 17.9034 0.777606 17.8945 0.551555C17.8858 0.325505 17.6955 0.149362 17.4695 0.158124L0.794558 0.80463C0.568507 0.813382 0.392364 1.00366 0.401126 1.22971C0.409878 1.45576 0.600286 1.6319 0.826275 1.62314" fill="#A7B0D0"/>
</g>
</g>
<g opacity="0.810806">
<mask id="mask91_0_23057" style="mask-type:luminance" maskUnits="userSpaceOnUse" x="0" y="0" width="18" height="2">
<path fill-rule="evenodd" clip-rule="evenodd" d="M0.405817 0.159875H17.8861V1.61942H0.405817V0.159875Z" fill="white"/>
</mask>
<g mask="url(#mask91_0_23057)">
<path fill-rule="evenodd" clip-rule="evenodd" d="M0.828274 1.61907L17.4951 0.972884C17.7195 0.964255 17.8944 0.77523 17.8857 0.550799C17.877 0.326378 17.6881 0.151485 17.4636 0.160186L0.796741 0.806312C0.57232 0.815003 0.397428 1.00403 0.406128 1.22846C0.414818 1.45288 0.603843 1.62777 0.828274 1.61907Z" fill="#A6AFD0"/>
</g>
</g>
<g opacity="0.819824">
<mask id="mask92_0_23057" style="mask-type:luminance" maskUnits="userSpaceOnUse" x="0" y="0" width="18" height="2">
<path fill-rule="evenodd" clip-rule="evenodd" d="M0.40982 0.161876H17.8762V1.6154H0.40982V0.161876Z" fill="white"/>
</mask>
<g mask="url(#mask92_0_23057)">
<path fill-rule="evenodd" clip-rule="evenodd" d="M0.829272 1.61501L17.488 0.96919C17.7109 0.960562 17.8845 0.77291 17.8759 0.550047C17.8673 0.327245 17.6796 0.153613 17.4568 0.16218L0.797995 0.807999C0.575131 0.816628 0.4015 1.00428 0.410128 1.2272C0.418757 1.45001 0.606408 1.62364 0.829272 1.61501Z" fill="#A5AECF"/>
</g>
</g>
<g opacity="0.828827">
<mask id="mask93_0_23057" style="mask-type:luminance" maskUnits="userSpaceOnUse" x="0" y="0" width="18" height="2">
<path fill-rule="evenodd" clip-rule="evenodd" d="M0.415324 0.163941H17.8678V1.61121H0.415324V0.163941Z" fill="white"/>
</mask>
<g mask="url(#mask93_0_23057)">
<path fill-rule="evenodd" clip-rule="evenodd" d="M0.831772 1.611L17.4825 0.965502C17.7037 0.956873 17.8762 0.770595 17.8676 0.5493C17.8589 0.328004 17.6727 0.155613 17.4514 0.164252L0.800741 0.809753C0.579446 0.81832 0.407054 1.00466 0.415631 1.22589C0.424199 1.44713 0.610538 1.61951 0.831772 1.611Z" fill="#A4ADCF"/>
</g>
</g>
<g opacity="0.837845">
<mask id="mask94_0_23057" style="mask-type:luminance" maskUnits="userSpaceOnUse" x="0" y="0" width="18" height="2">
<path fill-rule="evenodd" clip-rule="evenodd" d="M0.419328 0.165004H17.8581V1.60625H0.419328V0.165004Z" fill="white"/>
</mask>
<g mask="url(#mask94_0_23057)">
<path fill-rule="evenodd" clip-rule="evenodd" d="M0.832831 1.60594L17.4754 0.960809C17.6951 0.952303 17.8663 0.767286 17.8578 0.54761C17.8492 0.327933 17.6642 0.156802 17.4446 0.165308L0.801995 0.81044C0.582318 0.819008 0.411125 1.00396 0.419631 1.22364C0.428199 1.44332 0.613155 1.61451 0.832831 1.60594Z" fill="#A3ACCE"/>
</g>
</g>
<g opacity="0.846848">
<mask id="mask95_0_23057" style="mask-type:luminance" maskUnits="userSpaceOnUse" x="0" y="0" width="18" height="2">
<path fill-rule="evenodd" clip-rule="evenodd" d="M0.424332 0.167005H17.8491V1.60224H0.424332V0.167005Z" fill="white"/>
</mask>
<g mask="url(#mask95_0_23057)">
<path fill-rule="evenodd" clip-rule="evenodd" d="M0.834769 1.60192L17.4693 0.957045C17.6874 0.948601 17.8573 0.765018 17.8489 0.546848C17.8404 0.328801 17.6568 0.15892 17.4387 0.167303L0.804178 0.812179C0.586131 0.820685 0.416189 1.00433 0.424633 1.22238C0.433077 1.44042 0.616722 1.61043 0.834769 1.60192Z" fill="#A2ABCE"/>
</g>
</g>
<g opacity="0.85585">
<mask id="mask96_0_23057" style="mask-type:luminance" maskUnits="userSpaceOnUse" x="0" y="0" width="18" height="2">
<path fill-rule="evenodd" clip-rule="evenodd" d="M0.428335 0.16907H17.8394V1.59828H0.428335V0.16907Z" fill="white"/>
</mask>
<g mask="url(#mask96_0_23057)">
<path fill-rule="evenodd" clip-rule="evenodd" d="M0.835757 1.59793L17.4622 0.953361C17.6787 0.944978 17.8474 0.762707 17.839 0.546167C17.8307 0.329688 17.6483 0.160996 17.4318 0.169368L0.805361 0.813999C0.588882 0.822381 0.420251 1.00465 0.428634 1.22113C0.437017 1.43761 0.61935 1.60637 0.835767 1.59793" fill="#A1AACD"/>
</g>
</g>
<g opacity="0.864868">
<mask id="mask97_0_23057" style="mask-type:luminance" maskUnits="userSpaceOnUse" x="0" y="0" width="18" height="2">
<path fill-rule="evenodd" clip-rule="evenodd" d="M0.433339 0.171134H17.8305V1.59409H0.433339V0.171134Z" fill="white"/>
</mask>
<g mask="url(#mask97_0_23057)">
<path fill-rule="evenodd" clip-rule="evenodd" d="M0.837827 1.59392L17.4562 0.949664C17.6711 0.941343 17.8386 0.760394 17.8302 0.545473C17.8218 0.330552 17.641 0.16311 17.426 0.171431L0.807678 0.815682C0.592757 0.824003 0.425314 1.00501 0.433636 1.21987C0.441957 1.43479 0.622968 1.60224 0.837827 1.59392Z" fill="#A0A9CD"/>
</g>
</g>
<g opacity="0.873871">
<mask id="mask98_0_23057" style="mask-type:luminance" maskUnits="userSpaceOnUse" x="0" y="0" width="18" height="2">
<path fill-rule="evenodd" clip-rule="evenodd" d="M0.437842 0.172134H17.8213V1.58907H0.437842V0.172134Z" fill="white"/>
</mask>
<g mask="url(#mask98_0_23057)">
<path fill-rule="evenodd" clip-rule="evenodd" d="M0.83933 1.58885L17.4496 0.944846C17.6629 0.936648 17.8292 0.757011 17.8208 0.543657C17.8126 0.330366 17.633 0.164112 17.4197 0.172434L0.809365 0.816377C0.596073 0.824637 0.42982 1.00427 0.438141 1.21757C0.446401 1.43086 0.626039 1.59711 0.83933 1.58885Z" fill="#9FA8CC"/>
</g>
</g>
<g opacity="0.882889">
<mask id="mask99_0_23057" style="mask-type:luminance" maskUnits="userSpaceOnUse" x="0" y="0" width="18" height="2">
<path fill-rule="evenodd" clip-rule="evenodd" d="M0.441845 0.174199H17.8113V1.58512H0.441845V0.174199Z" fill="white"/>
</mask>
<g mask="url(#mask99_0_23057)">
<path fill-rule="evenodd" clip-rule="evenodd" d="M0.840324 1.58484L17.4425 0.941216C17.6543 0.932956 17.8193 0.754692 17.811 0.542968C17.8028 0.331244 17.6245 0.166303 17.4128 0.174491L0.810615 0.818117C0.598891 0.826315 0.433949 1.00464 0.442137 1.2163C0.450336 1.4281 0.6286 1.59303 0.840324 1.58484Z" fill="#9EA8CC"/>
</g>
</g>
<g opacity="0.891891">
<mask id="mask100_0_23057" style="mask-type:luminance" maskUnits="userSpaceOnUse" x="0" y="0" width="18" height="2">
<path fill-rule="evenodd" clip-rule="evenodd" d="M0.446849 0.176263H17.8024V1.58116H0.446849V0.176263Z" fill="white"/>
</mask>
<g mask="url(#mask100_0_23057)">
<path fill-rule="evenodd" clip-rule="evenodd" d="M0.842385 1.58084L17.4365 0.937519C17.6466 0.929392 17.8103 0.75244 17.8022 0.542335C17.7941 0.332169 17.617 0.168416 17.4069 0.176553L0.81286 0.819872C0.602756 0.82807 0.439003 1.00495 0.44714 1.21512C0.455266 1.42522 0.632219 1.58897 0.842385 1.58084Z" fill="#9DA7CB"/>
</g>
</g>
<g opacity="0.900894">
<mask id="mask101_0_23057" style="mask-type:luminance" maskUnits="userSpaceOnUse" x="0" y="0" width="18" height="2">
<path fill-rule="evenodd" clip-rule="evenodd" d="M0.450852 0.177263H17.7927V1.57615H0.450852V0.177263Z" fill="white"/>
</mask>
<g mask="url(#mask101_0_23057)">
<path fill-rule="evenodd" clip-rule="evenodd" d="M0.843382 1.57577L17.4294 0.932768C17.6379 0.924703 17.8004 0.749123 17.7924 0.540525C17.7843 0.331989 17.6087 0.169486 17.4001 0.177551L0.814114 0.820552C0.605577 0.828617 0.443075 1.00426 0.45114 1.21286C0.459267 1.42133 0.634846 1.5839 0.843382 1.57577Z" fill="#9CA6CB"/>
</g>
</g>
<g opacity="0.909912">
<mask id="mask102_0_23057" style="mask-type:luminance" maskUnits="userSpaceOnUse" x="0" y="0" width="18" height="2">
<path fill-rule="evenodd" clip-rule="evenodd" d="M0.456357 0.179328H17.7843V1.57195H0.456357V0.179328Z" fill="white"/>
</mask>
<g mask="url(#mask102_0_23057)">
<path fill-rule="evenodd" clip-rule="evenodd" d="M0.845886 1.5717L17.4238 0.929009C17.6308 0.921005 17.7921 0.746676 17.7841 0.539769C17.776 0.332862 17.6017 0.171609 17.3948 0.179613L0.816864 0.822245C0.609885 0.830249 0.448581 1.00452 0.456646 1.21155C0.46465 1.41845 0.638917 1.57971 0.845886 1.5717Z" fill="#9BA5CA"/>
</g>
</g>
<g opacity="0.918915">
<mask id="mask103_0_23057" style="mask-type:luminance" maskUnits="userSpaceOnUse" x="0" y="0" width="18" height="2">
<path fill-rule="evenodd" clip-rule="evenodd" d="M0.46036 0.181392H17.7746V1.56824H0.46036V0.181392Z" fill="white"/>
</mask>
<g mask="url(#mask103_0_23057)">
<path fill-rule="evenodd" clip-rule="evenodd" d="M0.846881 1.56775L17.4168 0.925378C17.6222 0.917374 17.7822 0.74449 17.7742 0.539079C17.7662 0.33373 17.5933 0.173666 17.3879 0.18168L0.818043 0.824056C0.612693 0.831998 0.452691 1.00494 0.460644 1.21029C0.468586 1.41564 0.641531 1.57571 0.846881 1.56776" fill="#9AA4CA"/>
</g>
</g>
<g opacity="0.927933">
<mask id="mask104_0_23057" style="mask-type:luminance" maskUnits="userSpaceOnUse" x="0" y="0" width="18" height="2">
<path fill-rule="evenodd" clip-rule="evenodd" d="M0.465364 0.183456H17.7656V1.56404H0.465364V0.183456Z" fill="white"/>
</mask>
<g mask="url(#mask104_0_23057)">
<path fill-rule="evenodd" clip-rule="evenodd" d="M0.848936 1.56375L17.4107 0.921686C17.6145 0.913805 17.7733 0.742171 17.7654 0.53839C17.7575 0.334608 17.5859 0.175856 17.3821 0.183737L0.820355 0.825805C0.616573 0.833748 0.457821 1.00526 0.46564 1.20904C0.473583 1.41282 0.645155 1.57163 0.848936 1.56375Z" fill="#99A3C9"/>
</g>
</g>
<g opacity="0.936935">
<mask id="mask105_0_23057" style="mask-type:luminance" maskUnits="userSpaceOnUse" x="0" y="0" width="18" height="2">
<path fill-rule="evenodd" clip-rule="evenodd" d="M0.469367 0.185457H17.7559V1.56002H0.469367V0.185457Z" fill="white"/>
</mask>
<g mask="url(#mask105_0_23057)">
<path fill-rule="evenodd" clip-rule="evenodd" d="M0.849882 1.55962L17.4036 0.91793C17.6058 0.910049 17.7633 0.739789 17.7555 0.537637C17.7476 0.335413 17.5774 0.17786 17.3752 0.185741L0.821484 0.827491C0.619322 0.83531 0.461769 1.00557 0.46965 1.20778C0.477469 1.40995 0.64773 1.56744 0.849882 1.55962Z" fill="#98A2C9"/>
</g>
</g>
<g opacity="0.945953">
<mask id="mask106_0_23057" style="mask-type:luminance" maskUnits="userSpaceOnUse" x="0" y="0" width="18" height="2">
<path fill-rule="evenodd" clip-rule="evenodd" d="M0.474371 0.186521H17.747V1.55483H0.474371V0.186521Z" fill="white"/>
</mask>
<g mask="url(#mask106_0_23057)">
<path fill-rule="evenodd" clip-rule="evenodd" d="M0.851938 1.55461L17.3975 0.913238C17.5982 0.90548 17.7545 0.73647 17.7467 0.535947C17.7389 0.335291 17.57 0.17904 17.3694 0.186798L0.823797 0.828169C0.623202 0.835988 0.46689 1.00494 0.474647 1.20553C0.482405 1.40613 0.651343 1.56238 0.851938 1.55462" fill="#97A1C8"/>
</g>
</g>
<g opacity="0.954956">
<mask id="mask107_0_23057" style="mask-type:luminance" maskUnits="userSpaceOnUse" x="0" y="0" width="18" height="2">
<path fill-rule="evenodd" clip-rule="evenodd" d="M0.478874 0.188522H17.7375V1.55105H0.478874V0.188522Z" fill="white"/>
</mask>
<g mask="url(#mask107_0_23057)">
<path fill-rule="evenodd" clip-rule="evenodd" d="M0.853508 1.5506L17.3911 0.909478C17.59 0.90172 17.7451 0.734216 17.7374 0.53519C17.7297 0.336163 17.5621 0.181101 17.3631 0.188797L0.825542 0.829922C0.626515 0.837619 0.471452 1.00518 0.479149 1.20421C0.486906 1.40324 0.654472 1.5583 0.853508 1.5506Z" fill="#96A0C8"/>
</g>
</g>
<g opacity="0.963959">
<mask id="mask108_0_23057" style="mask-type:luminance" maskUnits="userSpaceOnUse" x="0" y="0" width="18" height="2">
<path fill-rule="evenodd" clip-rule="evenodd" d="M0.482877 0.190586H17.7278V1.54686H0.482877V0.190586Z" fill="white"/>
</mask>
<g mask="url(#mask108_0_23057)">
<path fill-rule="evenodd" clip-rule="evenodd" d="M0.854496 1.54661L17.384 0.905732C17.5814 0.898098 17.7352 0.731844 17.7276 0.534447C17.7199 0.33704 17.5537 0.183176 17.3563 0.190862L0.826795 0.83168C0.629388 0.839315 0.475524 1.00557 0.483149 1.20297C0.490845 1.40037 0.657098 1.55424 0.854506 1.54661" fill="#95A0C7"/>
</g>
</g>
<g opacity="0.972977">
<mask id="mask109_0_23057" style="mask-type:luminance" maskUnits="userSpaceOnUse" x="0" y="0" width="18" height="2">
<path fill-rule="evenodd" clip-rule="evenodd" d="M0.487881 0.192651H17.7189V1.5429H0.487881V0.192651Z" fill="white"/>
</mask>
<g mask="url(#mask109_0_23057)">
<path fill-rule="evenodd" clip-rule="evenodd" d="M0.856506 1.54254L17.3779 0.902036C17.5737 0.894462 17.7263 0.729531 17.7187 0.533753C17.7112 0.337914 17.5462 0.18529 17.3504 0.192925L0.828979 0.833364C0.633202 0.840999 0.480578 1.00587 0.488151 1.20178C0.495786 1.39756 0.660656 1.55018 0.856506 1.54255" fill="#949FC7"/>
</g>
</g>
<g opacity="0.981979">
<mask id="mask110_0_23057" style="mask-type:luminance" maskUnits="userSpaceOnUse" x="0" y="0" width="18" height="2">
<path fill-rule="evenodd" clip-rule="evenodd" d="M0.491884 0.193651H17.7092V1.53765H0.491884V0.193651Z" fill="white"/>
</mask>
<g mask="url(#mask110_0_23057)">
<path fill-rule="evenodd" clip-rule="evenodd" d="M0.857436 1.53746L17.3708 0.897342C17.565 0.889841 17.7164 0.726211 17.7089 0.531929C17.7013 0.337719 17.5377 0.186408 17.3435 0.193919L0.830167 0.834102C0.635957 0.841604 0.484583 1.00517 0.492157 1.19945C0.499658 1.39366 0.663226 1.54504 0.857447 1.53746" fill="#939EC6"/>
</g>
</g>
<g opacity="0.990997">
<mask id="mask111_0_23057" style="mask-type:luminance" maskUnits="userSpaceOnUse" x="0" y="0" width="18" height="2">
<path fill-rule="evenodd" clip-rule="evenodd" d="M0.496888 0.195715H17.7003V1.53369H0.496888V0.195715Z" fill="white"/>
</mask>
<g mask="url(#mask111_0_23057)">
<path fill-rule="evenodd" clip-rule="evenodd" d="M0.859507 1.53353L17.3647 0.893654C17.5574 0.886153 17.7075 0.723958 17.7 0.531305C17.6925 0.338653 17.5303 0.18854 17.3376 0.19598L0.832421 0.835856C0.639769 0.843357 0.489656 1.00561 0.497158 1.19827C0.504598 1.39092 0.666793 1.54097 0.859507 1.53353Z" fill="#929DC6"/>
</g>
</g>
<mask id="mask112_0_23057" style="mask-type:luminance" maskUnits="userSpaceOnUse" x="0" y="0" width="18" height="2">
<path fill-rule="evenodd" clip-rule="evenodd" d="M0.501392 0.19778H17.6911V1.52974H0.501392V0.19778Z" fill="white"/>
</mask>
<g mask="url(#mask112_0_23057)">
<path fill-rule="evenodd" clip-rule="evenodd" d="M0.861063 1.52946L17.3582 0.889901C17.5492 0.88246 17.6982 0.721577 17.6907 0.530554C17.6833 0.33947 17.5225 0.190597 17.3314 0.198047L0.834224 0.837543C0.643139 0.844922 0.494266 1.00593 0.501655 1.19695C0.509095 1.38797 0.669979 1.53685 0.861063 1.52946Z" fill="#919CC5"/>
</g>
</g>
</g>
</g>
</svg>
