<svg width="14" height="3" viewBox="0 0 14 3" fill="none" xmlns="http://www.w3.org/2000/svg">
<mask id="mask0_0_22269" style="mask-type:luminance" maskUnits="userSpaceOnUse" x="0" y="0" width="14" height="3">
<path fill-rule="evenodd" clip-rule="evenodd" d="M0 0H14V2.36683H0V0Z" fill="white"/>
</mask>
<g mask="url(#mask0_0_22269)">
<path fill-rule="evenodd" clip-rule="evenodd" d="M1.11016 2.36626L12.9517 2.04205C13.5474 2.02405 14.0167 1.55241 13.9996 0.988703V0.988641C13.9826 0.424907 13.4857 -0.017469 12.8899 0.000530352L1.04843 0.324734C0.452574 0.342764 -0.0166067 0.814381 0.000450744 1.37815C0.0175081 1.94188 0.514374 2.38429 1.11016 2.36626Z" fill="#3A996B"/>
<path fill-rule="evenodd" clip-rule="evenodd" d="M1.16537 1.77599L12.721 1.46047C13.0969 1.44907 13.3929 1.15152 13.3821 0.795819C13.3714 0.440122 13.0579 0.160999 12.682 0.172374L1.12643 0.487925C0.750483 0.4993 0.454467 0.796883 0.465217 1.15258C0.475968 1.50825 0.789421 1.78737 1.16537 1.77599Z" fill="#44AD7C"/>
<path fill-rule="evenodd" clip-rule="evenodd" d="M1.22057 1.3667L12.4902 0.993444C12.6462 0.987666 12.7692 0.837488 12.7647 0.657922C12.7602 0.478355 12.6301 0.337454 12.4741 0.343182L1.20439 0.716474C1.04835 0.722177 0.925492 0.872393 0.929987 1.052C0.93442 1.23153 1.06453 1.37243 1.22057 1.3667Z" fill="#4DC18D"/>
</g>
</svg>
