<svg width="61" height="61" viewBox="0 0 61 61" fill="none" xmlns="http://www.w3.org/2000/svg">
<mask id="mask0_0_37463" style="mask-type:luminance" maskUnits="userSpaceOnUse" x="0" y="0" width="61" height="61">
<path fill-rule="evenodd" clip-rule="evenodd" d="M0 0H60.9998V60.9998H0V0Z" fill="white"/>
</mask>
<g mask="url(#mask0_0_37463)">
<path fill-rule="evenodd" clip-rule="evenodd" d="M30.5013 49.4261C28.0346 49.4261 25.63 48.9581 23.3541 48.0353C20.9974 47.0798 18.8833 45.6757 17.0705 43.8629C15.2574 42.0498 13.8536 39.9357 12.8981 37.5791C11.975 35.3034 11.5073 32.8986 11.5073 30.4321C11.5073 27.9655 11.975 25.5607 12.8981 23.2849C13.8536 20.9283 15.2574 18.8142 17.0705 17.0011C20.3517 13.72 24.707 11.7568 29.3342 11.4736C33.9206 11.1927 38.4424 12.5739 42.0664 15.3621C42.3322 15.5668 42.382 15.948 42.1774 16.2138C41.9727 16.4796 41.5915 16.5292 41.3257 16.3248C37.9343 13.7156 33.7017 12.4231 29.4083 12.6859C25.0774 12.951 21.0009 14.7885 17.9292 17.8601C14.5711 21.218 12.7218 25.6829 12.7218 30.4321C12.7218 35.1811 14.5711 39.646 17.9292 43.0039C21.2874 46.3621 25.7523 48.2116 30.5013 48.2116C35.2502 48.2116 39.7151 46.3621 43.0733 43.0039C44.8878 41.1896 46.2601 39.0611 47.1526 36.6778C48.0147 34.3745 48.3859 31.9562 48.256 29.4898C48.2382 29.155 48.4954 28.8692 48.8304 28.8513C49.1656 28.8337 49.451 29.091 49.4688 29.426C49.6077 32.0599 49.2111 34.6432 48.2898 37.1035C47.3364 39.6506 45.8701 41.9249 43.932 43.8629C42.1192 45.6757 40.0051 47.0797 37.6485 48.0353C35.3725 48.9581 32.968 49.4261 30.5013 49.4261" fill="#232323"/>
<path fill-rule="evenodd" clip-rule="evenodd" d="M48.0598 25.5731C47.8008 25.5731 47.5607 25.4061 47.48 25.1456C46.9587 23.4663 46.1924 21.8789 45.2024 20.4275C44.9234 20.0186 44.6229 19.6157 44.3094 19.2303C44.0979 18.9701 44.1373 18.5877 44.3974 18.376C44.6578 18.1645 45.0403 18.2038 45.2518 18.464C45.5868 18.8758 45.9076 19.3061 46.2056 19.7431C47.2639 21.2943 48.083 22.9907 48.64 24.7857C48.7393 25.106 48.5603 25.4462 48.24 25.5457C48.1801 25.5642 48.1195 25.5731 48.0598 25.5731" fill="#232323"/>
<path fill-rule="evenodd" clip-rule="evenodd" d="M33.8637 60.9998H27.1361C25.704 60.9998 24.5389 59.8347 24.5389 58.4026V53.9182C22.2861 53.3472 20.1422 52.4604 18.1533 51.2764L14.9847 54.4451C13.9721 55.4579 12.3243 55.4579 11.3118 54.4451L6.55474 49.688C6.06399 49.1975 5.79405 48.5454 5.79405 47.8517C5.79405 47.1578 6.064 46.5057 6.55474 46.0152L9.72342 42.8465C8.53948 40.8576 7.65237 38.7137 7.08167 36.4607H2.59701C1.16513 36.4607 0 35.2958 0 33.8637V27.1361C0 25.704 1.16512 24.5389 2.59701 24.5389H7.08167C7.65236 22.2861 8.53946 20.1422 9.72342 18.1533L6.55474 14.9847C5.54196 13.9721 5.54196 12.3243 6.55474 11.3118L11.3118 6.55474C12.3243 5.54196 13.9721 5.54196 14.9847 6.55474L18.1533 9.72342C20.1422 8.53948 22.2862 7.65261 24.5389 7.08167V2.59701C24.5389 1.16513 25.704 0 27.1361 0H33.8637C35.2958 0 36.4607 1.16512 36.4607 2.59701V7.08167C38.7137 7.65261 40.8576 8.53946 42.8465 9.72342L46.0152 6.55474C46.5057 6.06399 47.1578 5.79405 47.8517 5.79405C48.5454 5.79405 49.1975 6.064 49.688 6.55474L54.4451 11.3118C55.4576 12.3243 55.4576 13.9721 54.4451 14.9847L51.2764 18.1533C52.4604 20.1422 53.3472 22.2862 53.9182 24.5389H58.4026C59.8347 24.5389 60.9998 25.704 60.9998 27.1361V33.8637C60.9998 35.2958 59.8347 36.4607 58.4026 36.4607H53.9182C53.3472 38.7137 52.4604 40.8576 51.2764 42.8465L54.4451 46.0152C55.4579 47.0277 55.4579 48.6755 54.4451 49.688L49.688 54.4451C49.1975 54.9356 48.5454 55.2058 47.8517 55.2058C47.1578 55.2058 46.5057 54.9358 46.0152 54.4451L42.8465 51.2764C40.8576 52.4604 38.7137 53.3472 36.4607 53.9182V58.4026C36.4607 59.8347 35.2958 60.9998 33.8637 60.9998ZM18.0616 49.9022C18.1722 49.9022 18.2834 49.9323 18.3825 49.9939C20.5093 51.3187 22.8312 52.2792 25.2837 52.8491C25.5587 52.9132 25.7536 53.1582 25.7536 53.4406V58.4026C25.7536 59.165 26.3737 59.7853 27.1361 59.7853H33.8637C34.6261 59.7853 35.2462 59.165 35.2462 58.4026V53.4406C35.2462 53.1582 35.4411 52.9132 35.7162 52.8491C38.1687 52.2792 40.4906 51.3187 42.6171 49.9939C42.857 49.8448 43.168 49.8802 43.3678 50.08L46.8739 53.5864C47.135 53.8475 47.4823 53.9913 47.8517 53.9913C48.2209 53.9913 48.5682 53.8475 48.8293 53.5864L53.5863 48.8293C53.8475 48.5682 53.9913 48.2209 53.9913 47.8517C53.9913 47.4823 53.8475 47.1351 53.5863 46.8739L50.08 43.3678C49.8805 43.168 49.8448 42.857 49.9939 42.6174C51.3187 40.4906 52.2792 38.1687 52.8491 35.7162C52.9132 35.4411 53.1582 35.2462 53.4406 35.2462H58.4026C59.165 35.2462 59.7853 34.6261 59.7853 33.8637V27.1361C59.7853 26.3737 59.165 25.7536 58.4026 25.7536H53.4406C53.1582 25.7536 52.9132 25.5587 52.8491 25.2837C52.2792 22.8312 51.3187 20.5093 49.9939 18.3825C49.8448 18.1428 49.8805 17.8318 50.08 17.632L53.5863 14.1259C54.1253 13.5868 54.1253 12.7097 53.5863 12.1705L48.8293 7.41347C48.5682 7.15232 48.2209 7.00855 47.8517 7.00855C47.4823 7.00855 47.135 7.15232 46.8739 7.41347L43.3678 10.9196C43.168 11.1193 42.857 11.155 42.6171 11.0056C40.4906 9.68111 38.1687 8.7204 35.7162 8.15068C35.4411 8.08662 35.2462 7.84161 35.2462 7.55919V2.597C35.2462 1.83484 34.6261 1.21451 33.8637 1.21451H27.1361C26.3737 1.21451 25.7536 1.83485 25.7536 2.597V7.55919C25.7536 7.84161 25.5587 8.08662 25.2837 8.15068C22.8312 8.7204 20.5093 9.68111 18.3825 11.0056C18.1428 11.155 17.8318 11.1193 17.632 10.9196L14.1259 7.41347C13.5868 6.87431 12.7097 6.87431 12.1705 7.41347L7.41347 12.1705C6.87431 12.7097 6.87431 13.5868 7.41347 14.1259L10.9196 17.632C11.1193 17.8318 11.155 18.1428 11.0056 18.3825C9.68111 20.5093 8.7204 22.8312 8.15068 25.2837C8.08662 25.5587 7.84161 25.7536 7.55895 25.7536H2.597C1.83484 25.7536 1.21451 26.3737 1.21451 27.1361V33.8637C1.21451 34.6261 1.83485 35.2462 2.597 35.2462H7.55895C7.84161 35.2462 8.08662 35.4411 8.15068 35.7162C8.7204 38.1687 9.68111 40.4906 11.0056 42.6174C11.155 42.857 11.1193 43.168 10.9196 43.3678L7.41347 46.8739C7.15232 47.1351 7.00855 47.4823 7.00855 47.8517C7.00855 48.2209 7.15232 48.5682 7.41347 48.8293L12.1705 53.5864C12.7097 54.1255 13.5868 54.1255 14.1259 53.5864L17.632 50.08C17.7492 49.9629 17.9047 49.9022 18.0616 49.9022Z" fill="#232323"/>
<path fill-rule="evenodd" clip-rule="evenodd" d="M30.5006 45.7148C28.7608 45.7148 27.0546 45.4234 25.4288 44.8487C23.5522 44.1854 21.8457 43.1728 20.3568 41.8395C18.2403 39.9457 16.7003 37.5125 15.9035 34.8026C15.4937 33.4115 15.2858 31.9637 15.2858 30.5001C15.2858 26.4362 16.8686 22.6154 19.7421 19.7419C22.6159 16.8681 26.4365 15.2856 30.5006 15.2856C34.2507 15.2856 37.8532 16.6617 40.6443 19.1607C42.2236 20.5742 43.4692 22.2645 44.3465 24.185C45.2546 26.1729 45.7153 28.2977 45.7153 30.5001C45.7153 32.7027 45.2546 34.8275 44.3465 36.8154C43.4692 38.7359 42.2236 40.4262 40.6441 41.8398C39.1554 43.1729 37.4487 44.1854 35.5723 44.8488C33.9465 45.4234 32.2403 45.7148 30.5006 45.7148M30.5006 16.5001C26.7609 16.5001 23.2453 17.9564 20.6011 20.6006C17.9567 23.2448 16.5006 26.7604 16.5006 30.5001C16.5006 31.8476 16.6915 33.1797 17.0686 34.4598C17.8016 36.9526 19.2188 39.1916 21.1669 40.9345C22.5372 42.1618 24.1072 43.0934 25.8337 43.7034C27.3289 44.2321 28.8992 44.5003 30.5005 44.5003C32.1019 44.5003 33.6722 44.2321 35.1674 43.7034C36.8939 43.0934 38.4639 42.1618 39.834 40.9348C41.2881 39.6335 42.4346 38.0779 43.2418 36.3107C44.077 34.4823 44.5005 32.5273 44.5005 30.5001C44.5005 28.473 44.077 26.5181 43.2418 24.6896C42.4346 22.9225 41.2881 21.3667 39.8342 20.0659C37.266 17.7664 33.9511 16.5001 30.5005 16.5001" fill="#232323"/>
<path fill-rule="evenodd" clip-rule="evenodd" d="M20.7612 34.6314V41.3871C18.7637 39.5999 17.2617 37.2714 16.4853 34.6314H20.7612Z" fill="#4DC18D"/>
<path fill-rule="evenodd" clip-rule="evenodd" d="M20.7618 41.9935C20.6151 41.9935 20.4704 41.9405 20.3566 41.839C18.2399 39.945 16.6999 37.5116 15.903 34.8018C15.8492 34.6182 15.8849 34.4199 15.9996 34.2666C16.1143 34.1135 16.2945 34.0233 16.4857 34.0233H20.7616C21.097 34.0233 21.3689 34.2952 21.3689 34.6304V41.3864C21.3689 41.6258 21.2281 41.8429 21.0095 41.9407C20.93 41.9762 20.8454 41.9935 20.7618 41.9935ZM17.3224 35.2378C17.946 36.9734 18.9084 38.5671 20.1544 39.9318V35.2378H17.3224Z" fill="#232323"/>
<path fill-rule="evenodd" clip-rule="evenodd" d="M45.1076 30.4998C45.1076 34.8258 43.2273 38.7126 40.2388 41.3867V19.613C43.2273 22.287 45.1076 26.1739 45.1076 30.4999" fill="#4DC18D"/>
<path fill-rule="evenodd" clip-rule="evenodd" d="M40.2391 41.9945C40.1552 41.9945 40.0708 41.9774 39.9914 41.9417C39.7725 41.8439 39.6319 41.6268 39.6319 41.3874V19.6135C39.6319 19.3739 39.7725 19.1567 39.9914 19.0589C40.2097 18.9614 40.4657 19.0012 40.6442 19.1609C42.2235 20.5742 43.4691 22.2648 44.3464 24.1852C45.2546 26.1731 45.7152 28.2977 45.7152 30.5003C45.7152 32.7029 45.2546 34.8278 44.3464 36.8157C43.4691 38.7361 42.2235 40.4264 40.6442 41.8397C40.5305 41.9415 40.3858 41.9945 40.2391 41.9945ZM40.8464 21.0669V39.9337C41.8292 38.8591 42.6321 37.6453 43.2417 36.311C44.077 34.4825 44.5005 32.5276 44.5005 30.5003C44.5005 28.4733 44.077 26.5181 43.2417 24.6899C42.6321 23.3553 41.8291 22.1416 40.8464 21.0669Z" fill="#232323"/>
<path fill-rule="evenodd" clip-rule="evenodd" d="M40.2386 25.8674V41.3873C38.8336 42.6456 37.1838 43.6349 35.3693 44.2763V25.8674L40.2386 25.8674Z" fill="#4DC18D"/>
<path fill-rule="evenodd" clip-rule="evenodd" d="M35.3698 44.8827C35.2456 44.8827 35.1228 44.8448 35.0192 44.7714C34.858 44.6575 34.7624 44.4726 34.7624 44.2756V25.8665C34.7624 25.5312 35.0343 25.2593 35.3695 25.2593H40.2391C40.5743 25.2593 40.8462 25.5312 40.8462 25.8665V41.3866C40.8462 41.5592 40.7726 41.7238 40.644 41.839C39.1552 43.1723 37.4487 44.1846 35.572 44.848C35.5062 44.8715 35.4378 44.8827 35.3698 44.8827M35.9769 26.4738V43.3882C37.3049 42.8244 38.5304 42.0612 39.6317 41.1118V26.4738H35.9769Z" fill="#232323"/>
<path fill-rule="evenodd" clip-rule="evenodd" d="M35.3695 34.6314V44.276C33.8469 44.8145 32.2077 45.1076 30.5002 45.1076V34.6314L35.3695 34.6314Z" fill="#4DC18D"/>
<path fill-rule="evenodd" clip-rule="evenodd" d="M30.5005 45.7141C30.1653 45.7141 29.8934 45.4422 29.8934 45.1067V34.6304C29.8934 34.2952 30.1653 34.0233 30.5005 34.0233H35.37C35.7053 34.0233 35.9772 34.2952 35.9772 34.6304V44.2753C35.9772 44.5326 35.8151 44.7622 35.5723 44.8478C33.9467 45.4226 32.2402 45.7141 30.5005 45.7141ZM31.1079 35.2378V44.4866C32.3557 44.4333 33.5809 44.2164 34.7627 43.8389V35.2378L31.1079 35.2378Z" fill="#232323"/>
<path fill-rule="evenodd" clip-rule="evenodd" d="M30.5 32.1607V45.1073C28.7926 45.1073 27.1533 44.8144 25.6307 44.2759V32.1607H30.5Z" fill="#4DC18D"/>
<path fill-rule="evenodd" clip-rule="evenodd" d="M30.4996 45.7149C28.7598 45.7149 27.0534 45.4237 25.4278 44.8489C25.185 44.763 25.0229 44.5337 25.0229 44.2765V32.1609C25.0229 31.8257 25.2948 31.5538 25.63 31.5538H30.4996C30.8348 31.5538 31.1067 31.8257 31.1067 32.1609V45.1078C31.1067 45.4433 30.8348 45.7149 30.4996 45.7149M26.2374 43.84C27.4191 44.2173 28.6444 44.4344 29.8922 44.4877V32.7683H26.2374V43.84Z" fill="#232323"/>
<path fill-rule="evenodd" clip-rule="evenodd" d="M25.631 29.4296V44.2761C23.8164 43.6345 22.1667 42.6452 20.7617 41.3869V29.4296L25.631 29.4296Z" fill="#4DC18D"/>
<path fill-rule="evenodd" clip-rule="evenodd" d="M25.6303 44.8837C25.5623 44.8837 25.4938 44.8722 25.4281 44.849C23.5514 44.1854 21.8449 43.1731 20.3558 41.8398C20.2272 41.7246 20.1539 41.56 20.1539 41.3874V29.4298C20.1539 29.0946 20.4258 28.8227 20.761 28.8227H25.6303C25.9658 28.8227 26.2377 29.0946 26.2377 29.4298V44.2764C26.2377 44.4734 26.142 44.6583 25.9809 44.7722C25.877 44.8456 25.7543 44.8837 25.6303 44.8837ZM21.3684 41.1126C22.4697 42.062 23.6952 42.8252 25.0232 43.3892V30.0372H21.3684V41.1126Z" fill="#232323"/>
</g>
</svg>
