<svg width="45" height="60" viewBox="0 0 45 60" fill="none" xmlns="http://www.w3.org/2000/svg">
<path fill-rule="evenodd" clip-rule="evenodd" d="M8.61674 7.66006H45.0002V59.3631H8.61674V7.66006Z" fill="white"/>
<path fill-rule="evenodd" clip-rule="evenodd" d="M4.78609 3.82942H41.1701V55.533H4.78609V3.82942Z" fill="#4DC18D"/>
<path fill-rule="evenodd" clip-rule="evenodd" d="M0 0V51.7036H37.3411V9.57483L27.7668 0L0 0Z" fill="white"/>
<mask id="mask0_0_37237" style="mask-type:luminance" maskUnits="userSpaceOnUse" x="-1" y="-1" width="47" height="62">
<path fill-rule="evenodd" clip-rule="evenodd" d="M-0.957907 -0.957661H45.9574V60.3202H-0.957907V-0.957661Z" fill="white"/>
</mask>
<g mask="url(#mask0_0_37237)">
<path fill-rule="evenodd" clip-rule="evenodd" d="M27.7655 9.57463V0.0780577C27.7655 0.00888191 27.8478 -0.0262694 27.896 0.0230571L37.1827 9.44196C37.2309 9.49072 37.1964 9.57463 37.1289 9.57463H27.7655Z" fill="#F7D450"/>
<path fill-rule="evenodd" clip-rule="evenodd" d="M8.13779 21.0644H26.3298V22.9791H8.13779V21.0644Z" fill="black"/>
<path fill-rule="evenodd" clip-rule="evenodd" d="M8.13729 13.4043H30.1593V15.3196H8.13729V13.4043Z" fill="black"/>
<path fill-rule="evenodd" clip-rule="evenodd" d="M28.4083 36.3842C28.4083 41.672 24.1219 45.959 18.8335 45.959C13.5457 45.959 9.25927 41.672 9.25927 36.3842C9.25927 31.0958 13.5457 26.8094 18.8335 26.8094C24.1219 26.8094 28.4083 31.0958 28.4083 36.3842Z" fill="#4DC18D"/>
<path fill-rule="evenodd" clip-rule="evenodd" d="M29.2023 31.5963L19.9904 40.8082C19.6167 41.1824 19.0106 41.1824 18.6364 40.8082L13.2545 35.4258L15.9624 32.7184L19.3134 36.0693L26.4943 28.8878L29.2023 31.5963Z" fill="white"/>
<path fill-rule="evenodd" clip-rule="evenodd" d="M19.313 42.0463C18.8226 42.0463 18.3321 41.8598 17.959 41.4861L11.9001 35.4261L15.9621 31.3641L19.313 34.7151L26.494 27.5347L27.848 28.8881L19.313 37.423L15.9621 34.0721L14.6081 35.4261L19.313 40.1321L29.202 30.2426L30.5554 31.5966L20.6664 41.4861C20.2939 41.8598 19.8035 42.0463 19.313 42.0463" fill="black"/>
<path fill-rule="evenodd" clip-rule="evenodd" d="M16.1279 6.30896C15.4243 6.30896 14.7212 6.21087 14.1605 6.01469L12.7917 5.53502C12.0926 5.29007 10.8209 5.29007 10.1212 5.53502L8.75304 6.01469C7.63095 6.40761 5.93904 6.40761 4.81696 6.01469L3.91317 5.69831L4.54537 3.89073L5.44915 4.20711C6.14939 4.45262 7.4223 4.45092 8.1197 4.20711L9.48842 3.728C10.6105 3.33508 12.303 3.33508 13.4245 3.728L14.7926 4.20711C15.4917 4.45262 16.7652 4.45262 17.4632 4.20711L19.7351 3.41162L20.3685 5.21863L18.096 6.01469C17.5352 6.21087 16.8316 6.30896 16.1279 6.30896" fill="black"/>
<path fill-rule="evenodd" clip-rule="evenodd" d="M6.78499 10.1389C6.08136 10.1389 5.37828 10.0402 4.81753 9.84403L3.91317 9.52821L4.54537 7.72064L5.44915 8.03702C6.14996 8.28196 7.42286 8.28082 8.12026 8.03702L9.48898 7.55734C10.6105 7.16442 12.303 7.16442 13.4251 7.55734L14.3288 7.87486L13.6955 9.6813L12.7917 9.36492C12.0926 9.11998 10.8209 9.11998 10.1218 9.36492L8.75304 9.84403C8.19227 10.0402 7.48863 10.1389 6.78499 10.1389Z" fill="black"/>
</g>
</svg>
