<svg width="32" height="48" viewBox="0 0 32 48" fill="none" xmlns="http://www.w3.org/2000/svg">
<mask id="mask0_0_37191" style="mask-type:luminance" maskUnits="userSpaceOnUse" x="0" y="0" width="32" height="62">
<path fill-rule="evenodd" clip-rule="evenodd" d="M0 0H31.8965V61.2849H0V0Z" fill="white"/>
</mask>
<g mask="url(#mask0_0_37191)">
<path fill-rule="evenodd" clip-rule="evenodd" d="M20.3045 10.1714H11.592C11.3074 10.1714 11.0767 9.94067 11.0767 9.65606C11.0767 9.37145 11.3074 9.14073 11.592 9.14073H20.3045C20.5891 9.14073 20.8199 9.37145 20.8199 9.65606C20.8199 9.94067 20.5891 10.1714 20.3045 10.1714Z" fill="#232323"/>
<path fill-rule="evenodd" clip-rule="evenodd" d="M24.9963 15.6363H6.89988C6.61527 15.6363 6.38454 15.4055 6.38454 15.1209C6.38454 14.8363 6.61527 14.6056 6.89988 14.6056H24.9963C25.2809 14.6056 25.5116 14.8363 25.5116 15.1209C25.5116 15.4056 25.2809 15.6363 24.9963 15.6363Z" fill="#232323"/>
<path fill-rule="evenodd" clip-rule="evenodd" d="M24.9963 20.5027H13.6558C13.3711 20.5027 13.1404 20.272 13.1404 19.9874C13.1404 19.7027 13.3711 19.472 13.6558 19.472H24.9963C25.2809 19.472 25.5116 19.7027 25.5116 19.9874C25.5116 20.272 25.2809 20.5027 24.9963 20.5027Z" fill="#232323"/>
<path fill-rule="evenodd" clip-rule="evenodd" d="M10.9383 20.5027H6.89988C6.61527 20.5027 6.38454 20.272 6.38454 19.9874C6.38454 19.7027 6.61527 19.472 6.89988 19.472H10.9383C11.2229 19.472 11.4537 19.7027 11.4537 19.9874C11.4537 20.272 11.2229 20.5027 10.9383 20.5027Z" fill="#232323"/>
<path fill-rule="evenodd" clip-rule="evenodd" d="M24.9963 25.3691H6.89988C6.61527 25.3691 6.38454 25.1384 6.38454 24.8538C6.38454 24.5691 6.61527 24.3384 6.89988 24.3384H24.9963C25.2809 24.3384 25.5116 24.5691 25.5116 24.8538C25.5116 25.1384 25.2809 25.3691 24.9963 25.3691Z" fill="#232323"/>
<path fill-rule="evenodd" clip-rule="evenodd" d="M31.3812 41.1379C31.0965 41.1379 30.8658 40.9072 30.8658 40.6225V4.08253H1.03067V40.6225C1.03067 40.9072 0.799944 41.1379 0.515336 41.1379C0.230728 41.1379 0 40.9072 0 40.6225V3.56719C0 3.28253 0.230728 3.05185 0.515336 3.05185H31.3812C31.6658 3.05185 31.8965 3.28253 31.8965 3.56719V40.6225C31.8965 40.9072 31.6658 41.1379 31.3812 41.1379Z" fill="#232323"/>
<path fill-rule="evenodd" clip-rule="evenodd" d="M28.882 3.89516C28.5974 3.89516 28.3667 3.66443 28.3667 3.37982V1.03067H3.52852V3.37982C3.52852 3.66443 3.29778 3.89516 3.01318 3.89516C2.72858 3.89516 2.49785 3.66443 2.49785 3.37982V0.515336C2.49785 0.230728 2.72858 0 3.01318 0H28.882C29.1667 0 29.3974 0.230728 29.3974 0.515336V3.37982C29.3974 3.66443 29.1667 3.89516 28.882 3.89516" fill="#232323"/>
<path fill-rule="evenodd" clip-rule="evenodd" d="M15.0906 48C14.9588 48 14.8269 47.9497 14.7263 47.8491L12.5502 45.673C12.3489 45.4718 12.3489 45.1455 12.5502 44.9442C12.7515 44.743 13.0778 44.743 13.279 44.9442L15.0906 46.7558L18.8975 42.9491C19.0988 42.7478 19.425 42.7478 19.6263 42.9491C19.8275 43.1503 19.8275 43.4766 19.6263 43.6778L15.455 47.8491C15.3544 47.9497 15.2225 48 15.0907 48" fill="#232323"/>
</g>
</svg>
