<svg width="27" height="27" viewBox="0 0 27 27" fill="none" xmlns="http://www.w3.org/2000/svg">
<path fill-rule="evenodd" clip-rule="evenodd" d="M8.1 24.3H13.5C13.5 25.785 12.285 27 10.8 27C9.31501 27 8.10001 25.785 8.10001 24.3H8.1ZM13.5 9.45C13.5 12.9735 15.7545 15.9705 18.9 17.091V20.25H21.6V22.95H0V20.25H2.7V10.8C2.7 7.03349 5.27849 3.861 8.77499 2.97V2.025C8.77499 0.904503 9.6795 0 10.8 0C11.9205 0 12.825 0.904503 12.825 2.025V2.97C13.7835 3.213 14.661 3.6315 15.4575 4.185C14.229 5.589 13.5 7.4385 13.5 9.44999V9.45ZM27 8.09999H22.95V4.05H20.25V8.09999H16.2V10.8H20.25V14.85H22.95V10.8H27V8.09999Z" fill="#FF728D"/>
</svg>
