<svg width="6" height="41" viewBox="0 0 6 41" fill="none" xmlns="http://www.w3.org/2000/svg">
<path fill-rule="evenodd" clip-rule="evenodd" d="M0.589867 0.687082C0.334069 0.642152 0.0969137 0.824348 0 1.05787L0.994462 23.1644C1.18398 25.2473 2.21005 41.128 5.46983 40.9992L3.89985 1.26843L0.589867 0.687082Z" fill="#FBFBFC"/>
<path fill-rule="evenodd" clip-rule="evenodd" d="M0.0821785 0.978863L1.06511 23.1566C1.24124 25.2395 2.26731 41.1202 5.52709 40.9914C5.52709 40.9914 3.95759 1.27257 3.94824 1.25172L0.803592 0.626291C0.797781 0.624127 0.666806 0.601186 0.661006 0.600525C0.402392 0.5703 0.165698 0.742399 0.0821785 0.978853" fill="#FAFAFC"/>
<path fill-rule="evenodd" clip-rule="evenodd" d="M0.165335 0.90087L1.13678 23.1498C1.29952 25.2327 2.32556 41.1134 5.58533 40.9846C5.58533 40.9846 4.0163 1.27772 3.99758 1.23604L0.875408 0.541425C0.863787 0.537098 0.744744 0.51624 0.733123 0.514968C0.473658 0.486357 0.235461 0.661441 0.165335 0.90086" fill="#F9FAFD"/>
<path fill-rule="evenodd" clip-rule="evenodd" d="M0.247514 0.822971L1.20745 23.1431C1.35677 25.226 2.38284 41.1067 5.64259 40.9779C5.64259 40.9779 4.07405 1.28299 4.04598 1.22045L0.946246 0.456654C0.928785 0.450163 0.821693 0.431309 0.804272 0.429496C0.543915 0.402507 0.304266 0.580596 0.247514 0.822961" fill="#F8F9FD"/>
<path fill-rule="evenodd" clip-rule="evenodd" d="M0.329692 0.745018L1.27811 23.1363C1.41404 25.2192 2.44011 41.0999 5.69986 40.9711C5.69986 40.9711 4.1318 1.28817 4.09438 1.20482L1.01708 0.371839C0.993823 0.363153 0.898682 0.346253 0.875411 0.343999C0.614112 0.318564 0.37305 0.499688 0.329692 0.745018" fill="#F8F8FE"/>
<path fill-rule="evenodd" clip-rule="evenodd" d="M0.412849 0.667101L1.34977 23.1296C1.47227 25.2125 2.49834 41.0932 5.75812 40.9644C5.75812 40.9644 4.19049 1.29342 4.14375 1.18922L1.08892 0.28702C1.05982 0.276221 0.97663 0.261154 0.947528 0.258519C0.685248 0.234676 0.442813 0.418826 0.412849 0.667091" fill="#F7F7FE"/>
<path fill-rule="evenodd" clip-rule="evenodd" d="M0.495038 0.588218L1.42047 23.1219C1.52961 25.2048 2.55568 41.0855 5.81542 40.9567C5.81542 40.9567 4.24829 1.29768 4.19215 1.17265L1.15977 0.201265C1.12486 0.188301 1.05365 0.175028 1.01868 0.172082C0.755415 0.149842 0.511608 0.336978 0.495028 0.588208" fill="#F6F7FE"/>
<path fill-rule="evenodd" clip-rule="evenodd" d="M0.577206 0.51039L1.49116 23.1153C1.58686 25.1981 2.6129 41.0789 5.87268 40.9501C5.87268 40.9501 4.30603 1.30302 4.24054 1.15714L1.2306 0.116574C1.18984 0.101447 1.13063 0.0898861 1.08982 0.0867104C0.825552 0.0660534 0.580392 0.256214 0.577206 0.51039Z" fill="#F5F6FF"/>
<path fill-rule="evenodd" clip-rule="evenodd" d="M1.30269 0.0318555C0.991462 -0.0837417 0.648687 0.130222 0.660669 0.432564L1.56311 23.1086C1.6454 25.1915 2.67147 41.0722 5.93123 40.9434L4.36507 1.30831C4.36262 1.24649 4.33615 1.18753 4.29022 1.14161L1.30269 0.0318555Z" fill="#F4F5FF"/>
</svg>
