<svg width="19" height="2" viewBox="0 0 19 2" fill="none" xmlns="http://www.w3.org/2000/svg">
<g style="mix-blend-mode:multiply">
<mask id="mask0_0_24477" style="mask-type:luminance" maskUnits="userSpaceOnUse" x="-1" y="-1" width="20" height="4">
<path fill-rule="evenodd" clip-rule="evenodd" d="M-0.00400363 -0.00206437H18.7242V2.00419H-0.00400363V-0.00206437Z" fill="white"/>
</mask>
<g mask="url(#mask0_0_24477)">
<mask id="mask1_0_24477" style="mask-type:luminance" maskUnits="userSpaceOnUse" x="-1" y="-1" width="20" height="4">
<path fill-rule="evenodd" clip-rule="evenodd" d="M-0.00400363 -0.00206437H18.7242V2.00419H-0.00400363V-0.00206437Z" fill="white"/>
</mask>
<g mask="url(#mask1_0_24477)">
<g opacity="0.01">
<mask id="mask2_0_24477" style="mask-type:luminance" maskUnits="userSpaceOnUse" x="0" y="0" width="19" height="2">
<path fill-rule="evenodd" clip-rule="evenodd" d="M0 0H18.7142V1.99999H0V0Z" fill="white"/>
</mask>
<g mask="url(#mask2_0_24477)">
<path fill-rule="evenodd" clip-rule="evenodd" d="M0.688696 1.9997L18.0769 1.32559C18.4429 1.31146 18.728 1.0033 18.7138 0.637341C18.6996 0.271513 18.3914 -0.0137448 18.0255 0.000511952L0.637337 0.674618C0.271376 0.688885 -0.0136873 0.996907 0.000507963 1.36287C0.0146417 1.7287 0.322797 2.01383 0.688696 1.9997Z" fill="#FEFEFE"/>
</g>
</g>
<g opacity="0.0180206">
<mask id="mask3_0_24477" style="mask-type:luminance" maskUnits="userSpaceOnUse" x="0" y="0" width="19" height="2">
<path fill-rule="evenodd" clip-rule="evenodd" d="M0.00500454 0.00206437H18.7055V1.99628H0.00500454V0.00206437Z" fill="white"/>
</mask>
<g mask="url(#mask3_0_24477)">
<path fill-rule="evenodd" clip-rule="evenodd" d="M0.690758 1.99575L18.0709 1.32189C18.4352 1.30776 18.7191 1.00097 18.705 0.636643C18.6908 0.272312 18.3841 -0.0115733 18.0197 0.00257076L0.639583 0.676431C0.275313 0.690442 -0.0086332 0.997346 0.00551082 1.36168C0.0196446 1.72589 0.326426 2.00989 0.690758 1.99575Z" fill="#FDFDFE"/>
</g>
</g>
<g opacity="0.0270233">
<mask id="mask4_0_24477" style="mask-type:luminance" maskUnits="userSpaceOnUse" x="0" y="0" width="19" height="2">
<path fill-rule="evenodd" clip-rule="evenodd" d="M0.00950862 0.00306528H18.6961V1.99126H0.00950862V0.00306528Z" fill="white"/>
</mask>
<g mask="url(#mask4_0_24477)">
<path fill-rule="evenodd" clip-rule="evenodd" d="M0.692256 1.99061L18.0643 1.31713C18.4271 1.30312 18.7097 0.997715 18.6957 0.63489C18.6816 0.272188 18.3762 -0.0104463 18.0134 0.00356447L0.641337 0.677045C0.278636 0.691179 -0.00406026 0.996587 0.010012 1.35929C0.0240843 1.72211 0.329554 2.00475 0.692256 1.99061Z" fill="#FCFCFD"/>
</g>
</g>
<g opacity="0.0360413">
<mask id="mask5_0_24477" style="mask-type:luminance" maskUnits="userSpaceOnUse" x="0" y="0" width="19" height="2">
<path fill-rule="evenodd" clip-rule="evenodd" d="M0.0145132 0.00512965H18.6874V1.98706H0.0145132V0.00512965Z" fill="white"/>
</mask>
<g mask="url(#mask5_0_24477)">
<path fill-rule="evenodd" clip-rule="evenodd" d="M0.694317 1.98667L18.0582 1.31344C18.4194 1.29955 18.7008 0.995282 18.6868 0.634199C18.6728 0.272994 18.3687 -0.00837979 18.0075 0.00563098L0.643583 0.678743C0.282439 0.692754 0.00100361 0.996901 0.0150144 1.35811C0.0290252 1.71918 0.333111 2.00069 0.694317 1.98667Z" fill="#FBFBFD"/>
</g>
</g>
<g opacity="0.0450439">
<mask id="mask6_0_24477" style="mask-type:luminance" maskUnits="userSpaceOnUse" x="0" y="0" width="19" height="2">
<path fill-rule="evenodd" clip-rule="evenodd" d="M0.0185168 0.00713146H18.6774V1.98305H0.0185168V0.00713146Z" fill="white"/>
</mask>
<g mask="url(#mask6_0_24477)">
<path fill-rule="evenodd" clip-rule="evenodd" d="M0.695264 1.98254L18.0512 1.30969C18.4107 1.2958 18.6909 0.993024 18.6769 0.633448C18.663 0.273872 18.3603 -0.00626148 18.0007 0.00762631L0.644837 0.680482C0.285262 0.69437 0.00506654 0.997267 0.0190158 1.35672C0.0329036 1.7163 0.335739 1.99655 0.695254 1.98254" fill="#FAFBFC"/>
</g>
</g>
<g opacity="0.0540466">
<mask id="mask7_0_24477" style="mask-type:luminance" maskUnits="userSpaceOnUse" x="0" y="0" width="19" height="2">
<path fill-rule="evenodd" clip-rule="evenodd" d="M0.0235213 0.00919583H18.6687V1.97909H0.0235213V0.00919583Z" fill="white"/>
</mask>
<g mask="url(#mask7_0_24477)">
<path fill-rule="evenodd" clip-rule="evenodd" d="M0.697314 1.9786L18.0451 1.30599C18.403 1.29223 18.682 0.990703 18.6682 0.632757C18.6542 0.274811 18.3528 -0.00419519 17.9949 0.0096926L0.647083 0.682302C0.289075 0.69619 0.0101304 0.997591 0.0240182 1.35554C0.037906 1.71348 0.339307 1.99249 0.697314 1.9786Z" fill="#F9FAFC"/>
</g>
</g>
<g opacity="0.0630646">
<mask id="mask8_0_24477" style="mask-type:luminance" maskUnits="userSpaceOnUse" x="0" y="0" width="19" height="2">
<path fill-rule="evenodd" clip-rule="evenodd" d="M0.0275249 0.0102593H18.6588V1.97414H0.0275249V0.0102593Z" fill="white"/>
</mask>
<g mask="url(#mask8_0_24477)">
<path fill-rule="evenodd" clip-rule="evenodd" d="M0.698313 1.97353L18.038 1.3013C18.3944 1.28753 18.6721 0.987392 18.6583 0.631066C18.6444 0.274616 18.3444 -0.00312957 17.988 0.0107582L0.648266 0.682989C0.291877 0.696753 0.0141934 0.996893 0.0280197 1.35334C0.0418459 1.70967 0.341925 1.98742 0.698313 1.97353Z" fill="#F8F9FB"/>
</g>
</g>
<g opacity="0.0720673">
<mask id="mask9_0_24477" style="mask-type:luminance" maskUnits="userSpaceOnUse" x="0" y="0" width="19" height="2">
<path fill-rule="evenodd" clip-rule="evenodd" d="M0.0330299 0.0122611H18.6504V1.96988H0.0330299V0.0122611Z" fill="white"/>
</mask>
<g mask="url(#mask9_0_24477)">
<path fill-rule="evenodd" clip-rule="evenodd" d="M0.700813 1.96952L18.0325 1.29753C18.3872 1.28377 18.6637 0.985125 18.65 0.630305C18.6362 0.275485 18.3374 -0.000887098 17.9827 0.0127445L0.651022 0.684729C0.296201 0.698494 0.0197577 0.997137 0.0335225 1.35196C0.0472258 1.70678 0.346054 1.98328 0.700813 1.96952Z" fill="#F7F8FB"/>
</g>
</g>
<g opacity="0.0810852">
<mask id="mask10_0_24477" style="mask-type:luminance" maskUnits="userSpaceOnUse" x="0" y="0" width="19" height="2">
<path fill-rule="evenodd" clip-rule="evenodd" d="M0.0370336 0.0143255H18.6407V1.96592H0.0370336V0.0143255Z" fill="white"/>
</mask>
<g mask="url(#mask10_0_24477)">
<path fill-rule="evenodd" clip-rule="evenodd" d="M0.701872 1.96545L18.0254 1.29385C18.3786 1.28021 18.6538 0.982691 18.6401 0.629501C18.6264 0.27631 18.329 0.00105525 17.9758 0.01482L0.652266 0.686425C0.299075 0.700067 0.0238205 0.99746 0.0375238 1.35077C0.0512271 1.70384 0.348682 1.9791 0.701872 1.96545Z" fill="#F6F7FA"/>
</g>
</g>
<g opacity="0.0900879">
<mask id="mask11_0_24477" style="mask-type:luminance" maskUnits="userSpaceOnUse" x="0" y="0" width="19" height="2">
<path fill-rule="evenodd" clip-rule="evenodd" d="M0.0410372 0.0163899H18.6307V1.96197H0.0410372V0.0163899Z" fill="white"/>
</mask>
<g mask="url(#mask11_0_24477)">
<path fill-rule="evenodd" clip-rule="evenodd" d="M0.70287 1.96152L18.0183 1.29016C18.3699 1.27651 18.6439 0.980505 18.6303 0.628811C18.6167 0.27724 18.3206 0.00324567 17.969 0.0168772L0.65352 0.688113C0.301887 0.701755 0.027893 0.997898 0.0415246 1.34946C0.0551664 1.70103 0.351309 1.97502 0.70287 1.96152Z" fill="#F5F6FA"/>
</g>
</g>
<g opacity="0.0991058">
<mask id="mask12_0_24477" style="mask-type:luminance" maskUnits="userSpaceOnUse" x="0" y="0" width="19" height="2">
<path fill-rule="evenodd" clip-rule="evenodd" d="M0.0460417 0.0173908H18.622V1.95695H0.0460417V0.0173908Z" fill="white"/>
</mask>
<g mask="url(#mask12_0_24477)">
<path fill-rule="evenodd" clip-rule="evenodd" d="M0.704874 1.95637L18.0122 1.28539C18.3622 1.27188 18.6351 0.977113 18.6214 0.627172C18.6078 0.277108 18.3131 0.00435354 17.9631 0.0178724L0.655709 0.688852C0.305706 0.702494 0.03289 0.99713 0.0465318 1.34719C0.0601019 1.69726 0.35481 1.97001 0.704874 1.95637Z" fill="#F4F5F9"/>
</g>
</g>
<g opacity="0.108109">
<mask id="mask13_0_24477" style="mask-type:luminance" maskUnits="userSpaceOnUse" x="0" y="0" width="19" height="2">
<path fill-rule="evenodd" clip-rule="evenodd" d="M0.0505458 0.0194551H18.6126V1.95276H0.0505458V0.0194551Z" fill="white"/>
</mask>
<g mask="url(#mask13_0_24477)">
<path fill-rule="evenodd" clip-rule="evenodd" d="M0.706369 1.95244L18.0057 1.28171C18.3541 1.26832 18.6256 0.974803 18.6121 0.626491C18.5986 0.278046 18.3052 0.00642938 17.9568 0.0199379L0.657449 0.690672C0.309004 0.70418 0.0375107 0.997577 0.0510295 1.34601C0.0645381 1.69446 0.357934 1.96595 0.706369 1.95243" fill="#F3F4F9"/>
</g>
</g>
<g opacity="0.117111">
<mask id="mask14_0_24477" style="mask-type:luminance" maskUnits="userSpaceOnUse" x="0" y="0" width="19" height="2">
<path fill-rule="evenodd" clip-rule="evenodd" d="M0.0555503 0.0215195H18.6039V1.9488H0.0555503V0.0215195Z" fill="white"/>
</mask>
<g mask="url(#mask14_0_24477)">
<path fill-rule="evenodd" clip-rule="evenodd" d="M0.708368 1.94836L17.9996 1.27801C18.3465 1.2645 18.6167 0.972474 18.6033 0.625669C18.5898 0.278853 18.2977 0.00861048 17.9509 0.021996L0.659704 0.692351C0.312889 0.705736 0.042584 0.997749 0.0560311 1.34469C0.0694781 1.69163 0.361562 1.96175 0.708368 1.94836Z" fill="#F2F3F8"/>
</g>
</g>
<g opacity="0.126129">
<mask id="mask15_0_24477" style="mask-type:luminance" maskUnits="userSpaceOnUse" x="0" y="0" width="19" height="2">
<path fill-rule="evenodd" clip-rule="evenodd" d="M0.059554 0.0235839H18.594V1.94485H0.059554V0.0235839Z" fill="white"/>
</mask>
<g mask="url(#mask15_0_24477)">
<path fill-rule="evenodd" clip-rule="evenodd" d="M0.709366 1.9443L17.9925 1.27431C18.3378 1.26093 18.6068 0.970165 18.5934 0.624979C18.58 0.27967 18.2893 0.0106674 17.944 0.0240632L0.660887 0.694049C0.31564 0.707435 0.0466471 0.998197 0.0600326 1.34338C0.0734182 1.68869 0.364119 1.95769 0.709366 1.9443Z" fill="#F1F3F8"/>
</g>
</g>
<g opacity="0.135132">
<mask id="mask16_0_24477" style="mask-type:luminance" maskUnits="userSpaceOnUse" x="0" y="0" width="19" height="2">
<path fill-rule="evenodd" clip-rule="evenodd" d="M0.0645585 0.0245848H18.585V1.93983H0.0645585V0.0245848Z" fill="white"/>
</mask>
<g mask="url(#mask16_0_24477)">
<path fill-rule="evenodd" clip-rule="evenodd" d="M0.711437 1.9393L17.9865 1.26969C18.3302 1.2563 18.5979 0.966915 18.5846 0.623226C18.5713 0.279537 18.2819 0.0117944 17.9382 0.025057L0.663142 0.694786C0.319514 0.708172 0.0517108 0.997561 0.0650349 1.34113C0.078359 1.68494 0.367748 1.95268 0.711437 1.9393Z" fill="#F0F2F7"/>
</g>
</g>
<g opacity="0.14415">
<mask id="mask17_0_24477" style="mask-type:luminance" maskUnits="userSpaceOnUse" x="0" y="0" width="19" height="2">
<path fill-rule="evenodd" clip-rule="evenodd" d="M0.0685621 0.0266492H18.5753V1.93563H0.0685621V0.0266492Z" fill="white"/>
</mask>
<g mask="url(#mask17_0_24477)">
<path fill-rule="evenodd" clip-rule="evenodd" d="M0.712446 1.93536L17.9794 1.26587C18.3215 1.25261 18.588 0.964595 18.5748 0.622535C18.5615 0.280353 18.2735 0.0138609 17.9314 0.0271235L0.664387 0.696484C0.322327 0.709747 0.0557738 0.997885 0.0690363 1.33994C0.0822989 1.682 0.370376 1.9485 0.712435 1.93536" fill="#EFF1F7"/>
</g>
</g>
<g opacity="0.153152">
<mask id="mask18_0_24477" style="mask-type:luminance" maskUnits="userSpaceOnUse" x="0" y="0" width="19" height="2">
<path fill-rule="evenodd" clip-rule="evenodd" d="M0.0740671 0.0287135H18.5669V1.93168H0.0740671V0.0287135Z" fill="white"/>
</mask>
<g mask="url(#mask18_0_24477)">
<path fill-rule="evenodd" clip-rule="evenodd" d="M0.714997 1.93128L17.9739 1.26218C18.3143 1.24904 18.5797 0.962286 18.5664 0.621846C18.5533 0.281282 18.2665 0.0160513 17.926 0.0291807L0.667204 0.698285C0.326641 0.711425 0.0613381 0.998179 0.0745392 1.33874C0.0877402 1.67917 0.374433 1.94454 0.714997 1.93128Z" fill="#EEF0F6"/>
</g>
</g>
<g opacity="0.162155">
<mask id="mask19_0_24477" style="mask-type:luminance" maskUnits="userSpaceOnUse" x="0" y="0" width="19" height="2">
<path fill-rule="evenodd" clip-rule="evenodd" d="M0.0780708 0.0307153H18.5572V1.92766H0.0780708V0.0307153Z" fill="white"/>
</mask>
<g mask="url(#mask19_0_24477)">
<path fill-rule="evenodd" clip-rule="evenodd" d="M0.715995 1.92716L17.9668 1.25842C18.3057 1.24529 18.5698 0.959904 18.5567 0.62097C18.5435 0.282037 18.2581 0.0180457 17.9192 0.0311853L0.668449 0.699921C0.329515 0.71306 0.0654009 0.998441 0.0785405 1.33738C0.0916801 1.67631 0.377061 1.9403 0.715995 1.92716Z" fill="#EDEFF6"/>
</g>
</g>
<g opacity="0.171173">
<mask id="mask20_0_24477" style="mask-type:luminance" maskUnits="userSpaceOnUse" x="0" y="0" width="19" height="2">
<path fill-rule="evenodd" clip-rule="evenodd" d="M0.0820744 0.0317788H18.5472V1.92271H0.0820744V0.0317788Z" fill="white"/>
</mask>
<g mask="url(#mask20_0_24477)">
<path fill-rule="evenodd" clip-rule="evenodd" d="M0.716936 1.92209L17.9597 1.25361C18.297 1.24059 18.5598 0.956593 18.5467 0.619279C18.5336 0.281975 18.2496 0.0191111 17.9123 0.0322507L0.669574 0.700607C0.33227 0.713746 0.0694067 0.997754 0.0825463 1.33506C0.0955629 1.67236 0.379632 1.93523 0.716936 1.92209Z" fill="#ECEEF5"/>
</g>
</g>
<g opacity="0.180176">
<mask id="mask21_0_24477" style="mask-type:luminance" maskUnits="userSpaceOnUse" x="0" y="0" width="19" height="2">
<path fill-rule="evenodd" clip-rule="evenodd" d="M0.0870789 0.0337806H18.5383V1.91869H0.0870789V0.0337806Z" fill="white"/>
</mask>
<g mask="url(#mask21_0_24477)">
<path fill-rule="evenodd" clip-rule="evenodd" d="M0.718992 1.91809L17.9536 1.24998C18.2894 1.23696 18.551 0.954211 18.538 0.618527C18.5249 0.282719 18.2422 0.0212392 17.9065 0.0342455L0.671825 0.702356C0.33615 0.715372 0.0745373 0.998119 0.0875436 1.3338C0.10056 1.66948 0.383246 1.93109 0.718992 1.91809Z" fill="#EBEDF5"/>
</g>
</g>
<g opacity="0.189194">
<mask id="mask22_0_24477" style="mask-type:luminance" maskUnits="userSpaceOnUse" x="0" y="0" width="19" height="2">
<path fill-rule="evenodd" clip-rule="evenodd" d="M0.0910825 0.035845H18.5286V1.91449H0.0910825V0.035845Z" fill="white"/>
</mask>
<g mask="url(#mask22_0_24477)">
<path fill-rule="evenodd" clip-rule="evenodd" d="M0.719995 1.91414L17.9465 1.24628C18.2807 1.23327 18.541 0.951892 18.5281 0.617837C18.5151 0.283659 18.2337 0.0232959 17.8996 0.0363125L0.673074 0.704166C0.338896 0.71705 0.0785335 0.998434 0.0915501 1.33249C0.104433 1.66667 0.385817 1.92703 0.719995 1.91414Z" fill="#EAECF4"/>
</g>
</g>
<g opacity="0.198196">
<mask id="mask23_0_24477" style="mask-type:luminance" maskUnits="userSpaceOnUse" x="0" y="0" width="19" height="2">
<path fill-rule="evenodd" clip-rule="evenodd" d="M0.0965875 0.0379094H18.5201V1.91078H0.0965875V0.0379094Z" fill="white"/>
</mask>
<g mask="url(#mask23_0_24477)">
<path fill-rule="evenodd" clip-rule="evenodd" d="M0.722486 1.91007L17.941 1.24259C18.2735 1.22971 18.5327 0.949695 18.5198 0.617147C18.5069 0.284599 18.2268 0.0254863 17.8943 0.0383697L0.675821 0.705978C0.343334 0.718738 0.0842217 0.998738 0.0970436 1.3313C0.109988 1.66385 0.389999 1.92308 0.722486 1.91007Z" fill="#E9EBF4"/>
</g>
</g>
<g opacity="0.207214">
<mask id="mask24_0_24477" style="mask-type:luminance" maskUnits="userSpaceOnUse" x="0" y="0" width="19" height="2">
<path fill-rule="evenodd" clip-rule="evenodd" d="M0.100591 0.0389103H18.5104V1.90552H0.100591V0.0389103Z" fill="white"/>
</mask>
<g mask="url(#mask24_0_24477)">
<path fill-rule="evenodd" clip-rule="evenodd" d="M0.72355 1.90506L17.934 1.23783C18.2649 1.22495 18.5227 0.946322 18.5099 0.615393C18.4971 0.284341 18.2184 0.0264894 17.8875 0.0393728L0.677008 0.706478C0.346079 0.719362 0.0882275 0.997989 0.101049 1.32904C0.113871 1.65997 0.39256 1.91782 0.72355 1.90506Z" fill="#E8EAF3"/>
</g>
</g>
<g opacity="0.216217">
<mask id="mask25_0_24477" style="mask-type:luminance" maskUnits="userSpaceOnUse" x="0" y="0" width="19" height="2">
<path fill-rule="evenodd" clip-rule="evenodd" d="M0.105596 0.0409746H18.5015V1.90157H0.105596V0.0409746Z" fill="white"/>
</mask>
<g mask="url(#mask25_0_24477)">
<path fill-rule="evenodd" clip-rule="evenodd" d="M0.725492 1.90099L17.9278 1.23414C18.2572 1.22138 18.5138 0.944003 18.501 0.614704C18.4883 0.285282 18.2109 0.0286703 17.8816 0.0414306L0.679268 0.70828C0.349907 0.72104 0.093234 0.998417 0.106056 1.32784C0.118816 1.65714 0.396131 1.91375 0.725492 1.90098" fill="#E7EAF2"/>
</g>
</g>
<g opacity="0.22522">
<mask id="mask26_0_24477" style="mask-type:luminance" maskUnits="userSpaceOnUse" x="0" y="0" width="19" height="2">
<path fill-rule="evenodd" clip-rule="evenodd" d="M0.109599 0.043039H18.4918V1.89737H0.109599V0.043039Z" fill="white"/>
</mask>
<g mask="url(#mask26_0_24477)">
<path fill-rule="evenodd" clip-rule="evenodd" d="M0.726548 1.89693L17.9208 1.23032C18.2485 1.21769 18.504 0.941683 18.4913 0.613891C18.4786 0.286098 18.2026 0.0307368 17.8748 0.0434971L0.680569 0.710101C0.352777 0.722738 0.0973542 0.998741 0.110053 1.32653C0.122752 1.65433 0.398755 1.90969 0.726548 1.89693Z" fill="#E6E9F2"/>
</g>
</g>
<g opacity="0.234238">
<mask id="mask27_0_24477" style="mask-type:luminance" maskUnits="userSpaceOnUse" x="0" y="0" width="19" height="2">
<path fill-rule="evenodd" clip-rule="evenodd" d="M0.115104 0.0451034H18.4834V1.89366H0.115104V0.0451034Z" fill="white"/>
</mask>
<g mask="url(#mask27_0_24477)">
<path fill-rule="evenodd" clip-rule="evenodd" d="M0.729048 1.89298L17.9152 1.22675C18.2414 1.21412 18.4956 0.939363 18.4829 0.6132C18.4703 0.287026 18.1956 0.0328031 17.8694 0.0455635L0.683254 0.711788C0.35708 0.724425 0.102919 0.999178 0.115556 1.32522C0.128193 1.65151 0.402874 1.90561 0.729048 1.89299" fill="#E5E8F1"/>
</g>
</g>
<g opacity="0.24324">
<mask id="mask28_0_24477" style="mask-type:luminance" maskUnits="userSpaceOnUse" x="0" y="0" width="19" height="2">
<path fill-rule="evenodd" clip-rule="evenodd" d="M0.119108 0.0461043H18.4734V1.8884H0.119108V0.0461043Z" fill="white"/>
</mask>
<g mask="url(#mask28_0_24477)">
<path fill-rule="evenodd" clip-rule="evenodd" d="M0.730107 1.88798L17.9082 1.222C18.2328 1.20948 18.4857 0.936114 18.4731 0.611447C18.4605 0.286904 18.1872 0.0339205 17.8626 0.0465579L0.68457 0.712536C0.359965 0.725051 0.106981 0.99842 0.119557 1.32309C0.132195 1.64763 0.405502 1.90061 0.730107 1.88798Z" fill="#E4E7F1"/>
</g>
</g>
<g opacity="0.252258">
<mask id="mask29_0_24477" style="mask-type:luminance" maskUnits="userSpaceOnUse" x="0" y="0" width="19" height="2">
<path fill-rule="evenodd" clip-rule="evenodd" d="M0.123112 0.0481687H18.4637V1.88445H0.123112V0.0481687Z" fill="white"/>
</mask>
<g mask="url(#mask29_0_24477)">
<path fill-rule="evenodd" clip-rule="evenodd" d="M0.731106 1.88389L17.9011 1.2183C18.2241 1.20578 18.4758 0.933785 18.4632 0.610748C18.4507 0.287834 18.1787 0.0361014 17.8558 0.0486157L0.685753 0.714215C0.362705 0.726729 0.111044 0.998725 0.123559 1.32176C0.136073 1.64481 0.40813 1.89641 0.731106 1.88389Z" fill="#E3E6F0"/>
</g>
</g>
<g opacity="0.261261">
<mask id="mask30_0_24477" style="mask-type:luminance" maskUnits="userSpaceOnUse" x="0" y="0" width="19" height="2">
<path fill-rule="evenodd" clip-rule="evenodd" d="M0.128116 0.050233H18.4548V1.88025H0.128116V0.050233Z" fill="white"/>
</mask>
<g mask="url(#mask30_0_24477)">
<path fill-rule="evenodd" clip-rule="evenodd" d="M0.733166 1.87996L17.895 1.21473C18.2165 1.20221 18.4669 0.931589 18.4545 0.610182C18.442 0.288764 18.1713 0.0382918 17.8499 0.050673L0.688007 0.716026C0.36659 0.72854 0.116118 0.999163 0.12856 1.32057C0.141075 1.64199 0.411758 1.89246 0.733166 1.87996Z" fill="#E2E5F0"/>
</g>
</g>
<g opacity="0.270264">
<mask id="mask31_0_24477" style="mask-type:luminance" maskUnits="userSpaceOnUse" x="0" y="0" width="19" height="2">
<path fill-rule="evenodd" clip-rule="evenodd" d="M0.13212 0.0522348H18.4451V1.87647H0.13212V0.0522348Z" fill="white"/>
</mask>
<g mask="url(#mask31_0_24477)">
<path fill-rule="evenodd" clip-rule="evenodd" d="M0.734103 1.87582L17.888 1.21085C18.2077 1.19847 18.457 0.929094 18.4446 0.609306C18.4322 0.289518 18.1628 0.0402862 17.843 0.0526776L0.689253 0.717651C0.369403 0.730033 0.120171 0.999404 0.132562 1.31919C0.144944 1.6391 0.414315 1.88834 0.734103 1.87582Z" fill="#E1E4EF"/>
</g>
</g>
<g opacity="0.279282">
<mask id="mask32_0_24477" style="mask-type:luminance" maskUnits="userSpaceOnUse" x="0" y="0" width="19" height="2">
<path fill-rule="evenodd" clip-rule="evenodd" d="M0.137625 0.0532983H18.4367V1.87128H0.137625V0.0532983Z" fill="white"/>
</mask>
<g mask="url(#mask32_0_24477)">
<path fill-rule="evenodd" clip-rule="evenodd" d="M0.736613 1.87089L17.8823 1.20616C18.2006 1.19378 18.4486 0.925783 18.4363 0.607624C18.4239 0.289333 18.1559 0.0413613 17.8377 0.0537425L0.691946 0.718347C0.373716 0.730729 0.125745 0.998727 0.138065 1.31702C0.150384 1.63518 0.418383 1.88316 0.736603 1.8709" fill="#E0E3EF"/>
</g>
</g>
<g opacity="0.288284">
<mask id="mask33_0_24477" style="mask-type:luminance" maskUnits="userSpaceOnUse" x="0" y="0" width="19" height="2">
<path fill-rule="evenodd" clip-rule="evenodd" d="M0.141628 0.0553627H18.427V1.86732H0.141628V0.0553627Z" fill="white"/>
</mask>
<g mask="url(#mask33_0_24477)">
<path fill-rule="evenodd" clip-rule="evenodd" d="M0.737615 1.86681L17.8753 1.20246C18.1919 1.1902 18.4387 0.923587 18.4264 0.606925C18.4141 0.290263 18.1475 0.0435422 17.8308 0.0558004L0.693134 0.720149C0.376533 0.732407 0.129751 0.999022 0.14207 1.31568C0.154328 1.63235 0.420943 1.87907 0.737605 1.86681" fill="#DFE2EE"/>
</g>
</g>
<g opacity="0.297302">
<mask id="mask34_0_24477" style="mask-type:luminance" maskUnits="userSpaceOnUse" x="0" y="0" width="19" height="2">
<path fill-rule="evenodd" clip-rule="evenodd" d="M0.146633 0.0573645H18.418V1.86306H0.146633V0.0573645Z" fill="white"/>
</mask>
<g mask="url(#mask34_0_24477)">
<path fill-rule="evenodd" clip-rule="evenodd" d="M0.739611 1.86268L17.8693 1.19858C18.1843 1.18645 18.4298 0.921081 18.4176 0.606049C18.4054 0.291017 18.1401 0.0455462 17.825 0.0578043L0.695437 0.721784C0.380404 0.734042 0.134862 0.999283 0.147069 1.31445C0.159266 1.62948 0.424568 1.87496 0.739611 1.86269" fill="#DEE2EE"/>
</g>
</g>
<g opacity="0.306305">
<mask id="mask35_0_24477" style="mask-type:luminance" maskUnits="userSpaceOnUse" x="0" y="0" width="19" height="2">
<path fill-rule="evenodd" clip-rule="evenodd" d="M0.150637 0.0594289H18.4081V1.85935H0.150637V0.0594289Z" fill="white"/>
</mask>
<g mask="url(#mask35_0_24477)">
<path fill-rule="evenodd" clip-rule="evenodd" d="M0.74067 1.85875L17.8622 1.19503C18.1757 1.1829 18.4199 0.918904 18.4077 0.605369C18.3956 0.291956 18.1316 0.0476125 17.8182 0.0598706L0.696691 0.723594C0.383155 0.735729 0.138935 0.99972 0.15107 1.31326C0.163267 1.62667 0.427196 1.87089 0.74067 1.85875Z" fill="#DDE1ED"/>
</g>
</g>
<g opacity="0.315323">
<mask id="mask36_0_24477" style="mask-type:luminance" maskUnits="userSpaceOnUse" x="0" y="0" width="19" height="2">
<path fill-rule="evenodd" clip-rule="evenodd" d="M0.155641 0.0604298H18.3994V1.85433H0.155641V0.0604298Z" fill="white"/>
</mask>
<g mask="url(#mask36_0_24477)">
<path fill-rule="evenodd" clip-rule="evenodd" d="M0.74267 1.85374L17.856 1.19027C18.168 1.17813 18.411 0.915512 18.3989 0.603606C18.3868 0.2917 18.1242 0.0487301 17.8123 0.0608652L0.698875 0.724343C0.386968 0.736355 0.143999 0.998962 0.156072 1.31088C0.168146 1.62279 0.430763 1.86575 0.74267 1.85374Z" fill="#DCE0ED"/>
</g>
</g>
<g opacity="0.324326">
<mask id="mask37_0_24477" style="mask-type:luminance" maskUnits="userSpaceOnUse" x="0" y="0" width="19" height="2">
<path fill-rule="evenodd" clip-rule="evenodd" d="M0.160145 0.0624941H18.3899V1.85014H0.160145V0.0624941Z" fill="white"/>
</mask>
<g mask="url(#mask37_0_24477)">
<path fill-rule="evenodd" clip-rule="evenodd" d="M0.744173 1.84979L17.8495 1.1867C18.1598 1.17468 18.4016 0.913327 18.3895 0.60304C18.3775 0.292763 18.1162 0.0509107 17.8059 0.0629229L0.700572 0.726144C0.390296 0.738156 0.148505 0.99939 0.160578 1.3098C0.17259 1.62008 0.433886 1.8618 0.744173 1.84979Z" fill="#DBDFEC"/>
</g>
</g>
<g opacity="0.333328">
<mask id="mask38_0_24477" style="mask-type:luminance" maskUnits="userSpaceOnUse" x="0" y="0" width="19" height="2">
<path fill-rule="evenodd" clip-rule="evenodd" d="M0.164149 0.0645585H18.3802V1.84618H0.164149V0.0645585Z" fill="white"/>
</mask>
<g mask="url(#mask38_0_24477)">
<path fill-rule="evenodd" clip-rule="evenodd" d="M0.745167 1.84573L17.8425 1.18288C18.1511 1.17087 18.3917 0.910884 18.3797 0.602226C18.3678 0.293569 18.1078 0.0529773 17.7991 0.0649894L0.701812 0.727719C0.393155 0.739731 0.152625 0.999714 0.164575 1.30837C0.176526 1.61715 0.43651 1.85762 0.745167 1.84573Z" fill="#DADEEC"/>
</g>
</g>
<g opacity="0.342346">
<mask id="mask39_0_24477" style="mask-type:luminance" maskUnits="userSpaceOnUse" x="0" y="0" width="19" height="2">
<path fill-rule="evenodd" clip-rule="evenodd" d="M0.169153 0.0666229H18.3713V1.84223H0.169153V0.0666229Z" fill="white"/>
</mask>
<g mask="url(#mask39_0_24477)">
<path fill-rule="evenodd" clip-rule="evenodd" d="M0.747222 1.84177L17.8363 1.1793C18.1435 1.16729 18.3828 0.908678 18.3709 0.601527C18.359 0.2945 18.1003 0.0551581 17.7933 0.0670473L0.704062 0.729643C0.396911 0.741532 0.157631 1.00014 0.169582 1.30717C0.181471 1.61432 0.440081 1.85366 0.747232 1.84178" fill="#D9DDEB"/>
</g>
</g>
<g opacity="0.351349">
<mask id="mask40_0_24477" style="mask-type:luminance" maskUnits="userSpaceOnUse" x="0" y="0" width="19" height="2">
<path fill-rule="evenodd" clip-rule="evenodd" d="M0.173157 0.0676238H18.3616V1.83721H0.173157V0.0676238Z" fill="white"/>
</mask>
<g mask="url(#mask40_0_24477)">
<path fill-rule="evenodd" clip-rule="evenodd" d="M0.74823 1.83666L17.8293 1.17431C18.1349 1.16255 18.3729 0.905315 18.3611 0.599783C18.3492 0.294252 18.092 0.0561612 17.7864 0.0680504L0.705317 0.730154C0.399785 0.742044 0.161694 0.999403 0.173584 1.3048C0.185411 1.61046 0.442699 1.84842 0.74823 1.83666Z" fill="#D8DCEB"/>
</g>
</g>
<g opacity="0.360367">
<mask id="mask41_0_24477" style="mask-type:luminance" maskUnits="userSpaceOnUse" x="0" y="0" width="19" height="2">
<path fill-rule="evenodd" clip-rule="evenodd" d="M0.178662 0.0696882H18.3532V1.83301H0.178662V0.0696882Z" fill="white"/>
</mask>
<g mask="url(#mask41_0_24477)">
<path fill-rule="evenodd" clip-rule="evenodd" d="M0.75073 1.8327L17.8238 1.17073C18.1277 1.15897 18.3645 0.903109 18.3527 0.599084C18.341 0.295183 18.085 0.0583421 17.7811 0.0701082L0.708062 0.731956C0.404161 0.743845 0.167259 0.999698 0.179086 1.30372C0.190842 1.6075 0.446828 1.84447 0.75073 1.8327Z" fill="#D7DBEA"/>
</g>
</g>
<g opacity="0.36937">
<mask id="mask42_0_24477" style="mask-type:luminance" maskUnits="userSpaceOnUse" x="0" y="0" width="19" height="2">
<path fill-rule="evenodd" clip-rule="evenodd" d="M0.182666 0.0717525H18.3432V1.82906H0.182666V0.0717525Z" fill="white"/>
</mask>
<g mask="url(#mask42_0_24477)">
<path fill-rule="evenodd" clip-rule="evenodd" d="M0.751728 1.82865L17.8167 1.16704C18.119 1.15541 18.3546 0.900675 18.3429 0.598403C18.3312 0.296131 18.0766 0.0604179 17.7742 0.0721738L0.709255 0.733776C0.406921 0.745532 0.171331 1.00002 0.183087 1.30242C0.194781 1.60481 0.449394 1.8404 0.751728 1.82865Z" fill="#D6DAEA"/>
</g>
</g>
<g opacity="0.378372">
<mask id="mask43_0_24477" style="mask-type:luminance" maskUnits="userSpaceOnUse" x="0" y="0" width="19" height="2">
<path fill-rule="evenodd" clip-rule="evenodd" d="M0.18767 0.0737543H18.3345V1.8248H0.18767V0.0737543Z" fill="white"/>
</mask>
<g mask="url(#mask43_0_24477)">
<path fill-rule="evenodd" clip-rule="evenodd" d="M0.753727 1.8245L17.8106 1.16328C18.1113 1.15165 18.3457 0.898417 18.334 0.597642C18.3224 0.296866 18.0691 0.0625364 17.7684 0.0741694L0.7115 0.735515C0.410724 0.747025 0.176395 1.00038 0.188089 1.30103C0.199722 1.60181 0.452952 1.83627 0.753727 1.8245Z" fill="#D5DAE9"/>
</g>
</g>
<g opacity="0.38739">
<mask id="mask44_0_24477" style="mask-type:luminance" maskUnits="userSpaceOnUse" x="0" y="0" width="19" height="2">
<path fill-rule="evenodd" clip-rule="evenodd" d="M0.191674 0.0748178H18.3246V1.82009H0.191674V0.0748178Z" fill="white"/>
</mask>
<g mask="url(#mask44_0_24477)">
<path fill-rule="evenodd" clip-rule="evenodd" d="M0.754736 1.81957L17.8035 1.15859C18.1027 1.14708 18.3359 0.895106 18.3242 0.59596C18.3126 0.296814 18.0607 0.0636018 17.7616 0.0752348L0.712755 0.736211C0.413609 0.747844 0.180458 0.9997 0.192091 1.29885C0.203662 1.59799 0.455579 1.8312 0.754725 1.81957" fill="#D4D9E9"/>
</g>
</g>
<g opacity="0.396393">
<mask id="mask45_0_24477" style="mask-type:luminance" maskUnits="userSpaceOnUse" x="0" y="0" width="19" height="2">
<path fill-rule="evenodd" clip-rule="evenodd" d="M0.196678 0.0768822H18.3159V1.81589H0.196678V0.0768822Z" fill="white"/>
</mask>
<g mask="url(#mask45_0_24477)">
<path fill-rule="evenodd" clip-rule="evenodd" d="M0.756843 1.81561L17.7975 1.15489C18.0951 1.14338 18.327 0.892778 18.3154 0.595261C18.3039 0.297612 18.0533 0.0657829 17.7557 0.0772929L0.715057 0.738013C0.417479 0.749523 0.185579 1.00001 0.197089 1.29764C0.20866 1.59529 0.459266 1.82712 0.756843 1.81561Z" fill="#D3D8E8"/>
</g>
</g>
<g opacity="0.405411">
<mask id="mask46_0_24477" style="mask-type:luminance" maskUnits="userSpaceOnUse" x="0" y="0" width="19" height="2">
<path fill-rule="evenodd" clip-rule="evenodd" d="M0.201182 0.078884H18.3065V1.81187H0.201182V0.078884Z" fill="white"/>
</mask>
<g mask="url(#mask46_0_24477)">
<path fill-rule="evenodd" clip-rule="evenodd" d="M0.758224 1.81136L17.7909 1.15114C18.0868 1.13963 18.3175 0.890405 18.306 0.594385C18.2946 0.298488 18.0453 0.0677867 17.7493 0.0792966L0.716683 0.739648C0.420725 0.751035 0.190085 1.00026 0.201595 1.29628C0.213044 1.5923 0.462265 1.82287 0.758224 1.81136Z" fill="#D2D7E7"/>
</g>
</g>
<g opacity="0.414413">
<mask id="mask47_0_24477" style="mask-type:luminance" maskUnits="userSpaceOnUse" x="0" y="0" width="19" height="2">
<path fill-rule="evenodd" clip-rule="evenodd" d="M0.205186 0.0809484H18.2967V1.80768H0.205186V0.0809484Z" fill="white"/>
</mask>
<g mask="url(#mask47_0_24477)">
<path fill-rule="evenodd" clip-rule="evenodd" d="M0.759341 1.80742L17.7839 1.14744C18.0783 1.13606 18.3077 0.888209 18.2962 0.593819C18.2848 0.299429 18.0369 0.0699675 17.7425 0.0813545L0.717995 0.74145C0.423666 0.752837 0.194205 1.00068 0.205592 1.29508C0.217041 1.58947 0.46495 1.81893 0.759341 1.80742Z" fill="#D1D6E7"/>
</g>
</g>
<g opacity="0.423416">
<mask id="mask48_0_24477" style="mask-type:luminance" maskUnits="userSpaceOnUse" x="0" y="0" width="19" height="2">
<path fill-rule="evenodd" clip-rule="evenodd" d="M0.21019 0.0819493H18.2878V1.8029H0.21019V0.0819493Z" fill="white"/>
</mask>
<g mask="url(#mask48_0_24477)">
<path fill-rule="evenodd" clip-rule="evenodd" d="M0.761279 1.80239L17.7778 1.1428C18.0706 1.13129 18.2987 0.884817 18.2873 0.592056C18.276 0.299296 18.0294 0.071085 17.7367 0.0823489L0.72024 0.742075C0.427408 0.753462 0.199269 0.999937 0.210595 1.29282C0.22192 1.58558 0.468518 1.81379 0.761279 1.80241" fill="#D0D5E6"/>
</g>
</g>
<g opacity="0.432434">
<mask id="mask49_0_24477" style="mask-type:luminance" maskUnits="userSpaceOnUse" x="0" y="0" width="19" height="2">
<path fill-rule="evenodd" clip-rule="evenodd" d="M0.214194 0.0840136H18.2779V1.79871H0.214194V0.0840136Z" fill="white"/>
</mask>
<g mask="url(#mask49_0_24477)">
<path fill-rule="evenodd" clip-rule="evenodd" d="M0.762338 1.79834L17.7708 1.13899C18.062 1.12773 18.2888 0.882517 18.2776 0.591252C18.2663 0.300111 18.021 0.073161 17.7299 0.0844147L0.721494 0.743762C0.43023 0.755026 0.203342 1.00037 0.214595 1.2915C0.225921 1.58277 0.471145 1.8096 0.762338 1.79834Z" fill="#CFD4E6"/>
</g>
</g>
<g opacity="0.441437">
<mask id="mask50_0_24477" style="mask-type:luminance" maskUnits="userSpaceOnUse" x="0" y="0" width="19" height="2">
<path fill-rule="evenodd" clip-rule="evenodd" d="M0.219199 0.086078H18.2692V1.79475H0.219199V0.086078Z" fill="white"/>
</mask>
<g mask="url(#mask50_0_24477)">
<path fill-rule="evenodd" clip-rule="evenodd" d="M0.764338 1.79438L17.7646 1.13542C18.0543 1.12415 18.28 0.880188 18.2687 0.590677C18.2575 0.301042 18.0136 0.0753323 17.724 0.0864733L0.723679 0.745574C0.434044 0.756838 0.208396 1.0008 0.219598 1.29031C0.230862 1.57995 0.474703 1.80566 0.764338 1.79439" fill="#CED3E5"/>
</g>
</g>
<g opacity="0.450455">
<mask id="mask51_0_24477" style="mask-type:luminance" maskUnits="userSpaceOnUse" x="0" y="0" width="19" height="2">
<path fill-rule="evenodd" clip-rule="evenodd" d="M0.223703 0.0881424H18.2597V1.79056H0.223703V0.0881424Z" fill="white"/>
</mask>
<g mask="url(#mask51_0_24477)">
<path fill-rule="evenodd" clip-rule="evenodd" d="M0.765908 1.79034L17.7581 1.13162C18.0461 1.12035 18.2706 0.877764 18.2595 0.589749C18.2483 0.301734 18.0057 0.0772845 17.7176 0.0885485L0.725433 0.74727C0.437418 0.758401 0.212969 1.00088 0.224099 1.28901C0.235302 1.57702 0.477831 1.80147 0.765908 1.79034Z" fill="#CDD2E5"/>
</g>
</g>
<g opacity="0.459457">
<mask id="mask52_0_24477" style="mask-type:luminance" maskUnits="userSpaceOnUse" x="0" y="0" width="19" height="2">
<path fill-rule="evenodd" clip-rule="evenodd" d="M0.228707 0.0891433H18.251V1.78578H0.228707V0.0891433Z" fill="white"/>
</mask>
<g mask="url(#mask52_0_24477)">
<path fill-rule="evenodd" clip-rule="evenodd" d="M0.767897 1.78533L17.752 1.12685C18.0385 1.11584 18.2617 0.874627 18.2505 0.588119C18.2395 0.30161 17.9983 0.0784114 17.7118 0.0895421L0.727678 0.748018C0.441231 0.759026 0.218033 1.00038 0.229102 1.28675C0.240233 1.57314 0.48146 1.79646 0.767907 1.78533" fill="#CCD2E4"/>
</g>
</g>
<g opacity="0.468475">
<mask id="mask53_0_24477" style="mask-type:luminance" maskUnits="userSpaceOnUse" x="0" y="0" width="19" height="2">
<path fill-rule="evenodd" clip-rule="evenodd" d="M0.232711 0.0912077H18.2411V1.78182H0.232711V0.0912077Z" fill="white"/>
</mask>
<g mask="url(#mask53_0_24477)">
<path fill-rule="evenodd" clip-rule="evenodd" d="M0.768906 1.78126L17.7449 1.12316C18.0298 1.11215 18.2518 0.87231 18.2407 0.58742C18.2297 0.302541 17.9898 0.0805827 17.7049 0.0916007L0.728924 0.74982C0.444045 0.760828 0.222086 1.00067 0.233104 1.28556C0.244173 1.57044 0.484017 1.7924 0.768906 1.78126Z" fill="#CBD1E4"/>
</g>
</g>
<g opacity="0.477478">
<mask id="mask54_0_24477" style="mask-type:luminance" maskUnits="userSpaceOnUse" x="0" y="0" width="19" height="2">
<path fill-rule="evenodd" clip-rule="evenodd" d="M0.237715 0.093272H18.2324V1.77763H0.237715V0.093272Z" fill="white"/>
</mask>
<g mask="url(#mask54_0_24477)">
<path fill-rule="evenodd" clip-rule="evenodd" d="M0.770909 1.77719L17.7389 1.11948C18.0221 1.10847 18.2428 0.869876 18.2319 0.586616C18.2209 0.303357 17.9823 0.0826588 17.6991 0.0936665L0.731121 0.751517C0.4478 0.762402 0.227102 1.001 0.23811 1.28425C0.249056 1.56751 0.487588 1.78821 0.770909 1.7772" fill="#CAD0E3"/>
</g>
</g>
<g opacity="0.486481">
<mask id="mask55_0_24477" style="mask-type:luminance" maskUnits="userSpaceOnUse" x="0" y="0" width="19" height="2">
<path fill-rule="evenodd" clip-rule="evenodd" d="M0.24222 0.0952738H18.2229V1.77361H0.24222V0.0952738Z" fill="white"/>
</mask>
<g mask="url(#mask55_0_24477)">
<path fill-rule="evenodd" clip-rule="evenodd" d="M0.772403 1.77331L17.7323 1.11583C18.014 1.10483 18.2335 0.867607 18.2226 0.585977C18.2116 0.304347 17.9744 0.0847769 17.6927 0.0956617L0.732862 0.753256C0.451232 0.764141 0.231723 1.00136 0.242607 1.28299C0.253554 1.56474 0.490773 1.78419 0.772403 1.77331Z" fill="#C9CFE3"/>
</g>
</g>
<g opacity="0.495499">
<mask id="mask56_0_24477" style="mask-type:luminance" maskUnits="userSpaceOnUse" x="0" y="0" width="19" height="2">
<path fill-rule="evenodd" clip-rule="evenodd" d="M0.246223 0.0973382H18.213V1.76966H0.246223V0.0973382Z" fill="white"/>
</mask>
<g mask="url(#mask56_0_24477)">
<path fill-rule="evenodd" clip-rule="evenodd" d="M0.773406 1.76925L17.7252 1.11202C18.0053 1.10114 18.2236 0.865299 18.2127 0.585289C18.2018 0.305155 17.966 0.086958 17.6859 0.0977198L0.734121 0.754945C0.453987 0.76583 0.235728 1.00167 0.246613 1.2818C0.257498 1.5618 0.493334 1.78013 0.773406 1.76925Z" fill="#C8CEE2"/>
</g>
</g>
<g opacity="0.504501">
<mask id="mask57_0_24477" style="mask-type:luminance" maskUnits="userSpaceOnUse" x="0" y="0" width="19" height="2">
<path fill-rule="evenodd" clip-rule="evenodd" d="M0.251228 0.0984017H18.2043V1.7647H0.251228V0.0984017Z" fill="white"/>
</mask>
<g mask="url(#mask57_0_24477)">
<path fill-rule="evenodd" clip-rule="evenodd" d="M0.775405 1.76418L17.7191 1.10733C17.9976 1.09657 18.2147 0.861987 18.2038 0.583483C18.1931 0.304979 17.9585 0.087909 17.68 0.0987938L0.736366 0.75564C0.457862 0.766402 0.240792 1.00099 0.251615 1.27949C0.262439 1.558 0.496901 1.77494 0.775405 1.76418Z" fill="#C8CDE2"/>
</g>
</g>
<g opacity="0.513519">
<mask id="mask58_0_24477" style="mask-type:luminance" maskUnits="userSpaceOnUse" x="0" y="0" width="19" height="2">
<path fill-rule="evenodd" clip-rule="evenodd" d="M0.255231 0.100403H18.1944V1.76044H0.255231V0.100403Z" fill="white"/>
</mask>
<g mask="url(#mask58_0_24477)">
<path fill-rule="evenodd" clip-rule="evenodd" d="M0.776471 1.76016L17.7121 1.10357C17.989 1.09293 18.2048 0.859718 18.1941 0.582721C18.1833 0.305847 17.9501 0.0900273 17.6732 0.100789L0.737616 0.757389C0.46068 0.768151 0.244922 1.00136 0.255612 1.27824C0.266374 1.55511 0.499525 1.77093 0.77646 1.76017" fill="#C7CCE1"/>
</g>
</g>
<g opacity="0.522522">
<mask id="mask59_0_24477" style="mask-type:luminance" maskUnits="userSpaceOnUse" x="0" y="0" width="19" height="2">
<path fill-rule="evenodd" clip-rule="evenodd" d="M0.260236 0.102468H18.1857V1.75649H0.260236V0.102468Z" fill="white"/>
</mask>
<g mask="url(#mask59_0_24477)">
<path fill-rule="evenodd" clip-rule="evenodd" d="M0.77846 1.7561L17.7061 1.09988C17.9814 1.08924 18.1959 0.85741 18.1852 0.582032C18.1745 0.306787 17.9427 0.0922082 17.6673 0.102847L0.739862 0.759068C0.464484 0.76983 0.249976 1.00166 0.260615 1.27704C0.271315 1.55228 0.503144 1.76686 0.77846 1.7561Z" fill="#C6CBE1"/>
</g>
</g>
<g opacity="0.531525">
<mask id="mask60_0_24477" style="mask-type:luminance" maskUnits="userSpaceOnUse" x="0" y="0" width="19" height="2">
<path fill-rule="evenodd" clip-rule="evenodd" d="M0.26474 0.104532H18.1762V1.75253H0.26474V0.104532Z" fill="white"/>
</mask>
<g mask="url(#mask60_0_24477)">
<path fill-rule="evenodd" clip-rule="evenodd" d="M0.779963 1.75203L17.6994 1.09618C17.9732 1.08554 18.1865 0.85509 18.1758 0.581341C18.1653 0.307593 17.9348 0.0942747 17.661 0.104913L0.741549 0.760878C0.467801 0.771384 0.254482 1.00197 0.265121 1.27572C0.27576 1.54935 0.506215 1.76279 0.779963 1.75203Z" fill="#C5CAE0"/>
</g>
</g>
<g opacity="0.540543">
<mask id="mask61_0_24477" style="mask-type:luminance" maskUnits="userSpaceOnUse" x="0" y="0" width="19" height="2">
<path fill-rule="evenodd" clip-rule="evenodd" d="M0.269744 0.105533H18.1673V1.74752H0.269744V0.105533Z" fill="white"/>
</mask>
<g mask="url(#mask61_0_24477)">
<path fill-rule="evenodd" clip-rule="evenodd" d="M0.781962 1.74715L17.6934 1.09143C17.9655 1.08092 18.1776 0.851707 18.167 0.579588C18.1565 0.30747 17.9273 0.0954017 17.6552 0.105907L0.743804 0.761503C0.471624 0.772008 0.259556 1.00122 0.270123 1.27347C0.28069 1.54546 0.509843 1.75765 0.781962 1.74715Z" fill="#C4C9E0"/>
</g>
</g>
<g opacity="0.549545">
<mask id="mask62_0_24477" style="mask-type:luminance" maskUnits="userSpaceOnUse" x="0" y="0" width="19" height="2">
<path fill-rule="evenodd" clip-rule="evenodd" d="M0.273748 0.107598H18.1576V1.74332H0.273748V0.107598Z" fill="white"/>
</mask>
<g mask="url(#mask62_0_24477)">
<path fill-rule="evenodd" clip-rule="evenodd" d="M0.783023 1.74295L17.6863 1.08773C17.9569 1.07723 18.1677 0.849398 18.1572 0.578898C18.1467 0.308276 17.9189 0.0974586 17.6483 0.107974L0.745049 0.763314C0.474488 0.773696 0.263609 1.00153 0.274125 1.27215C0.28463 1.54265 0.512462 1.75346 0.783023 1.74295Z" fill="#C3C9DF"/>
</g>
</g>
<g opacity="0.558563">
<mask id="mask63_0_24477" style="mask-type:luminance" maskUnits="userSpaceOnUse" x="0" y="0" width="19" height="2">
<path fill-rule="evenodd" clip-rule="evenodd" d="M0.277752 0.109662H18.1477V1.73937H0.277752V0.109662Z" fill="white"/>
</mask>
<g mask="url(#mask63_0_24477)">
<path fill-rule="evenodd" clip-rule="evenodd" d="M0.78402 1.73902L17.6792 1.08405C17.9482 1.07367 18.1578 0.84721 18.1473 0.578217C18.1369 0.309225 17.9104 0.0995345 17.6414 0.11004L0.746241 0.765011C0.477249 0.775393 0.267682 1.00197 0.278126 1.27084C0.28857 1.53984 0.515028 1.7494 0.78402 1.73902Z" fill="#C2C8DF"/>
</g>
</g>
<g opacity="0.567566">
<mask id="mask64_0_24477" style="mask-type:luminance" maskUnits="userSpaceOnUse" x="0" y="0" width="19" height="2">
<path fill-rule="evenodd" clip-rule="evenodd" d="M0.282756 0.111726H18.139V1.73541H0.282756V0.111726Z" fill="white"/>
</mask>
<g mask="url(#mask64_0_24477)">
<path fill-rule="evenodd" clip-rule="evenodd" d="M0.78602 1.73506L17.6731 1.08035C17.9405 1.07009 18.1489 0.844881 18.1385 0.577395C18.1282 0.310155 17.903 0.101715 17.6356 0.112098L0.748487 0.766812C0.481052 0.777195 0.272746 1.00228 0.283128 1.26964C0.293511 1.53701 0.518595 1.74544 0.78602 1.73506Z" fill="#C1C7DE"/>
</g>
</g>
<g opacity="0.576584">
<mask id="mask65_0_24477" style="mask-type:luminance" maskUnits="userSpaceOnUse" x="0" y="0" width="19" height="2">
<path fill-rule="evenodd" clip-rule="evenodd" d="M0.28726 0.112727H18.1295V1.73039H0.28726V0.112727Z" fill="white"/>
</mask>
<g mask="url(#mask65_0_24477)">
<path fill-rule="evenodd" clip-rule="evenodd" d="M0.787518 1.73006L17.6666 1.07572C17.9324 1.06533 18.1395 0.841499 18.1292 0.575766C18.1188 0.310022 17.8951 0.102833 17.6293 0.113092L0.75017 0.767438C0.484426 0.77782 0.277309 1.00165 0.28763 1.26739C0.297889 1.53313 0.521713 1.74032 0.787518 1.73006Z" fill="#C0C6DE"/>
</g>
</g>
<g opacity="0.585587">
<mask id="mask66_0_24477" style="mask-type:luminance" maskUnits="userSpaceOnUse" x="0" y="0" width="19" height="2">
<path fill-rule="evenodd" clip-rule="evenodd" d="M0.292265 0.114792H18.1208V1.7262H0.292265V0.114792Z" fill="white"/>
</mask>
<g mask="url(#mask66_0_24477)">
<path fill-rule="evenodd" clip-rule="evenodd" d="M0.789575 1.72587L17.6605 1.0719C17.9247 1.06164 18.1306 0.839189 18.1203 0.574952C18.1101 0.310715 17.8876 0.104899 17.6235 0.115159L0.752483 0.769125C0.488307 0.779385 0.28243 1.00184 0.292628 1.26607C0.302949 1.53031 0.5254 1.73612 0.789575 1.72587Z" fill="#BFC5DD"/>
</g>
</g>
<g opacity="0.594589">
<mask id="mask67_0_24477" style="mask-type:luminance" maskUnits="userSpaceOnUse" x="0" y="0" width="19" height="2">
<path fill-rule="evenodd" clip-rule="evenodd" d="M0.296268 0.116856H18.1109V1.72224H0.296268V0.116856Z" fill="white"/>
</mask>
<g mask="url(#mask67_0_24477)">
<path fill-rule="evenodd" clip-rule="evenodd" d="M0.790516 1.72192L17.6534 1.0682C17.916 1.05806 18.1207 0.83686 18.1105 0.574253C18.1003 0.311636 17.8792 0.10708 17.6165 0.117217L0.75367 0.770937C0.491052 0.781074 0.286436 1.00227 0.296634 1.26488C0.30677 1.5275 0.527909 1.73205 0.790516 1.72192Z" fill="#BEC4DD"/>
</g>
</g>
<g opacity="0.603607">
<mask id="mask68_0_24477" style="mask-type:luminance" maskUnits="userSpaceOnUse" x="0" y="0" width="19" height="2">
<path fill-rule="evenodd" clip-rule="evenodd" d="M0.301273 0.118858H18.1019V1.71823H0.301273V0.118858Z" fill="white"/>
</mask>
<g mask="url(#mask68_0_24477)">
<path fill-rule="evenodd" clip-rule="evenodd" d="M0.792504 1.71779L17.6474 1.06445C17.9084 1.05431 18.1118 0.834487 18.1017 0.573509C18.0916 0.312522 17.8717 0.109094 17.6107 0.11922L0.755925 0.772684C0.494937 0.782697 0.291509 1.00251 0.301635 1.26362C0.31171 1.52461 0.531527 1.72792 0.792515 1.71779" fill="#BDC3DC"/>
</g>
</g>
<g opacity="0.61261">
<mask id="mask69_0_24477" style="mask-type:luminance" maskUnits="userSpaceOnUse" x="0" y="0" width="19" height="2">
<path fill-rule="evenodd" clip-rule="evenodd" d="M0.305277 0.119921H18.0922V1.71327H0.305277V0.119921Z" fill="white"/>
</mask>
<g mask="url(#mask69_0_24477)">
<path fill-rule="evenodd" clip-rule="evenodd" d="M0.793575 1.71286L17.6403 1.05977C17.8997 1.04963 18.1019 0.831064 18.0918 0.571696C18.0817 0.312337 17.8633 0.11015 17.6039 0.120286L0.75717 0.773248C0.497689 0.783385 0.295562 1.00183 0.305638 1.26119C0.315713 1.52067 0.534156 1.72285 0.793575 1.71284" fill="#BCC2DB"/>
</g>
</g>
<g opacity="0.621628">
<mask id="mask70_0_24477" style="mask-type:luminance" maskUnits="userSpaceOnUse" x="0" y="0" width="19" height="2">
<path fill-rule="evenodd" clip-rule="evenodd" d="M0.310782 0.121923H18.0838V1.70925H0.310782V0.121923Z" fill="white"/>
</mask>
<g mask="url(#mask70_0_24477)">
<path fill-rule="evenodd" clip-rule="evenodd" d="M0.796074 1.70884L17.6347 1.056C17.8926 1.04599 18.0934 0.828918 18.0834 0.571066C18.0735 0.313205 17.8564 0.112278 17.5985 0.122281L0.759864 0.77512C0.502002 0.785 0.301136 1.0022 0.31114 1.26005C0.321081 1.51792 0.538284 1.71884 0.796074 1.70884Z" fill="#BBC1DB"/>
</g>
</g>
<g opacity="0.63063">
<mask id="mask71_0_24477" style="mask-type:luminance" maskUnits="userSpaceOnUse" x="0" y="0" width="19" height="2">
<path fill-rule="evenodd" clip-rule="evenodd" d="M0.314785 0.123987H18.0741V1.70506H0.314785V0.123987Z" fill="white"/>
</mask>
<g mask="url(#mask71_0_24477)">
<path fill-rule="evenodd" clip-rule="evenodd" d="M0.797083 1.70477L17.6276 1.0523C17.8839 1.04242 18.0836 0.8266 18.0737 0.570368C18.0637 0.314012 17.848 0.114459 17.5917 0.124339L0.761108 0.776809C0.504876 0.786689 0.305199 1.00251 0.315141 1.25874C0.325083 1.5151 0.540841 1.71478 0.797073 1.70477" fill="#BAC1DA"/>
</g>
</g>
<g opacity="0.639633">
<mask id="mask72_0_24477" style="mask-type:luminance" maskUnits="userSpaceOnUse" x="0" y="0" width="19" height="2">
<path fill-rule="evenodd" clip-rule="evenodd" d="M0.318789 0.126052H18.0641V1.70134H0.318789V0.126052Z" fill="white"/>
</mask>
<g mask="url(#mask72_0_24477)">
<path fill-rule="evenodd" clip-rule="evenodd" d="M0.798144 1.70084L17.6206 1.04863C17.8752 1.03875 18.0737 0.8243 18.0638 0.569687C18.054 0.314951 17.8395 0.116525 17.5848 0.126405L0.762353 0.778619C0.507689 0.788499 0.309253 1.00282 0.319143 1.25756C0.328962 1.51229 0.543469 1.71072 0.798144 1.70084Z" fill="#B9C0DA"/>
</g>
</g>
<g opacity="0.648651">
<mask id="mask73_0_24477" style="mask-type:luminance" maskUnits="userSpaceOnUse" x="0" y="0" width="19" height="2">
<path fill-rule="evenodd" clip-rule="evenodd" d="M0.323793 0.127053H18.0555V1.69609H0.323793V0.127053Z" fill="white"/>
</mask>
<g mask="url(#mask73_0_24477)">
<path fill-rule="evenodd" clip-rule="evenodd" d="M0.800142 1.69571L17.6145 1.04387C17.8676 1.03399 18.0648 0.820916 18.055 0.56781C18.0452 0.314704 17.8321 0.117528 17.579 0.127408L0.764608 0.77912C0.511502 0.789 0.314326 1.00207 0.324145 1.25518C0.333902 1.50828 0.547036 1.70546 0.800142 1.6957" fill="#B8BFD9"/>
</g>
</g>
<g opacity="0.657654">
<mask id="mask74_0_24477" style="mask-type:luminance" maskUnits="userSpaceOnUse" x="0" y="0" width="19" height="2">
<path fill-rule="evenodd" clip-rule="evenodd" d="M0.328298 0.129117H18.046V1.69213H0.328298V0.129117Z" fill="white"/>
</mask>
<g mask="url(#mask74_0_24477)">
<path fill-rule="evenodd" clip-rule="evenodd" d="M0.801641 1.69176L17.608 1.04017C17.8594 1.03041 18.0554 0.818721 18.0456 0.567235C18.0359 0.315635 17.8241 0.119699 17.5726 0.129467L0.766353 0.780932C0.514815 0.790689 0.318889 1.00251 0.328647 1.25399C0.338404 1.50559 0.550165 1.70152 0.801641 1.69176Z" fill="#B7BED9"/>
</g>
</g>
<g opacity="0.666672">
<mask id="mask75_0_24477" style="mask-type:luminance" maskUnits="userSpaceOnUse" x="0" y="0" width="19" height="2">
<path fill-rule="evenodd" clip-rule="evenodd" d="M0.333302 0.131181H18.0371V1.68794H0.333302V0.131181Z" fill="white"/>
</mask>
<g mask="url(#mask75_0_24477)">
<path fill-rule="evenodd" clip-rule="evenodd" d="M0.80364 1.68769L17.6019 1.03647C17.8518 1.02684 18.0465 0.816279 18.0368 0.566422C18.0271 0.316575 17.8167 0.12189 17.5668 0.131524L0.768547 0.782743C0.5187 0.792501 0.323953 1.00294 0.333649 1.2528C0.343283 1.50264 0.553722 1.69733 0.80364 1.68769Z" fill="#B6BDD8"/>
</g>
</g>
<g opacity="0.675674">
<mask id="mask76_0_24477" style="mask-type:luminance" maskUnits="userSpaceOnUse" x="0" y="0" width="19" height="2">
<path fill-rule="evenodd" clip-rule="evenodd" d="M0.337306 0.133246H18.0274V1.68422H0.337306V0.133246Z" fill="white"/>
</mask>
<g mask="url(#mask76_0_24477)">
<path fill-rule="evenodd" clip-rule="evenodd" d="M0.804628 1.68362L17.5948 1.03266C17.8431 1.02315 18.0366 0.813959 18.027 0.565731C18.0174 0.317381 17.8083 0.123956 17.5599 0.133591L0.769791 0.784431C0.521502 0.794065 0.328016 1.00313 0.33765 1.25148C0.347285 1.49983 0.55635 1.69326 0.804639 1.68362" fill="#B5BCD8"/>
</g>
</g>
<g opacity="0.684677">
<mask id="mask77_0_24477" style="mask-type:luminance" maskUnits="userSpaceOnUse" x="0" y="0" width="19" height="2">
<path fill-rule="evenodd" clip-rule="evenodd" d="M0.34231 0.134247H18.0184V1.67896H0.34231V0.134247Z" fill="white"/>
</mask>
<g mask="url(#mask77_0_24477)">
<path fill-rule="evenodd" clip-rule="evenodd" d="M0.806699 1.67863L17.5888 1.02803C17.8355 1.0184 18.0277 0.810708 18.0182 0.563987C18.0087 0.317266 17.8008 0.124969 17.5541 0.134593L0.772046 0.785187C0.525325 0.794698 0.333089 1.00251 0.342652 1.24923C0.352225 1.49595 0.559978 1.68813 0.806699 1.67863Z" fill="#B4BBD7"/>
</g>
</g>
<g opacity="0.693695">
<mask id="mask78_0_24477" style="mask-type:luminance" maskUnits="userSpaceOnUse" x="0" y="0" width="19" height="2">
<path fill-rule="evenodd" clip-rule="evenodd" d="M0.346314 0.136311H18.0087V1.67501H0.346314V0.136311Z" fill="white"/>
</mask>
<g mask="url(#mask78_0_24477)">
<path fill-rule="evenodd" clip-rule="evenodd" d="M0.807698 1.67455L17.5817 1.02433C17.8268 1.01482 18.0178 0.80839 18.0083 0.563288C17.9988 0.318064 17.7923 0.12714 17.5472 0.136652L0.773291 0.786989C0.528128 0.796501 0.337143 1.00293 0.346654 1.24791C0.356166 1.49313 0.562535 1.68406 0.807698 1.67455Z" fill="#B3BAD7"/>
</g>
</g>
<g opacity="0.702698">
<mask id="mask79_0_24477" style="mask-type:luminance" maskUnits="userSpaceOnUse" x="0" y="0" width="19" height="2">
<path fill-rule="evenodd" clip-rule="evenodd" d="M0.351819 0.138375H18.0003V1.67081H0.351819V0.138375Z" fill="white"/>
</mask>
<g mask="url(#mask79_0_24477)">
<path fill-rule="evenodd" clip-rule="evenodd" d="M0.810202 1.6706L17.5761 1.02063C17.8196 1.01124 18.0094 0.806061 18 0.562589C17.9905 0.319117 17.7855 0.129321 17.5419 0.138709L0.77598 0.788678C0.532446 0.798189 0.34265 1.00325 0.352161 1.24672C0.36155 1.49031 0.566669 1.68011 0.810202 1.6706Z" fill="#B2B9D6"/>
</g>
</g>
<g opacity="0.711716">
<mask id="mask80_0_24477" style="mask-type:luminance" maskUnits="userSpaceOnUse" x="0" y="0" width="18" height="2">
<path fill-rule="evenodd" clip-rule="evenodd" d="M0.355822 0.140377H17.9906V1.66704H0.355822V0.140377Z" fill="white"/>
</mask>
<g mask="url(#mask80_0_24477)">
<path fill-rule="evenodd" clip-rule="evenodd" d="M0.811195 1.66647L17.5691 1.01688C17.811 1.00749 17.9995 0.803811 17.9901 0.561845C17.9808 0.31988 17.7771 0.131334 17.5351 0.140712L0.777291 0.790302C0.535325 0.799813 0.34678 1.0035 0.356158 1.24546C0.365546 1.4873 0.569292 1.67585 0.811195 1.66647Z" fill="#B1B9D6"/>
</g>
</g>
<g opacity="0.720718">
<mask id="mask81_0_24477" style="mask-type:luminance" maskUnits="userSpaceOnUse" x="0" y="0" width="18" height="2">
<path fill-rule="evenodd" clip-rule="evenodd" d="M0.359826 0.141441H17.9807V1.66184H0.359826V0.141441Z" fill="white"/>
</mask>
<g mask="url(#mask81_0_24477)">
<path fill-rule="evenodd" clip-rule="evenodd" d="M0.812252 1.66164L17.562 1.0123C17.8023 1.00292 17.9896 0.800615 17.9804 0.560146C17.971 0.3198 17.7686 0.132505 17.5283 0.14177L0.77847 0.791104C0.538124 0.800492 0.35089 1.00293 0.360156 1.24326C0.369472 1.48373 0.571844 1.6709 0.812252 1.66164Z" fill="#B0B8D5"/>
</g>
</g>
<g opacity="0.729736">
<mask id="mask82_0_24477" style="mask-type:luminance" maskUnits="userSpaceOnUse" x="0" y="0" width="18" height="2">
<path fill-rule="evenodd" clip-rule="evenodd" d="M0.364831 0.143505H17.9717V1.65789H0.364831V0.143505Z" fill="white"/>
</mask>
<g mask="url(#mask82_0_24477)">
<path fill-rule="evenodd" clip-rule="evenodd" d="M0.81425 1.65758L17.5559 1.0085C17.7947 0.999242 17.9807 0.798181 17.9715 0.559465C17.9623 0.320626 17.7612 0.134581 17.5224 0.143836L0.780725 0.792923C0.541947 0.802178 0.355964 1.00324 0.365157 1.24195C0.374412 1.48067 0.575473 1.66684 0.81425 1.65758Z" fill="#AFB7D5"/>
</g>
</g>
<g opacity="0.738739">
<mask id="mask83_0_24477" style="mask-type:luminance" maskUnits="userSpaceOnUse" x="0" y="0" width="18" height="2">
<path fill-rule="evenodd" clip-rule="evenodd" d="M0.368834 0.145507H17.962V1.65363H0.368834V0.145507Z" fill="white"/>
</mask>
<g mask="url(#mask83_0_24477)">
<path fill-rule="evenodd" clip-rule="evenodd" d="M0.815257 1.65344L17.5489 1.00473C17.786 0.9956 17.9708 0.795913 17.9616 0.558703C17.9525 0.321484 17.7527 0.136699 17.5156 0.145831L0.781916 0.794673C0.544768 0.803805 0.359912 1.00349 0.369167 1.2407C0.378299 1.47792 0.578109 1.66271 0.815257 1.65345" fill="#AEB6D4"/>
</g>
</g>
<g opacity="0.747742">
<mask id="mask84_0_24477" style="mask-type:luminance" maskUnits="userSpaceOnUse" x="0" y="0" width="18" height="2">
<path fill-rule="evenodd" clip-rule="evenodd" d="M0.374339 0.147571H17.9536V1.64967H0.374339V0.147571Z" fill="white"/>
</mask>
<g mask="url(#mask84_0_24477)">
<path fill-rule="evenodd" clip-rule="evenodd" d="M0.817814 1.6495L17.5433 1.00116C17.7789 0.991908 17.9625 0.793471 17.9533 0.558014C17.9442 0.322424 17.7458 0.13888 17.5102 0.147889L0.784729 0.796351C0.549139 0.805484 0.365534 1.00391 0.374666 1.2395C0.383798 1.47509 0.582224 1.65863 0.817814 1.64949" fill="#ADB5D4"/>
</g>
</g>
<g opacity="0.75676">
<mask id="mask85_0_24477" style="mask-type:luminance" maskUnits="userSpaceOnUse" x="0" y="0" width="18" height="2">
<path fill-rule="evenodd" clip-rule="evenodd" d="M0.378343 0.149636H17.9439V1.64572H0.378343V0.149636Z" fill="white"/>
</mask>
<g mask="url(#mask85_0_24477)">
<path fill-rule="evenodd" clip-rule="evenodd" d="M0.818751 1.64544L17.5361 0.997355C17.7702 0.988223 17.9525 0.79117 17.9434 0.557209C17.9344 0.323249 17.7373 0.140832 17.5033 0.149964L0.785912 0.798047C0.55189 0.807056 0.369597 1.00411 0.378667 1.23819C0.387676 1.47215 0.584791 1.65445 0.818751 1.64544Z" fill="#ACB4D3"/>
</g>
</g>
<g opacity="0.765762">
<mask id="mask86_0_24477" style="mask-type:luminance" maskUnits="userSpaceOnUse" x="0" y="0" width="18" height="2">
<path fill-rule="evenodd" clip-rule="evenodd" d="M0.383347 0.150637H17.9349V1.6407H0.383347V0.150637Z" fill="white"/>
</mask>
<g mask="url(#mask86_0_24477)">
<path fill-rule="evenodd" clip-rule="evenodd" d="M0.820812 1.64043L17.5301 0.992589C17.7625 0.98358 17.9436 0.787901 17.9346 0.555447C17.9256 0.322983 17.7299 0.14195 17.4976 0.150959L0.788158 0.798673C0.555755 0.807682 0.37466 1.00348 0.383669 1.23582C0.392679 1.46828 0.58842 1.64931 0.820812 1.64044" fill="#ABB3D3"/>
</g>
</g>
<g opacity="0.77478">
<mask id="mask87_0_24477" style="mask-type:luminance" maskUnits="userSpaceOnUse" x="0" y="0" width="18" height="2">
<path fill-rule="evenodd" clip-rule="evenodd" d="M0.387351 0.152701H17.9252V1.63675H0.387351V0.152701Z" fill="white"/>
</mask>
<g mask="url(#mask87_0_24477)">
<path fill-rule="evenodd" clip-rule="evenodd" d="M0.821815 1.63635L17.5231 0.98902C17.7539 0.980011 17.9338 0.785582 17.9248 0.554881C17.9159 0.324046 17.7215 0.14413 17.4907 0.153016L0.789416 0.800607C0.558582 0.809494 0.378666 1.00391 0.387675 1.23475C0.396623 1.46546 0.59098 1.64536 0.821815 1.63637" fill="#AAB2D2"/>
</g>
</g>
<g opacity="0.783783">
<mask id="mask88_0_24477" style="mask-type:luminance" maskUnits="userSpaceOnUse" x="0" y="0" width="18" height="2">
<path fill-rule="evenodd" clip-rule="evenodd" d="M0.392856 0.154765H17.9168V1.63255H0.392856V0.154765Z" fill="white"/>
</mask>
<g mask="url(#mask88_0_24477)">
<path fill-rule="evenodd" clip-rule="evenodd" d="M0.82431 1.63242L17.5175 0.985204C17.7468 0.976317 17.9254 0.783395 17.9165 0.554067C17.9076 0.324862 17.7146 0.146197 17.4853 0.155083L0.792158 0.802295C0.562953 0.811181 0.384288 1.00423 0.393174 1.23343C0.40206 1.46264 0.595105 1.6413 0.82431 1.63242Z" fill="#A9B1D2"/>
</g>
</g>
<g opacity="0.792786">
<mask id="mask89_0_24477" style="mask-type:luminance" maskUnits="userSpaceOnUse" x="0" y="0" width="18" height="2">
<path fill-rule="evenodd" clip-rule="evenodd" d="M0.39686 0.155766H17.9069V1.62777H0.39686V0.155766Z" fill="white"/>
</mask>
<g mask="url(#mask89_0_24477)">
<path fill-rule="evenodd" clip-rule="evenodd" d="M0.825318 1.62728L17.5104 0.980315C17.7381 0.971562 17.9155 0.77988 17.9067 0.552182C17.8978 0.324596 17.7061 0.147314 17.4785 0.156078L0.793412 0.80291C0.565704 0.811663 0.38836 1.00335 0.397174 1.23104C0.405999 1.45875 0.597733 1.63616 0.825308 1.62728" fill="#A8B1D1"/>
</g>
</g>
<g opacity="0.801804">
<mask id="mask90_0_24477" style="mask-type:luminance" maskUnits="userSpaceOnUse" x="0" y="0" width="18" height="2">
<path fill-rule="evenodd" clip-rule="evenodd" d="M0.400863 0.157831H17.8972V1.62358H0.400863V0.157831Z" fill="white"/>
</mask>
<g mask="url(#mask90_0_24477)">
<path fill-rule="evenodd" clip-rule="evenodd" d="M0.826379 1.62334L17.5034 0.976754C17.7294 0.968002 17.9056 0.777703 17.8968 0.551624C17.8881 0.325545 17.6977 0.149381 17.4716 0.158144L0.794657 0.80473C0.568578 0.813483 0.392413 1.00378 0.401177 1.22986C0.410001 1.45594 0.600289 1.6321 0.826379 1.62334Z" fill="#A7B0D0"/>
</g>
</g>
<g opacity="0.810806">
<mask id="mask91_0_24477" style="mask-type:luminance" maskUnits="userSpaceOnUse" x="0" y="0" width="18" height="2">
<path fill-rule="evenodd" clip-rule="evenodd" d="M0.405868 0.159895H17.8882V1.61962H0.405868V0.159895Z" fill="white"/>
</mask>
<g mask="url(#mask91_0_24477)">
<path fill-rule="evenodd" clip-rule="evenodd" d="M0.828372 1.61916L17.4972 0.972948C17.7217 0.964195 17.8967 0.77527 17.888 0.550811C17.8792 0.326362 17.6902 0.151447 17.4658 0.16021L0.796845 0.806295C0.572324 0.815048 0.39742 1.0041 0.406183 1.22856C0.414875 1.453 0.603861 1.6278 0.828382 1.61916" fill="#A6AFD0"/>
</g>
</g>
<g opacity="0.819824">
<mask id="mask92_0_24477" style="mask-type:luminance" maskUnits="userSpaceOnUse" x="0" y="0" width="18" height="2">
<path fill-rule="evenodd" clip-rule="evenodd" d="M0.409871 0.161897H17.8785V1.61536H0.409871V0.161897Z" fill="white"/>
</mask>
<g mask="url(#mask92_0_24477)">
<path fill-rule="evenodd" clip-rule="evenodd" d="M0.829376 1.61527L17.4902 0.969307C17.7131 0.960677 17.8868 0.773003 17.8781 0.550173C17.8695 0.327343 17.6818 0.153689 17.4589 0.162196L0.798095 0.808158C0.575203 0.816788 0.40155 1.00446 0.41018 1.22742C0.41881 1.45024 0.606484 1.6239 0.829376 1.61527Z" fill="#A5AECF"/>
</g>
</g>
<g opacity="0.828827">
<mask id="mask93_0_24477" style="mask-type:luminance" maskUnits="userSpaceOnUse" x="0" y="0" width="18" height="2">
<path fill-rule="evenodd" clip-rule="evenodd" d="M0.415376 0.16296H17.8701V1.61065H0.415376V0.16296Z" fill="white"/>
</mask>
<g mask="url(#mask93_0_24477)">
<path fill-rule="evenodd" clip-rule="evenodd" d="M0.831937 1.61008L17.4847 0.964622C17.706 0.955992 17.8784 0.769691 17.8698 0.548368C17.8612 0.327045 17.6749 0.154631 17.4536 0.163271L0.800841 0.808853C0.579579 0.81736 0.407104 1.00378 0.415683 1.22498C0.424251 1.44631 0.610614 1.61872 0.831937 1.61008Z" fill="#A4ADCF"/>
</g>
</g>
<g opacity="0.837845">
<mask id="mask94_0_24477" style="mask-type:luminance" maskUnits="userSpaceOnUse" x="0" y="0" width="18" height="2">
<path fill-rule="evenodd" clip-rule="evenodd" d="M0.41938 0.165025H17.8602V1.60645H0.41938V0.165025Z" fill="white"/>
</mask>
<g mask="url(#mask94_0_24477)">
<path fill-rule="evenodd" clip-rule="evenodd" d="M0.832935 1.60614L17.4776 0.960806C17.6973 0.9523 17.8685 0.767382 17.86 0.547678C17.8514 0.327974 17.6664 0.156822 17.4467 0.165328L0.802095 0.810665C0.58233 0.819049 0.411177 1.00409 0.419684 1.22379C0.428191 1.4435 0.613231 1.61465 0.832935 1.60614Z" fill="#A3ACCE"/>
</g>
</g>
<g opacity="0.846848">
<mask id="mask95_0_24477" style="mask-type:luminance" maskUnits="userSpaceOnUse" x="0" y="0" width="18" height="2">
<path fill-rule="evenodd" clip-rule="evenodd" d="M0.424385 0.167026H17.8514V1.60244H0.424385V0.167026Z" fill="white"/>
</mask>
<g mask="url(#mask95_0_24477)">
<path fill-rule="evenodd" clip-rule="evenodd" d="M0.834934 1.60212L17.4716 0.957287C17.6896 0.948781 17.8596 0.765113 17.8512 0.547039C17.8427 0.328965 17.659 0.15894 17.4409 0.167324L0.80434 0.812404C0.586205 0.820787 0.416241 1.00445 0.424686 1.22253C0.433132 1.44073 0.616799 1.61063 0.834934 1.60212Z" fill="#A2ABCE"/>
</g>
</g>
<g opacity="0.85585">
<mask id="mask96_0_24477" style="mask-type:luminance" maskUnits="userSpaceOnUse" x="0" y="0" width="18" height="2">
<path fill-rule="evenodd" clip-rule="evenodd" d="M0.428388 0.169091H17.8415V1.59824H0.428388V0.169091Z" fill="white"/>
</mask>
<g mask="url(#mask96_0_24477)">
<path fill-rule="evenodd" clip-rule="evenodd" d="M0.835932 1.59819L17.4644 0.95348C17.6809 0.945096 17.8497 0.76268 17.8413 0.546235C17.8329 0.329791 17.6505 0.161016 17.434 0.169389L0.805533 0.8141C0.589027 0.822484 0.420313 1.00478 0.428687 1.22135C0.437071 1.43779 0.619426 1.60657 0.835932 1.59819Z" fill="#A1AACD"/>
</g>
</g>
<g opacity="0.864868">
<mask id="mask97_0_24477" style="mask-type:luminance" maskUnits="userSpaceOnUse" x="0" y="0" width="18" height="2">
<path fill-rule="evenodd" clip-rule="evenodd" d="M0.433393 0.170154H17.8328V1.59353H0.433393V0.170154Z" fill="white"/>
</mask>
<g mask="url(#mask97_0_24477)">
<path fill-rule="evenodd" clip-rule="evenodd" d="M0.837932 1.593L17.4584 0.948672C17.6733 0.940411 17.8408 0.759378 17.8325 0.544553C17.8241 0.329605 17.6431 0.161957 17.4282 0.170464L0.807779 0.814673C0.592831 0.823057 0.425368 1.00409 0.43369 1.21892C0.442012 1.43386 0.622984 1.60139 0.837932 1.593Z" fill="#A0A9CD"/>
</g>
</g>
<g opacity="0.873871">
<mask id="mask98_0_24477" style="mask-type:luminance" maskUnits="userSpaceOnUse" x="0" y="0" width="18" height="2">
<path fill-rule="evenodd" clip-rule="evenodd" d="M0.437897 0.172156H17.8234V1.58927H0.437897V0.172156Z" fill="white"/>
</mask>
<g mask="url(#mask98_0_24477)">
<path fill-rule="evenodd" clip-rule="evenodd" d="M0.839431 1.58911L17.4518 0.945022C17.6651 0.936761 17.8313 0.757224 17.8231 0.543783C17.8148 0.330464 17.6351 0.16419 17.4218 0.172451L0.809462 0.816537C0.596144 0.824798 0.429931 1.00446 0.438192 1.2179C0.446453 1.43109 0.626113 1.59737 0.839431 1.58911Z" fill="#9FA8CC"/>
</g>
</g>
<g opacity="0.882889">
<mask id="mask99_0_24477" style="mask-type:luminance" maskUnits="userSpaceOnUse" x="0" y="0" width="18" height="2">
<path fill-rule="evenodd" clip-rule="evenodd" d="M0.4419 0.17422H17.8137V1.58531H0.4419V0.17422Z" fill="white"/>
</mask>
<g mask="url(#mask99_0_24477)">
<path fill-rule="evenodd" clip-rule="evenodd" d="M0.840433 1.58504L17.4447 0.941338C17.6565 0.933077 17.8214 0.75479 17.8133 0.542979C17.8051 0.33129 17.6268 0.166266 17.415 0.174517L0.81072 0.818223C0.59897 0.826351 0.433946 1.00464 0.442197 1.21646C0.450396 1.42828 0.628683 1.59317 0.840433 1.58504Z" fill="#9EA8CC"/>
</g>
</g>
<g opacity="0.891891">
<mask id="mask100_0_24477" style="mask-type:luminance" maskUnits="userSpaceOnUse" x="0" y="0" width="18" height="2">
<path fill-rule="evenodd" clip-rule="evenodd" d="M0.446905 0.176285H17.8047V1.58112H0.446905V0.176285Z" fill="white"/>
</mask>
<g mask="url(#mask100_0_24477)">
<path fill-rule="evenodd" clip-rule="evenodd" d="M0.842476 1.58098L17.4387 0.937645C17.6488 0.929517 17.8126 0.752481 17.8045 0.542412C17.7963 0.332219 17.6194 0.168323 17.4092 0.176584L0.813019 0.819921C0.602827 0.828182 0.439115 1.00509 0.447191 1.21528C0.455391 1.42535 0.632355 1.58912 0.842486 1.58098" fill="#9DA7CB"/>
</g>
</g>
<g opacity="0.900894">
<mask id="mask101_0_24477" style="mask-type:luminance" maskUnits="userSpaceOnUse" x="0" y="0" width="18" height="2">
<path fill-rule="evenodd" clip-rule="evenodd" d="M0.450909 0.177286H17.7948V1.57634H0.450909V0.177286Z" fill="white"/>
</mask>
<g mask="url(#mask101_0_24477)">
<path fill-rule="evenodd" clip-rule="evenodd" d="M0.843431 1.57596L17.4316 0.93288C17.6401 0.924875 17.8027 0.749213 17.7946 0.54065C17.7865 0.332087 17.6109 0.169564 17.4023 0.177569L0.814159 0.82065C0.605657 0.828778 0.443073 1.00444 0.451201 1.213C0.459267 1.42157 0.634868 1.58409 0.843431 1.57596Z" fill="#9CA6CB"/>
</g>
</g>
<g opacity="0.909912">
<mask id="mask102_0_24477" style="mask-type:luminance" maskUnits="userSpaceOnUse" x="0" y="0" width="18" height="2">
<path fill-rule="evenodd" clip-rule="evenodd" d="M0.456414 0.17935H17.7866V1.57215H0.456414V0.17935Z" fill="white"/>
</mask>
<g mask="url(#mask102_0_24477)">
<path fill-rule="evenodd" clip-rule="evenodd" d="M0.846049 1.57202L17.4261 0.929187C17.633 0.921182 17.7943 0.746893 17.7863 0.539837C17.7783 0.332903 17.604 0.171631 17.3971 0.179636L0.816962 0.822471C0.609957 0.830476 0.448694 1.00476 0.456699 1.2117C0.464765 1.41863 0.639055 1.58004 0.846049 1.57202Z" fill="#9BA5CA"/>
</g>
</g>
<g opacity="0.918915">
<mask id="mask103_0_24477" style="mask-type:luminance" maskUnits="userSpaceOnUse" x="0" y="0" width="18" height="2">
<path fill-rule="evenodd" clip-rule="evenodd" d="M0.460417 0.181414H17.7766V1.56819H0.460417V0.181414Z" fill="white"/>
</mask>
<g mask="url(#mask103_0_24477)">
<path fill-rule="evenodd" clip-rule="evenodd" d="M0.847001 1.56796L17.419 0.925503C17.6243 0.917621 17.7844 0.744593 17.7764 0.539279C17.7685 0.333842 17.5955 0.173697 17.3902 0.181702L0.818149 0.824158C0.612774 0.832163 0.452691 1.00507 0.460706 1.2105C0.468649 1.41582 0.641616 1.57596 0.846991 1.56795" fill="#9AA4CA"/>
</g>
</g>
<g opacity="0.927933">
<mask id="mask104_0_24477" style="mask-type:luminance" maskUnits="userSpaceOnUse" x="0" y="0" width="18" height="2">
<path fill-rule="evenodd" clip-rule="evenodd" d="M0.465422 0.183479H17.7679V1.56424H0.465422V0.183479Z" fill="white"/>
</mask>
<g mask="url(#mask104_0_24477)">
<path fill-rule="evenodd" clip-rule="evenodd" d="M0.848985 1.5639L17.4129 0.921686C17.6167 0.913805 17.7755 0.742273 17.7676 0.538343C17.7596 0.334658 17.5881 0.175764 17.3843 0.183768L0.8204 0.825845C0.616593 0.833727 0.457821 1.00538 0.465703 1.20919C0.473585 1.413 0.645178 1.57177 0.848985 1.56389" fill="#99A3C9"/>
</g>
</g>
<g opacity="0.936935">
<mask id="mask105_0_24477" style="mask-type:luminance" maskUnits="userSpaceOnUse" x="0" y="0" width="18" height="2">
<path fill-rule="evenodd" clip-rule="evenodd" d="M0.469425 0.185481H17.758V1.56022H0.469425V0.185481Z" fill="white"/>
</mask>
<g mask="url(#mask105_0_24477)">
<path fill-rule="evenodd" clip-rule="evenodd" d="M0.85005 1.56L17.4058 0.918169C17.6081 0.910287 17.7656 0.740005 17.7577 0.537828C17.7499 0.33564 17.5796 0.178006 17.3774 0.185754L0.821649 0.827708C0.6194 0.83559 0.461827 1.00575 0.469709 1.20793C0.477529 1.41024 0.647811 1.56775 0.85005 1.56Z" fill="#98A2C9"/>
</g>
</g>
<g opacity="0.945953">
<mask id="mask106_0_24477" style="mask-type:luminance" maskUnits="userSpaceOnUse" x="0" y="0" width="18" height="2">
<path fill-rule="evenodd" clip-rule="evenodd" d="M0.47443 0.186544H17.7493V1.55527H0.47443V0.186544Z" fill="white"/>
</mask>
<g mask="url(#mask106_0_24477)">
<path fill-rule="evenodd" clip-rule="evenodd" d="M0.852106 1.55494L17.3998 0.913485C17.6004 0.905603 17.7567 0.736695 17.749 0.536014C17.7412 0.335456 17.5722 0.179062 17.3716 0.186821L0.8239 0.828406C0.62328 0.836164 0.466948 1.00506 0.474707 1.20574C0.482527 1.4063 0.651497 1.5627 0.852116 1.55494" fill="#97A1C8"/>
</g>
</g>
<g opacity="0.954956">
<mask id="mask107_0_24477" style="mask-type:luminance" maskUnits="userSpaceOnUse" x="0" y="0" width="18" height="2">
<path fill-rule="evenodd" clip-rule="evenodd" d="M0.478934 0.188546H17.7399V1.55101H0.478934V0.188546Z" fill="white"/>
</mask>
<g mask="url(#mask107_0_24477)">
<path fill-rule="evenodd" clip-rule="evenodd" d="M0.853548 1.5508L17.3932 0.909596C17.5922 0.901837 17.7473 0.734312 17.7396 0.535261C17.7318 0.336209 17.5643 0.181066 17.3653 0.188825L0.825588 0.83003C0.626598 0.837789 0.471454 1.00531 0.479213 1.20437C0.48691 1.40342 0.654496 1.55856 0.853548 1.5508Z" fill="#96A0C8"/>
</g>
</g>
<g opacity="0.963959">
<mask id="mask108_0_24477" style="mask-type:luminance" maskUnits="userSpaceOnUse" x="0" y="0" width="18" height="2">
<path fill-rule="evenodd" clip-rule="evenodd" d="M0.482938 0.19061H17.7299V1.54705H0.482938V0.19061Z" fill="white"/>
</mask>
<g mask="url(#mask108_0_24477)">
<path fill-rule="evenodd" clip-rule="evenodd" d="M0.854602 1.54673L17.3862 0.905903C17.5836 0.898267 17.7375 0.731993 17.7298 0.534571C17.7221 0.337139 17.5559 0.183256 17.3584 0.190882L0.826899 0.831842C0.629467 0.839477 0.475584 1.00575 0.483209 1.20317C0.490906 1.40061 0.657119 1.55449 0.854613 1.54674" fill="#95A0C7"/>
</g>
</g>
<g opacity="0.972977">
<mask id="mask109_0_24477" style="mask-type:luminance" maskUnits="userSpaceOnUse" x="0" y="0" width="18" height="2">
<path fill-rule="evenodd" clip-rule="evenodd" d="M0.487942 0.192675H17.7212V1.5431H0.487942V0.192675Z" fill="white"/>
</mask>
<g mask="url(#mask109_0_24477)">
<path fill-rule="evenodd" clip-rule="evenodd" d="M0.856556 1.54278L17.38 0.902202C17.5759 0.894566 17.7285 0.729675 17.721 0.533873C17.7133 0.337948 17.5484 0.185428 17.3525 0.192941L0.829087 0.833521C0.633224 0.841157 0.480581 1.00618 0.488217 1.20198C0.495791 1.39779 0.660743 1.55043 0.856556 1.54279" fill="#949FC7"/>
</g>
</g>
<g opacity="0.981979">
<mask id="mask110_0_24477" style="mask-type:luminance" maskUnits="userSpaceOnUse" x="0" y="0" width="18" height="2">
<path fill-rule="evenodd" clip-rule="evenodd" d="M0.491946 0.193676H17.7113V1.53808H0.491946V0.193676Z" fill="white"/>
</mask>
<g mask="url(#mask110_0_24477)">
<path fill-rule="evenodd" clip-rule="evenodd" d="M0.857554 1.53779L17.373 0.897455C17.5672 0.889952 17.7186 0.726302 17.7111 0.531996C17.7036 0.337823 17.54 0.186431 17.3457 0.193943L0.83027 0.834145C0.636036 0.841781 0.484644 1.0053 0.492218 1.1996C0.499721 1.39391 0.663309 1.54529 0.857554 1.53779Z" fill="#939EC6"/>
</g>
</g>
<g opacity="0.990997">
<mask id="mask111_0_24477" style="mask-type:luminance" maskUnits="userSpaceOnUse" x="0" y="0" width="18" height="2">
<path fill-rule="evenodd" clip-rule="evenodd" d="M0.49695 0.19574H17.7026V1.53389H0.49695V0.19574Z" fill="white"/>
</mask>
<g mask="url(#mask111_0_24477)">
<path fill-rule="evenodd" clip-rule="evenodd" d="M0.85961 1.53372L17.3669 0.893762C17.5596 0.88626 17.7097 0.723983 17.7023 0.531306C17.6948 0.33863 17.5325 0.188621 17.3399 0.196001L0.832582 0.835956C0.639906 0.843459 0.489774 1.00574 0.497215 1.19841C0.504718 1.39109 0.666933 1.54122 0.85961 1.53372Z" fill="#929DC6"/>
</g>
</g>
<mask id="mask112_0_24477" style="mask-type:luminance" maskUnits="userSpaceOnUse" x="0" y="0" width="18" height="2">
<path fill-rule="evenodd" clip-rule="evenodd" d="M0.501454 0.197804H17.6932V1.52993H0.501454V0.197804Z" fill="white"/>
</mask>
<g mask="url(#mask112_0_24477)">
<path fill-rule="evenodd" clip-rule="evenodd" d="M0.861171 1.52966L17.3604 0.889955C17.5514 0.882698 17.7003 0.721805 17.6929 0.530625C17.6855 0.339578 17.5246 0.190564 17.3335 0.198076L0.834328 0.837652C0.64322 0.845155 0.494328 1.00606 0.501718 1.19711C0.509159 1.38815 0.670063 1.53704 0.861171 1.52965" fill="#919CC5"/>
</g>
</g>
</g>
</g>
</svg>
