<svg width="300" height="46" viewBox="0 0 300 46" fill="none" xmlns="http://www.w3.org/2000/svg">
<path fill-rule="evenodd" clip-rule="evenodd" d="M85.8817 30.9724C85.5818 29.6478 83.8699 29.0022 83.2785 28.794C82.6287 28.5649 81.704 28.5108 81.1084 28.3775C80.7668 28.3025 80.2712 28.1151 80.1046 27.9151C79.938 27.7152 80.0379 25.8617 80.0379 25.8617C80.0379 25.8617 80.3462 25.3827 80.5128 24.9578C80.6794 24.5372 80.8626 23.3792 80.8626 23.3792C80.8626 23.3792 81.2042 23.3792 81.325 22.7794C81.4541 22.1255 81.6582 21.8714 81.6332 21.3841C81.6082 20.9051 81.3458 20.9176 81.3458 20.9176C81.3458 20.9176 81.5999 20.222 81.629 18.7808C81.6665 17.069 80.3253 15.382 77.897 15.382C75.4354 15.382 74.1234 17.0689 74.1608 18.7808C74.1942 20.222 74.4399 20.9176 74.4399 20.9176C74.4399 20.9176 74.1775 20.9051 74.1525 21.3841C74.1275 21.8714 74.3316 22.1255 74.4607 22.7794C74.5774 23.3792 74.9231 23.3792 74.9231 23.3792C74.9231 23.3792 75.1064 24.5371 75.273 24.9578C75.4396 25.3827 75.7478 25.8617 75.7478 25.8617C75.7478 25.8617 75.8478 27.7152 75.6812 27.9151C75.5145 28.1151 75.0189 28.3025 74.6773 28.3775C74.0817 28.5108 73.157 28.5649 72.5073 28.794C71.9158 29.0022 70.2039 29.6478 69.904 30.9724C69.8582 31.1806 70.0165 31.3764 70.2331 31.3764H85.5568C85.7693 31.3764 85.9275 31.1806 85.8817 30.9724H85.8817Z" fill="#B9C0C6"/>
<g filter="url(#filter0_d_0_4702)">
<path fill-rule="evenodd" clip-rule="evenodd" d="M147.918 46.0001C160.62 46.0001 170.918 35.7026 170.918 23C170.918 10.2975 160.62 0 147.918 0C135.215 0 124.918 10.2975 124.918 23C124.918 35.7026 135.215 46.0001 147.918 46.0001Z" fill="#4DC18D"/>
</g>
<path fill-rule="evenodd" clip-rule="evenodd" d="M8.09375 17.5387C8.03608 17.4925 7.95918 17.4925 7.90151 17.5387L1.90362 22.337C1.86902 22.3677 1.84595 22.41 1.84595 22.4562V31.2992C1.84595 31.3415 1.88055 31.3761 1.92285 31.3761H6.07524C6.11753 31.3761 6.15214 31.3415 6.15214 31.2992V25.9165C6.15214 25.8742 6.18674 25.8396 6.22904 25.8396H9.76625C9.80854 25.8396 9.84315 25.8742 9.84315 25.9165V31.2992C9.84315 31.3415 9.87775 31.3761 9.92005 31.3761H14.0724C14.1147 31.3761 14.1493 31.3415 14.1493 31.2992V22.4562C14.1493 22.41 14.1263 22.3639 14.0917 22.337L8.09375 17.5387Z" fill="#B9C0C6"/>
<path fill-rule="evenodd" clip-rule="evenodd" d="M15.7913 21.3876L8.52462 15.5666C8.37852 15.4474 8.19012 15.382 7.99788 15.382C7.80564 15.382 7.61724 15.4474 7.47114 15.5666L4.30687 18.1388V16.5163C4.30687 16.474 4.27227 16.4394 4.22997 16.4394H1.92308C1.88079 16.4394 1.84618 16.474 1.84618 16.5163V20.0612L0.204452 21.4107C0.0852619 21.5068 0.00837175 21.6491 0.000681744 21.8029C-0.00700827 21.9566 0.0506618 22.1066 0.158322 22.2142C0.258282 22.3142 0.392852 22.3719 0.538952 22.3719C0.661983 22.3719 0.781173 22.3296 0.877293 22.2527L7.94787 16.5624C7.96709 16.547 7.98247 16.547 7.99785 16.547C8.01323 16.547 8.02861 16.5509 8.04783 16.5624L15.1184 22.2296C15.2145 22.3065 15.3337 22.3488 15.4568 22.3488C15.599 22.3488 15.7336 22.295 15.8374 22.1912C15.9489 22.0835 16.0066 21.9336 15.9989 21.7798C15.9873 21.626 15.9143 21.4837 15.7913 21.3876L15.7913 21.3876Z" fill="#B9C0C6"/>
<defs>
<filter id="filter0_d_0_4702" x="104.918" y="-10" width="86.0001" height="86.0001" filterUnits="userSpaceOnUse" color-interpolation-filters="sRGB">
<feFlood flood-opacity="0" result="BackgroundImageFix"/>
<feColorMatrix in="SourceAlpha" type="matrix" values="0 0 0 0 0 0 0 0 0 0 0 0 0 0 0 0 0 0 127 0" result="hardAlpha"/>
<feOffset dy="10"/>
<feGaussianBlur stdDeviation="10"/>
<feColorMatrix type="matrix" values="0 0 0 0 0.333333 0 0 0 0 0.839216 0 0 0 0 0.611765 0 0 0 0.423529 0"/>
<feBlend mode="normal" in2="BackgroundImageFix" result="effect1_dropShadow_0_4702"/>
<feBlend mode="normal" in="SourceGraphic" in2="effect1_dropShadow_0_4702" result="shape"/>
</filter>
</defs>
</svg>
