<svg width="47" height="61" viewBox="0 0 47 61" fill="none" xmlns="http://www.w3.org/2000/svg">
<path fill-rule="evenodd" clip-rule="evenodd" d="M9.53132 8.57872H45.7501V60.0478H9.53132V8.57872Z" fill="white"/>
<path fill-rule="evenodd" clip-rule="evenodd" d="M10.4844 9.53106H44.7971V59.094H10.4844V9.53106ZM8.57775 61.0001H46.7032V7.62442H8.57775V61.0001Z" fill="black"/>
<path fill-rule="evenodd" clip-rule="evenodd" d="M5.71801 4.76541H41.9373V56.235H5.71801V4.76541Z" fill="#4DC18D"/>
<path fill-rule="evenodd" clip-rule="evenodd" d="M42.8903 57.1883H4.76493V3.81258H42.8903V57.1883ZM6.67156 55.2816H40.9843V5.71921H6.67156V55.2816Z" fill="black"/>
<path fill-rule="evenodd" clip-rule="evenodd" d="M0.953572 0.953327V52.4229H38.1257V10.4848L28.5947 0.953327L0.953572 0.953327Z" fill="white"/>
<path fill-rule="evenodd" clip-rule="evenodd" d="M1.90608 1.90664H28.1988L37.1715 10.8788V51.469H1.90608V1.90664ZM0 0V53.3757H39.0782V10.0897L28.9885 0H0Z" fill="black"/>
<mask id="mask0_0_37418" style="mask-type:luminance" maskUnits="userSpaceOnUse" x="0" y="0" width="47" height="62">
<path fill-rule="evenodd" clip-rule="evenodd" d="M0 0H46.703V61.0005H0V0Z" fill="white"/>
</mask>
<g mask="url(#mask0_0_37418)">
<path fill-rule="evenodd" clip-rule="evenodd" d="M28.5935 10.4846V1.03103C28.5935 0.962169 28.6753 0.927177 28.7233 0.97628L37.9681 10.3526C38.016 10.4011 37.9816 10.4846 37.9144 10.4846H28.5935Z" fill="#F7D450"/>
<path fill-rule="evenodd" clip-rule="evenodd" d="M37.9141 11.4382H27.6404V0.39067L28.281 0.0768513C28.6699 -0.0811846 29.109 0.0085594 29.4042 0.308828L39.0921 10.1355L38.8629 10.8066C38.7015 11.1899 38.3295 11.4382 37.9141 11.4382M29.5465 9.53158H35.8201L29.5465 3.16878V9.53158Z" fill="black"/>
<path fill-rule="evenodd" clip-rule="evenodd" d="M9.05453 21.9224H27.1642V23.8284H9.05453V21.9224Z" fill="black"/>
<path fill-rule="evenodd" clip-rule="evenodd" d="M9.05404 14.297H30.9764V16.2036H9.05404V14.297Z" fill="black"/>
<path fill-rule="evenodd" clip-rule="evenodd" d="M30.9759 20.0161H26.2105V18.11H30.9759V20.0161ZM24.3044 20.0161H17.6323V18.11H24.3044V20.0161ZM15.7262 20.0161H9.05355V18.11H15.7262V20.0161Z" fill="black"/>
<path fill-rule="evenodd" clip-rule="evenodd" d="M29.2334 37.1729C29.2334 42.4367 24.9663 46.7044 19.7019 46.7044C14.438 46.7044 10.1709 42.4367 10.1709 37.1729C10.1709 31.9084 14.438 27.6414 19.7019 27.6414C24.9663 27.6414 29.2334 31.9084 29.2334 37.1729Z" fill="#4DC18D"/>
<path fill-rule="evenodd" clip-rule="evenodd" d="M19.7031 47.6563C13.9217 47.6563 9.21884 42.9529 9.21884 37.172C9.21884 31.3906 13.9217 26.6878 19.7031 26.6878C25.484 26.6878 30.1873 31.3906 30.1873 37.172C30.1873 42.9529 25.484 47.6563 19.7031 47.6563ZM19.7031 28.5939C14.9732 28.5939 11.1249 32.4427 11.1249 37.172C11.1249 41.9019 14.9732 45.7502 19.7031 45.7502C24.433 45.7502 28.2813 41.9019 28.2813 37.172C28.2813 32.4427 24.433 28.5939 19.7031 28.5939Z" fill="black"/>
<path fill-rule="evenodd" clip-rule="evenodd" d="M30.0237 32.4066L20.8535 41.5769C20.4815 41.9494 19.8781 41.9494 19.5056 41.5769L14.1481 36.2188L16.8438 33.5236L20.1795 36.8594L27.328 29.7104L30.0237 32.4066Z" fill="white"/>
<path fill-rule="evenodd" clip-rule="evenodd" d="M20.1792 42.8094C19.691 42.8094 19.2027 42.6237 18.8313 42.2517L12.7999 36.2191L16.8434 32.1755L20.1792 35.5113L27.3277 28.3634L28.6755 29.7107L20.1792 38.207L16.8434 34.8712L15.4956 36.2191L20.1792 40.9038L30.0234 31.0591L31.3707 32.4069L21.5265 42.2517C21.1557 42.6237 20.6674 42.8094 20.1792 42.8094" fill="black"/>
<path fill-rule="evenodd" clip-rule="evenodd" d="M17.0085 7.23374C16.3081 7.23374 15.6082 7.13609 15.0499 6.9408L13.6874 6.4633C12.9915 6.21946 11.7255 6.21946 11.029 6.4633L9.667 6.9408C8.54999 7.33194 6.86574 7.33194 5.74874 6.9408L4.84904 6.62585L5.47838 4.82645L6.37807 5.1414C7.07514 5.3858 8.34228 5.38411 9.03653 5.1414L10.3991 4.66446C11.5161 4.27332 13.2009 4.27332 14.3173 4.66446L15.6793 5.1414C16.3752 5.3858 17.6429 5.3858 18.3377 5.1414L20.5994 4.34951L21.2299 6.14835L18.9676 6.9408C18.4094 7.13609 17.709 7.23374 17.0085 7.23374" fill="black"/>
<path fill-rule="evenodd" clip-rule="evenodd" d="M7.70786 11.0463C7.00741 11.0463 6.30751 10.9481 5.7493 10.7528L4.84904 10.4384L5.47838 8.63903L6.37807 8.95398C7.0757 9.19781 8.34284 9.19668 9.03709 8.95398L10.3996 8.47647C11.516 8.08533 13.2009 8.08533 14.3179 8.47647L15.2176 8.79255L14.5871 10.5908L13.6874 10.2759C12.9915 10.032 11.7255 10.032 11.0295 10.2759L9.667 10.7528C9.10877 10.9481 8.40832 11.0463 7.70786 11.0463Z" fill="black"/>
</g>
</svg>
