<svg width="57" height="71" viewBox="0 0 57 71" fill="none" xmlns="http://www.w3.org/2000/svg">
<path fill-rule="evenodd" clip-rule="evenodd" d="M57 28.5C57 44.2402 44.2402 56.9994 28.4993 56.9994C12.7604 56.9994 0 44.2402 0 28.5C0 12.7598 12.7605 0 28.4993 0C44.2402 0 57 12.7598 57 28.5Z" fill="#7AA3D3"/>
<path fill-rule="evenodd" clip-rule="evenodd" d="M43.4304 48.0965C43.4304 48.0965 45.4447 48.6271 47.5606 47.4432C47.5606 47.4432 47.5495 48.4001 47.7626 48.6395C47.9214 48.8166 55.5927 56.0558 55.5927 56.0558L54.0317 58.0976L43.4304 48.2237C43.4304 48.2237 43.3143 48.0728 43.4304 48.0965" fill="white"/>
<path fill-rule="evenodd" clip-rule="evenodd" d="M42.5173 49.1792C42.5173 49.1792 42.9318 51.3135 42.0634 53.3736L43.1417 53.4851L46.1424 56.2058C46.1424 56.2058 43.7438 58.3388 41.9302 59.3593C41.9302 59.3593 41.7794 59.4715 41.7236 59.3593C41.6652 59.2446 39.607 56.1277 39.607 56.1277C39.607 56.1277 39.287 58.8871 38.3438 59.9064V60.1713C38.3438 60.1713 38.74 60.1523 39.041 60.2829C39.3414 60.4166 39.4188 60.5282 39.4188 60.5282L41.5531 63.8529C41.5531 63.8529 41.6463 64.8728 41.5151 65.2519C41.3826 65.6284 41.212 66.4214 39.3224 66.8759C39.3224 66.8759 39.1715 67.4426 41.3262 67.2918C43.4362 67.1435 44.6397 64.9095 44.1164 62.8113C44.1065 62.7687 44.096 62.7261 44.0835 62.6834C44.0835 62.6834 48.9792 59.5961 50.8209 57.1372C50.8347 57.1201 50.8458 57.1044 50.857 57.088C50.857 57.088 43.2683 49.6836 42.5173 49.1792" fill="white"/>
<path fill-rule="evenodd" clip-rule="evenodd" d="M35.2459 57.0604C35.2459 57.0604 35.3968 57.0348 35.423 57.2356C35.4466 57.4382 38.0899 65.4448 38.0899 65.4448C38.0899 65.4448 29.0877 69.1224 18.2483 64.9279L22.6061 51.5942C22.6061 51.5942 22.6691 51.545 22.6691 51.5942C22.6691 51.6453 23.5244 54.0387 24.9601 54.9425L24.9457 55.0822C24.9457 55.0822 24.2033 55.1564 23.9015 56.089C23.5998 57.0204 22.0427 61.6989 22.0427 61.8485C22.0427 62.0013 22.3274 62.0013 22.4782 62.0387C22.6304 62.0774 24.9641 62.7752 28.1694 62.8316C31.3729 62.8874 34.264 62.3246 34.264 62.3246C34.264 62.3246 34.2063 61.0765 32.9962 60.5859L32.9221 60.397C32.9221 60.397 34.8301 59.2196 35.2459 57.0604" fill="white"/>
<path fill-rule="evenodd" clip-rule="evenodd" d="M15.0514 51.7986C15.0514 50.9335 15.7519 50.2337 16.617 50.2337C17.4796 50.2343 18.1807 50.9348 18.1807 51.7986C18.18 52.6618 17.4796 53.3623 16.617 53.3623C15.7519 53.3623 15.0514 52.6618 15.0514 51.7986" fill="white"/>
<path fill-rule="evenodd" clip-rule="evenodd" d="M24.718 69.249C24.718 68.3852 25.4191 67.6873 26.2823 67.6873C27.1461 67.6873 27.8473 68.3852 27.8473 69.249C27.8473 70.1154 27.1461 70.814 26.2823 70.814C25.4191 70.814 24.718 70.1135 24.718 69.249Z" fill="white"/>
<path fill-rule="evenodd" clip-rule="evenodd" d="M30.0826 69.1748C30.0826 68.3109 30.7844 67.6105 31.6456 67.6105C32.5101 67.6105 33.2119 68.3116 33.2119 69.1748C33.2112 70.0386 32.5101 70.7391 31.6456 70.7391C30.7844 70.7391 30.0826 70.0386 30.0826 69.1748Z" fill="white"/>
<path fill-rule="evenodd" clip-rule="evenodd" d="M49.1711 24.8849C49.1711 24.8849 48.0463 24.1326 46.5508 24.1326C45.0553 24.1307 43.943 24.8849 43.943 24.8849L44.1685 25.1436C44.1685 25.1436 45.0252 24.4839 46.5593 24.4839C48.0928 24.4839 48.9521 25.1035 48.9521 25.1035L49.1711 24.8849Z" fill="#7AA3D3"/>
<path fill-rule="evenodd" clip-rule="evenodd" d="M49.0934 24.5581L48.429 21.4276H48.288V21.6958H48.168V21.7988H48.0761V21.7647H47.9633V21.6112L47.9023 21.5509H47.8144L47.8151 21.255H47.6793V21.503H47.5764L47.5199 21.56V21.6604H47.4163V21.6224H47.3573V21.4912L47.3015 21.4328H47.2215V21.1442L47.0706 21.1429L47.07 21.4171L46.9382 21.4754V21.5922H46.7493V21.4531L46.6915 21.3954H46.6141L46.6154 21.1055H46.4685V21.4007H46.3911L46.3124 21.4781V21.5791H46.1471V21.4374L46.1045 21.3954H46.0068V21.1482H45.8631V21.4308H45.789L45.7181 21.503V21.5968H45.61V21.6506H45.5306V21.5555L45.4814 21.5069H45.3935V21.2583H45.261V21.5515H45.1882L45.1187 21.6184V21.7686L45.0105 21.7673V21.7922H44.9475V21.6847H44.8005V21.4276H44.6504L44.0168 24.5582C44.0168 24.5582 44.9895 24.1312 46.5394 24.1312C48.0925 24.1312 49.0934 24.5582 49.0934 24.5582" fill="white"/>
<path fill-rule="evenodd" clip-rule="evenodd" d="M46.2634 23.6055H47.2745V24.6166H46.2634V23.6055Z" fill="white"/>
<path fill-rule="evenodd" clip-rule="evenodd" d="M46.3202 23.661H47.3312V24.672H46.3202V23.661ZM46.2067 24.5572H47.2177V23.5462H46.2067V24.5572Z" fill="#7AA3D3"/>
<path fill-rule="evenodd" clip-rule="evenodd" d="M8.46446 24.8775C8.46446 24.8775 9.59126 24.1265 11.0867 24.1265C12.5828 24.1275 13.6939 24.8794 13.6939 24.8794L13.467 25.1376C13.467 25.1376 12.611 24.4801 11.0775 24.4782C9.5434 24.4782 8.68351 25.0957 8.68351 25.0957L8.46446 24.8775Z" fill="#7AA3D3"/>
<path fill-rule="evenodd" clip-rule="evenodd" d="M10.7971 23.6009H11.8082V24.612H10.7971V23.6009Z" fill="white"/>
<path fill-rule="evenodd" clip-rule="evenodd" d="M10.8525 23.6562H11.8635V24.6673H10.8525V23.6562ZM10.7383 24.5512H11.7494V23.5401H10.7383V24.5512Z" fill="#7AA3D3"/>
<path fill-rule="evenodd" clip-rule="evenodd" d="M30.1089 46.4961C22.1713 46.3984 17.2153 43.5951 14.4553 41.2601C11.4592 38.7277 10.3271 36.1782 10.3166 36.152L10.3035 36.1245L10.3061 36.0969L11.2211 27.0718L20.4076 22.1834H20.4358L37.4274 22.0155V22.2431L20.4653 22.4084L11.4336 27.2148L10.5344 36.0877C10.663 36.3626 11.8134 38.7343 14.6108 41.0975C17.3413 43.403 22.2493 46.1721 30.1116 46.2705L30.1089 46.4961Z" fill="#7AA3D3"/>
<path fill-rule="evenodd" clip-rule="evenodd" d="M30.1089 46.4955V46.2699C30.1371 46.2699 32.9142 46.2555 36.4291 45.0034C39.662 43.8516 44.1976 41.3874 47.4698 36.1855L46.4729 27.1682L37.3736 22.228L37.4825 22.0286L46.688 27.0252L47.704 36.2393L47.6824 36.2734C44.3727 41.5547 39.7735 44.053 36.4967 45.2198C32.9469 46.4818 30.1371 46.4955 30.1089 46.4955" fill="#7AA3D3"/>
<path fill-rule="evenodd" clip-rule="evenodd" d="M36.9638 17.0485C36.9638 17.0485 33.5211 15.4605 28.9468 15.4599C24.3726 15.4599 20.9731 17.0465 20.9731 17.0465L21.6624 17.5876C21.6624 17.5876 24.2801 16.2023 28.9731 16.2043C33.6647 16.205 36.2948 17.5017 36.2948 17.5017L36.9638 17.0485Z" fill="#7AA3D3"/>
<path fill-rule="evenodd" clip-rule="evenodd" d="M42.1959 32.8175L44.1557 24.8556C44.1557 24.8556 44.7939 24.3742 46.5504 24.3742C48.158 24.3742 48.9602 24.8182 48.9602 24.8182L50.188 30.4452C50.188 30.4452 48.6768 34.9971 46.9577 37.0946C45.642 38.7023 42.1959 32.8175 42.1959 32.8175Z" fill="white"/>
<path fill-rule="evenodd" clip-rule="evenodd" d="M15.4382 32.8145L13.4797 24.8519C13.4797 24.8519 12.8441 24.3712 11.0876 24.3712C9.48 24.3692 8.67588 24.8139 8.67588 24.8139L7.44737 30.4408C7.44737 30.4408 8.95854 34.9934 10.675 37.0916C11.9934 38.6992 15.4381 32.8145 15.4381 32.8145" fill="white"/>
<path fill-rule="evenodd" clip-rule="evenodd" d="M8.54439 24.5531L9.20815 21.4225H9.35179V21.6914H9.4692V21.7944H9.56103V21.7596H9.6745V21.6061L9.7335 21.5458H9.82273V21.2513H9.95851V21.4979H10.0615L10.1166 21.5556V21.6553H10.2215V21.6179H10.2799V21.4868L10.3363 21.4284H10.4163V21.1392H10.5678V21.412L10.6997 21.471V21.5891H10.8879V21.4481L10.9463 21.3904H11.0236V21.1005H11.1693V21.3956H11.248L11.3254 21.4743V21.574H11.4906V21.4336L11.5333 21.3904H11.6317V21.1431H11.7746V21.4264H11.8475L11.9203 21.4999V21.5937H12.0272V21.6462H12.1072V21.5517L12.1564 21.5032H12.243L12.2443 21.2546H12.3761V21.5478H12.4502L12.5184 21.616V21.7642H12.6273V21.7892H12.6896V21.6816H12.8359V21.4238H12.9868L13.6184 24.5538C13.6184 24.5538 12.6457 24.1274 11.0965 24.1274C9.54526 24.1274 8.54437 24.5531 8.54437 24.5531" fill="white"/>
<path fill-rule="evenodd" clip-rule="evenodd" d="M37.4281 22.1307L20.437 22.2979L11.3279 27.1437L10.4188 36.1085C10.4188 36.1085 14.8127 46.1942 30.1102 46.3831" fill="white"/>
<path fill-rule="evenodd" clip-rule="evenodd" d="M30.1089 46.3838C30.1089 46.3838 41.2132 46.3844 47.5866 36.2141L46.5804 27.0971L37.4274 22.1307" fill="white"/>
<path fill-rule="evenodd" clip-rule="evenodd" d="M36.3461 17.565C36.3461 17.565 33.8904 16.202 28.9738 16.204C23.6007 16.2059 21.6521 17.6751 21.6521 17.6751L15.6631 42.026C19.3781 44.7643 23.9693 46.3818 28.9404 46.3837C34.0793 46.3837 38.5204 44.8752 42.3023 41.9676L36.3461 17.565Z" fill="white"/>
<path fill-rule="evenodd" clip-rule="evenodd" d="M36.8746 16.9355L34.7219 7.19678H34.2884V8.01796H33.9211V8.32951H33.6457V8.22522H33.2974L33.298 7.75297L33.1137 7.56801H32.8428V6.66747H32.4276V7.4224H32.1161L31.9423 7.59687V7.90383H31.6248V7.79036H31.4458V7.38502L31.27 7.21055L31.0312 7.20989V6.32837H30.5682V7.15808L30.1622 7.33779V7.69657H29.5869V7.27155L29.4059 7.09118H29.1704V6.20374H28.7264V7.11019H28.4916L28.2515 7.35157V7.65788H27.7458V7.22302L27.6127 7.09118H27.3097L27.311 6.33558H26.8748V7.20596H26.6492L26.4261 7.42569V7.71494H26.1015V7.87432H25.8555V7.58245L25.7099 7.43553H25.4397V6.67534H25.0331V7.57262H24.8067L24.6008 7.78054V8.23311H24.2696V8.30789H24.0715V7.97862H23.6281V7.19483H23.165L21.0924 16.992C21.0924 16.992 24.2059 15.4598 28.9461 15.4598C33.6888 15.4624 36.8746 16.9355 36.8746 16.9355" fill="white"/>
<path fill-rule="evenodd" clip-rule="evenodd" d="M36.1039 31.2034C36.1039 31.2034 33.3511 30.8663 28.9743 34.1038C28.9743 34.1038 25.2186 31.0906 22.0054 30.8722C22.0054 30.8722 27.6336 33.4813 28.3977 34.6173C28.3977 34.6173 27.3352 35.9219 26.9272 36.0669C26.9272 36.0669 26.3081 34.6947 25.6863 35.3637C25.6863 35.3637 25.3092 35.6366 25.6594 36.0098C25.6594 36.0098 26.0083 36.3856 26.2589 36.1436L26.4202 36.3436C26.4202 36.3436 26.2005 36.6873 25.7899 36.7818C25.7899 36.7818 24.9733 36.3456 24.9569 37.3032C24.9569 37.3032 25.4337 38.3435 26.9876 36.9943C26.9876 36.9943 27.692 37.8476 28.2023 37.6994C28.2023 37.6994 29.1743 37.4049 28.3728 36.7359C28.3728 36.7359 28.1058 36.488 27.7097 36.9694L27.3896 36.6965C27.3896 36.6965 28.8385 35.35 28.9402 35.2686C29.0405 35.1873 30.4409 36.686 30.4409 36.686L30.2428 36.9517C30.2428 36.9517 29.6767 36.3535 29.2662 37.0914C29.2662 37.0914 29.415 38.2753 30.4172 37.4888L30.919 37.0291C30.919 37.0291 32.0727 38.2018 32.7267 37.7125C32.7267 37.7125 33.2264 37.2809 32.8781 36.9313C32.8781 36.9313 32.6053 36.5542 32.2026 36.8284C32.2026 36.8284 31.9212 36.892 31.4608 36.3889L31.6864 36.1475C31.6864 36.1475 32.1678 36.545 32.4269 35.8885C32.4269 35.8885 32.6368 35.2877 31.6798 35.2955C31.6798 35.2955 31.3762 35.4366 31.0653 36.1469L29.6164 34.7255C29.6164 34.7255 31.5821 32.6378 36.1039 31.2034" fill="#7AA3D3"/>
<path fill-rule="evenodd" clip-rule="evenodd" d="M28.7696 26.4865C28.7696 26.4865 28.3249 27.0368 28.4548 27.7222C28.4548 27.7222 27.5575 26.7895 28.2521 25.7551C28.2521 25.7551 27.5568 25.8417 27.2991 27.2644C27.2991 27.2644 26.8084 26.0765 27.6841 25.0278C27.6841 25.0278 26.7553 25.5958 26.5113 26.3979C26.5113 26.3979 26.4385 24.972 27.7123 24.4309C27.7123 24.4309 27.0046 24.4152 26.5861 24.7234C26.5861 24.7234 26.958 23.6064 28.3997 23.9324C28.3997 23.9324 27.875 23.2634 27.53 23.2746C27.53 23.2746 28.4738 23.1539 28.9224 23.611C28.9224 23.611 28.8739 23.2247 29.1317 23.0083C29.1317 23.0083 29.3848 23.5349 29.5442 23.6412C29.5442 23.6412 30.1306 23.1958 30.6704 23.3493C30.6704 23.3493 30.1496 23.7147 30.0716 23.9403C30.0716 23.9403 31.5526 23.9022 31.7821 24.9963C31.7821 24.9963 30.9144 24.3568 30.4388 24.5286C30.4388 24.5286 31.7644 25.014 31.8963 26.474C31.8963 26.474 31.0488 25.214 30.5969 25.1432C30.5969 25.1432 31.3899 26.4576 30.917 27.2506C30.917 27.2506 30.591 25.8332 30.1686 25.6233C30.1686 25.6233 30.366 27.2027 29.8669 27.7025C29.8669 27.7025 29.6708 26.5744 29.2852 26.4163L29.2222 31.0187C29.2628 31.4044 29.371 31.531 29.371 31.531C29.3284 31.7645 29.3606 31.9691 29.3606 31.9691C29.4694 32.1213 29.474 32.2249 29.474 32.2249C29.535 32.4794 29.4649 32.6631 29.4649 32.6631C29.5514 32.9195 29.741 33.1189 29.741 33.1189L28.1911 33.1747C28.319 33.0927 28.5026 32.5444 28.5026 32.5444C28.4154 32.2636 28.6089 31.8681 28.6089 31.8681C28.5978 31.6103 28.8096 31.0076 28.8096 31.0076L28.7696 26.4865Z" fill="#7AA3D3"/>
</svg>
