<svg width="16" height="16" viewBox="0 0 16 16" fill="none" xmlns="http://www.w3.org/2000/svg">
<path fill-rule="evenodd" clip-rule="evenodd" d="M8.09423 2.15674C8.03656 2.1106 7.95965 2.1106 7.90198 2.15674L1.90392 6.95519C1.86932 6.98595 1.84625 7.02824 1.84625 7.07438V15.9177C1.84625 15.96 1.88085 15.9946 1.92315 15.9946H6.07566C6.11795 15.9946 6.15256 15.96 6.15256 15.9177V10.5348C6.15256 10.4925 6.18716 10.4579 6.22946 10.4579H9.76678C9.80907 10.4579 9.84368 10.4925 9.84368 10.5348V15.9177C9.84368 15.96 9.87828 15.9946 9.92058 15.9946H14.0731C14.1154 15.9946 14.15 15.96 14.15 15.9177V7.07438C14.15 7.02824 14.1269 6.98211 14.0923 6.95519L8.09423 2.15674Z" fill="white"/>
<path fill-rule="evenodd" clip-rule="evenodd" d="M15.7918 6.00575L8.52487 0.184556C8.37877 0.065362 8.19036 0 7.99812 0C7.80587 0 7.61746 0.065362 7.47136 0.184556L4.30699 2.7568V1.13425C4.30699 1.09196 4.27239 1.05735 4.23009 1.05735H1.92314C1.88085 1.05735 1.84624 1.09195 1.84624 1.13425V4.67926L0.204458 6.02882C0.0852643 6.12495 0.008372 6.26721 0.000681764 6.42101C-0.00700847 6.5748 0.0506633 6.72475 0.158327 6.83241C0.25829 6.93237 0.392864 6.99005 0.538968 6.99005C0.662002 6.99005 0.781196 6.94776 0.877319 6.87086L7.9481 1.1804C7.96732 1.16502 7.98271 1.16502 7.99809 1.16502C8.01347 1.16502 8.02885 1.16886 8.04807 1.1804L15.1189 6.8478C15.215 6.9247 15.3342 6.96699 15.4572 6.96699C15.5995 6.96699 15.734 6.91316 15.8379 6.80935C15.9494 6.70169 16.007 6.55174 15.9993 6.39795C15.9878 6.24415 15.9148 6.10189 15.7917 6.00576L15.7918 6.00575Z" fill="white"/>
</svg>
