<svg width="430" height="50" viewBox="0 0 430 50" fill="none" xmlns="http://www.w3.org/2000/svg">
<mask id="mask0_0_59461" style="mask-type:luminance" maskUnits="userSpaceOnUse" x="0" y="0" width="430" height="50">
<path fill-rule="evenodd" clip-rule="evenodd" d="M0 0H430V50H0V0Z" fill="white"/>
</mask>
<g mask="url(#mask0_0_59461)">
<path fill-rule="evenodd" clip-rule="evenodd" d="M377.255 39.4953H382.611C382.611 40.9681 381.406 42.1731 379.933 42.1731C378.46 42.1731 377.255 40.9681 377.255 39.4953H377.255ZM382.611 24.7675C382.611 28.262 384.847 31.2343 387.966 32.3456V35.4786H390.644V38.1564H369.222V35.4786H371.899V26.1064C371.899 22.3709 374.457 19.2245 377.924 18.3408V17.4036C377.924 16.2923 378.822 15.3953 379.933 15.3953C381.044 15.3953 381.941 16.2923 381.941 17.4036V18.3408C382.892 18.5818 383.762 18.9969 384.552 19.5458C383.334 20.9383 382.611 22.7726 382.611 24.7675V24.7675ZM396 23.4286H391.983V19.4119H389.305V23.4286H385.288V26.1064H389.305V30.1231H391.983V26.1064H396V23.4286Z" fill="#FF728D"/>
</g>
</svg>
