<svg width="126" height="84" viewBox="0 0 126 84" fill="none" xmlns="http://www.w3.org/2000/svg">
<path fill-rule="evenodd" clip-rule="evenodd" d="M81.2488 18.7326C81.2488 29.0784 72.862 37.4649 62.5157 37.4649C52.1708 37.4649 43.7836 29.0784 43.7836 18.7326C43.7836 8.38683 52.1708 0 62.5157 0C72.862 0 81.2488 8.38683 81.2488 18.7326Z" fill="#7AA3D3"/>
<path fill-rule="evenodd" clip-rule="evenodd" d="M72.3294 31.6129C72.3294 31.6129 73.6533 31.9617 75.0441 31.1835C75.0441 31.1835 75.0368 31.8125 75.1769 31.9698C75.2812 32.0862 80.3235 36.8444 80.3235 36.8444L79.2974 38.1865L72.3294 31.6965C72.3294 31.6965 72.2531 31.5974 72.3294 31.6129" fill="white"/>
<path fill-rule="evenodd" clip-rule="evenodd" d="M71.7288 32.3253C71.7288 32.3253 72.0013 33.7282 71.4305 35.0823L72.1392 35.1556L74.1116 36.9438C74.1116 36.9438 72.535 38.3458 71.343 39.0166C71.343 39.0166 71.2438 39.0903 71.2072 39.0166C71.1688 38.9411 69.816 36.8925 69.816 36.8925C69.816 36.8925 69.6056 38.7062 68.9857 39.3761V39.5503C68.9857 39.5503 69.2461 39.5378 69.4439 39.6236C69.6414 39.7116 69.6923 39.7848 69.6923 39.7848L71.0951 41.9701C71.0951 41.9701 71.1563 42.6405 71.0701 42.8897C70.983 43.1372 70.8709 43.6584 69.6289 43.9571C69.6289 43.9571 69.5297 44.3296 70.9459 44.2305C72.3328 44.133 73.1239 42.6647 72.7799 41.2855C72.7734 41.2575 72.7665 41.2295 72.7583 41.2015C72.7583 41.2015 75.9761 39.1722 77.1867 37.556C77.1958 37.5448 77.2031 37.5344 77.2104 37.5237C77.2104 37.5237 72.2225 32.6568 71.7288 32.3253" fill="white"/>
<path fill-rule="evenodd" clip-rule="evenodd" d="M66.9498 37.5046C66.9498 37.5046 67.0489 37.4877 67.0662 37.6197C67.0817 37.7529 68.8191 43.0154 68.8191 43.0154C68.8191 43.0154 62.9021 45.4327 55.7775 42.6757L58.6418 33.9117C58.6418 33.9117 58.6832 33.8793 58.6832 33.9117C58.6832 33.9453 59.2454 35.5184 60.1891 36.1125L60.1796 36.2043C60.1796 36.2043 59.6916 36.253 59.4933 36.8661C59.295 37.4782 58.2715 40.5534 58.2715 40.6517C58.2715 40.7521 58.4586 40.7521 58.5578 40.7767C58.6578 40.8021 60.1917 41.2608 62.2985 41.2979C64.4041 41.3345 66.3044 40.9646 66.3044 40.9646C66.3044 40.9646 66.2665 40.1442 65.4711 39.8218L65.4224 39.6976C65.4224 39.6976 66.6764 38.9237 66.9498 37.5045" fill="white"/>
<path fill-rule="evenodd" clip-rule="evenodd" d="M53.6758 34.0465C53.6758 33.4778 54.1363 33.0178 54.7049 33.0178C55.2718 33.0183 55.7327 33.4787 55.7327 34.0465C55.7322 34.6138 55.2718 35.0742 54.7049 35.0742C54.1363 35.0742 53.6758 34.6138 53.6758 34.0465" fill="white"/>
<path fill-rule="evenodd" clip-rule="evenodd" d="M60.0301 45.5166C60.0301 44.9488 60.491 44.4901 61.0583 44.4901C61.6261 44.4901 62.087 44.9489 62.087 45.5166C62.087 46.0861 61.6261 46.5453 61.0583 46.5453C60.491 46.5453 60.0301 46.0848 60.0301 45.5166Z" fill="white"/>
<path fill-rule="evenodd" clip-rule="evenodd" d="M63.556 45.4681C63.556 44.9003 64.0174 44.4399 64.5834 44.4399C65.1516 44.4399 65.6129 44.9007 65.6129 45.4681C65.6125 46.0358 65.1516 46.4963 64.5834 46.4963C64.0174 46.4963 63.556 46.0358 63.556 45.4681Z" fill="white"/>
<path fill-rule="evenodd" clip-rule="evenodd" d="M76.1027 16.6095C76.1027 16.6095 75.3634 15.8616 74.3804 15.8616C73.3975 15.8597 72.6664 16.6095 72.6664 16.6095L72.8146 16.8667C72.8146 16.8667 73.3777 16.2109 74.386 16.2109C75.394 16.2109 75.9588 16.8269 75.9588 16.8269L76.1027 16.6095Z" fill="#7AA3D3"/>
<path fill-rule="evenodd" clip-rule="evenodd" d="M76.0514 16.1419L75.6147 14.0842H75.522V14.2605H75.4431V14.3282H75.3828V14.3058H75.3086V14.2049L75.2685 14.1652H75.2107L75.2112 13.9708H75.1219V14.1338H75.0543L75.0172 14.1713V14.2372H74.949V14.2122H74.9103V14.126L74.8736 14.0876H74.821V13.898L74.7218 13.8971L74.7214 14.0773L74.6348 14.1157V14.1924H74.5106V14.101L74.4727 14.0631H74.4218L74.4227 13.8725H74.3261V14.0665H74.2752L74.2235 14.1174V14.1838H74.1149V14.0907L74.0868 14.0631H74.0226V13.9005H73.9282V14.0863H73.8795L73.8329 14.1338V14.1954H73.7618V14.2308H73.7096V14.1683L73.6773 14.1364H73.6195V13.973H73.5324V14.1657H73.4846L73.4389 14.2096V14.3084L73.3678 14.3075V14.3239H73.3264V14.2532H73.2298V14.0842H73.1311L72.7146 16.1419C72.7146 16.1419 73.3539 15.8612 74.3727 15.8612C75.3935 15.8612 76.0514 16.1419 76.0514 16.1419" fill="white"/>
<path fill-rule="evenodd" clip-rule="evenodd" d="M74.1912 15.5154H75.1963V16.5205H74.1912V15.5154Z" fill="white"/>
<path fill-rule="evenodd" clip-rule="evenodd" d="M74.2285 15.5521H75.2336V16.5572H74.2285V15.5521ZM74.1539 16.4818H75.159V15.4767H74.1539V16.4818Z" fill="#7AA3D3"/>
<path fill-rule="evenodd" clip-rule="evenodd" d="M49.3468 16.6041C49.3468 16.6041 50.0875 15.8576 51.0704 15.8576C52.0538 15.8585 52.7841 16.606 52.7841 16.606L52.6349 16.8627C52.6349 16.8627 52.0723 16.209 51.0644 16.2072C50.056 16.2072 49.4908 16.821 49.4908 16.821L49.3468 16.6041Z" fill="#7AA3D3"/>
<path fill-rule="evenodd" clip-rule="evenodd" d="M50.8797 15.5123H51.8848V16.5175H50.8797V15.5123Z" fill="white"/>
<path fill-rule="evenodd" clip-rule="evenodd" d="M50.9165 15.549H51.9216V16.5541H50.9165V15.549ZM50.8414 16.4778H51.8465V15.4727H50.8414V16.4778Z" fill="#7AA3D3"/>
<path fill-rule="evenodd" clip-rule="evenodd" d="M63.5738 30.5603C58.3565 30.4961 55.099 28.6535 53.2849 27.1188C51.3156 25.4542 50.5715 23.7785 50.5646 23.7613L50.556 23.7432L50.5577 23.7251L51.1591 17.793L57.1972 14.5799H57.2158L68.3841 14.4695V14.6191L57.2352 14.7278L51.2988 17.887L50.7077 23.719C50.7922 23.8997 51.5484 25.4586 53.3871 27.0119C55.1818 28.5272 58.4078 30.3474 63.5755 30.412L63.5738 30.5603Z" fill="#7AA3D3"/>
<path fill-rule="evenodd" clip-rule="evenodd" d="M63.5731 30.5603V30.412C63.5917 30.412 65.417 30.4025 67.7273 29.5795C69.8523 28.8225 72.8334 27.2028 74.9842 23.7837L74.3289 17.8568L68.3481 14.6096L68.4197 14.4786L74.4703 17.7628L75.1381 23.819L75.1239 23.8415C72.9485 27.3128 69.9256 28.9549 67.7717 29.7218C65.4386 30.5513 63.5917 30.5603 63.5731 30.5603" fill="#7AA3D3"/>
<path fill-rule="evenodd" clip-rule="evenodd" d="M68.0791 11.2058C68.0791 11.2058 65.8162 10.1621 62.8096 10.1617C59.8031 10.1617 57.5686 11.2045 57.5686 11.2045L58.0217 11.5602C58.0217 11.5602 59.7423 10.6497 62.8269 10.651C65.9106 10.6514 67.6394 11.5037 67.6394 11.5037L68.0791 11.2058Z" fill="#7AA3D3"/>
<path fill-rule="evenodd" clip-rule="evenodd" d="M71.5185 21.5701L72.8067 16.3369C72.8067 16.3369 73.2261 16.0204 74.3807 16.0204C75.4373 16.0204 75.9646 16.3123 75.9646 16.3123L76.7716 20.0108C76.7716 20.0108 75.7783 23.0027 74.6484 24.3814C73.7836 25.438 71.5185 21.5701 71.5185 21.5701" fill="white"/>
<path fill-rule="evenodd" clip-rule="evenodd" d="M53.9307 21.5671L52.6434 16.3334C52.6434 16.3334 52.2256 16.0174 51.0711 16.0174C50.0144 16.0161 49.4859 16.3084 49.4859 16.3084L48.6784 20.0069C48.6784 20.0069 49.6717 22.9993 50.7999 24.3784C51.6665 25.4351 53.9307 21.5671 53.9307 21.5671" fill="white"/>
<path fill-rule="evenodd" clip-rule="evenodd" d="M49.3991 16.1379L49.8354 14.0802H49.9298V14.257H50.007V14.3246H50.0673V14.3018H50.1419V14.2009L50.1807 14.1612H50.2393V13.9677H50.3286V14.1298H50.3962L50.4324 14.1677V14.2332H50.5014V14.2087H50.5398V14.1224L50.5769 14.0841H50.6295V13.8939H50.729V14.0733L50.8157 14.1121V14.1897H50.9394V14.097L50.9778 14.0591H51.0287V13.8685H51.1244V14.0625H51.1761L51.227 14.1142V14.1798H51.3356V14.0875L51.3636 14.0591H51.4283V13.8965H51.5223V14.0828H51.5702L51.618 14.1311V14.1927H51.6883V14.2272H51.7409V14.1651L51.7732 14.1332H51.8301L51.831 13.9698H51.9176V14.1625H51.9663L52.0112 14.2073V14.3048H52.0827V14.3212H52.1237V14.2505H52.2198V14.081H52.319L52.7342 16.1383C52.7342 16.1383 52.0948 15.8581 51.0765 15.8581C50.057 15.8581 49.3991 16.1379 49.3991 16.1379" fill="white"/>
<path fill-rule="evenodd" clip-rule="evenodd" d="M68.3841 14.5449L57.2161 14.6549L51.2289 17.8399L50.6313 23.7324C50.6313 23.7324 53.5194 30.3616 63.5742 30.4857" fill="white"/>
<path fill-rule="evenodd" clip-rule="evenodd" d="M63.5741 30.4861C63.5741 30.4861 70.8728 30.4866 75.062 23.8017L74.4006 17.8093L68.3845 14.5449" fill="white"/>
<path fill-rule="evenodd" clip-rule="evenodd" d="M67.6735 11.5447C67.6735 11.5447 66.0594 10.6488 62.8278 10.6501C59.2962 10.6514 58.0153 11.6171 58.0153 11.6171L54.0789 27.6226C56.5207 29.4225 59.5385 30.4856 62.8058 30.4869C66.1836 30.4869 69.1026 29.4953 71.5884 27.5842L67.6735 11.5447Z" fill="white"/>
<path fill-rule="evenodd" clip-rule="evenodd" d="M68.0204 11.1305L66.6055 4.72941H66.3205V5.26916H66.0791V5.47394H65.8981V5.40539H65.6691L65.6696 5.095L65.5484 4.97343H65.3704V4.38151H65.0975V4.87772H64.8927L64.7785 4.9924V5.19415H64.5698V5.11957H64.4521V4.85315L64.3366 4.73847L64.1797 4.73804V4.15863H63.8753V4.70398L63.6084 4.82211V5.05793H63.2303V4.77857L63.1114 4.66002H62.9566V4.07672H62.6647V4.67252H62.5104L62.3526 4.83117V5.03249H62.0202V4.74667L61.9327 4.66002H61.7335L61.7344 4.16337H61.4477V4.73546H61.2994L61.1528 4.87988V5.07001H60.9394V5.17477H60.7778V4.98293L60.6821 4.88636H60.5044V4.3867H60.2372V4.97645H60.0884L59.953 5.11312V5.41059H59.7353V5.45974H59.6051V5.24332H59.3137V4.72814H59.0094L57.647 11.1676C57.647 11.1676 59.6935 10.1606 62.8091 10.1606C65.9265 10.1623 68.0204 11.1306 68.0204 11.1306" fill="white"/>
<path fill-rule="evenodd" clip-rule="evenodd" d="M67.5138 20.5088C67.5138 20.5088 65.7044 20.2872 62.8276 22.4152C62.8276 22.4152 60.3591 20.4347 58.2471 20.2911C58.2471 20.2911 61.9464 22.0061 62.4487 22.7528C62.4487 22.7528 61.7503 23.6103 61.4821 23.7055C61.4821 23.7055 61.0752 22.8036 60.6665 23.2434C60.6665 23.2434 60.4186 23.4227 60.6488 23.668C60.6488 23.668 60.8781 23.915 61.0428 23.756L61.1489 23.8875C61.1489 23.8875 61.0045 24.1134 60.7346 24.1754C60.7346 24.1754 60.1979 23.8888 60.1871 24.5182C60.1871 24.5182 60.5005 25.2019 61.5218 24.3151C61.5218 24.3151 61.9848 24.876 62.3202 24.7786C62.3202 24.7786 62.9591 24.585 62.4323 24.1453C62.4323 24.1453 62.2568 23.9823 61.9964 24.2987L61.7861 24.1194C61.7861 24.1194 62.7384 23.2343 62.8052 23.1809C62.8712 23.1274 63.7916 24.1125 63.7916 24.1125L63.6614 24.2871C63.6614 24.2871 63.2893 23.8939 63.0195 24.3789C63.0195 24.3789 63.1173 25.1571 63.7761 24.6402L64.1059 24.338C64.1059 24.338 64.8642 25.1088 65.294 24.7872C65.294 24.7872 65.6225 24.5035 65.3936 24.2737C65.3936 24.2737 65.2143 24.0258 64.9496 24.206C64.9496 24.206 64.7646 24.2479 64.462 23.9172L64.6103 23.7586C64.6103 23.7586 64.9267 24.0198 65.097 23.5883C65.097 23.5883 65.235 23.1934 64.606 23.1985C64.606 23.1985 64.4064 23.2912 64.202 23.7581L63.2497 22.8239C63.2497 22.8239 64.5417 21.4517 67.5138 20.5088Z" fill="#7AA3D3"/>
<path fill-rule="evenodd" clip-rule="evenodd" d="M62.693 17.4081C62.693 17.4081 62.4006 17.7698 62.486 18.2203C62.486 18.2203 61.8963 17.6072 62.3528 16.9274C62.3528 16.9274 61.8958 16.9843 61.7264 17.9194C61.7264 17.9194 61.4039 17.1386 61.9795 16.4493C61.9795 16.4493 61.369 16.8226 61.2086 17.3499C61.2086 17.3499 61.1608 16.4126 61.998 16.057C61.998 16.057 61.5328 16.0466 61.2578 16.2492C61.2578 16.2492 61.5022 15.515 62.4498 15.7293C62.4498 15.7293 62.1049 15.2896 61.8781 15.2969C61.8781 15.2969 62.4985 15.2176 62.7934 15.5181C62.7934 15.5181 62.7615 15.2641 62.9309 15.1219C62.9309 15.1219 63.0973 15.4681 63.2021 15.5379C63.2021 15.5379 63.5875 15.2452 63.9423 15.3461C63.9423 15.3461 63.6 15.5862 63.5487 15.7345C63.5487 15.7345 64.5222 15.7095 64.6731 16.4286C64.6731 16.4286 64.1027 16.0082 63.7901 16.1212C63.7901 16.1212 64.6614 16.4402 64.7481 17.3999C64.7481 17.3999 64.1911 16.5717 63.894 16.5251C63.894 16.5251 64.4152 17.3891 64.1044 17.9103C64.1044 17.9103 63.8901 16.9787 63.6125 16.8407C63.6125 16.8407 63.7423 17.8788 63.4142 18.2073C63.4142 18.2073 63.2853 17.4658 63.0318 17.3619L62.9904 20.387C63.0172 20.6405 63.0883 20.7237 63.0883 20.7237C63.0602 20.8772 63.0814 21.0117 63.0814 21.0117C63.1529 21.1117 63.156 21.1798 63.156 21.1798C63.1961 21.3471 63.1499 21.4678 63.1499 21.4678C63.2068 21.6364 63.3314 21.7674 63.3314 21.7674L62.3127 21.8041C62.3968 21.7502 62.5175 21.3898 62.5175 21.3898C62.4601 21.2053 62.5873 20.9453 62.5873 20.9453C62.58 20.7759 62.7192 20.3797 62.7192 20.3797L62.693 17.4081Z" fill="#7AA3D3"/>
<path fill-rule="evenodd" clip-rule="evenodd" d="M124.179 81.6239V83.7644H122.849V81.633L121.053 77.6405H122.501L123.157 79.2007C123.309 79.5637 123.431 79.8905 123.523 80.1793H123.54C123.614 79.9465 123.763 79.5771 123.984 79.0718L124.603 77.6405H126L124.179 81.6239ZM118.877 78.8463V83.7644H117.559V78.8463H116.179V77.6405H120.256V78.8463H118.877ZM113.709 77.6405H115.035V83.764H113.709V77.6405ZM109.538 83.7644V77.6405H110.865V82.5103H112.602V83.7644H109.538ZM105.975 80.0069C105.897 79.7616 105.824 79.4779 105.756 79.1563H105.739C105.652 79.546 105.585 79.8323 105.535 80.0155L105.073 81.5136H106.437L105.975 80.0069ZM107.11 83.7644L106.761 82.6302H104.758L104.417 83.7644H103.099L105.007 77.6405H106.582L108.565 83.7644H107.11ZM101.654 79.6788C101.654 79.0649 101.335 78.7575 100.698 78.7575C100.589 78.7575 100.479 78.7601 100.365 78.7661V80.5962C100.473 80.6199 100.603 80.6315 100.752 80.6315C101.353 80.6315 101.654 80.3142 101.654 79.6788ZM103.021 79.5551C103.021 80.2047 102.826 80.7337 102.435 81.1416C102.011 81.5787 101.426 81.7968 100.681 81.7968C100.562 81.7968 100.456 81.7938 100.365 81.7887V83.7644H99.0396V77.6405C99.5854 77.6081 100.159 77.5918 100.76 77.5918C102.268 77.5918 103.021 78.2462 103.021 79.5551M96.1792 77.6405H97.5048V83.764H96.1792V77.6405ZM94.8345 83.5829C94.3969 83.7571 93.9206 83.8442 93.4054 83.8442C92.4376 83.8442 91.7236 83.5308 91.2645 82.9048C90.8985 82.4051 90.7157 81.7451 90.7157 80.9243C90.7157 79.9081 90.964 79.1045 91.4598 78.5135C91.975 77.8996 92.6971 77.5918 93.6248 77.5918C94.0684 77.5918 94.4607 77.6495 94.8018 77.7646L94.631 79.0545C94.3064 78.9274 93.9637 78.8644 93.6002 78.8644C93.1424 78.8644 92.7902 79.0291 92.5406 79.3598C92.2935 79.6818 92.1702 80.1254 92.1702 80.6889C92.1702 81.9357 92.6703 82.5591 93.6709 82.5591C94.0391 82.5591 94.365 82.4823 94.6474 82.3289L94.8345 83.5829ZM88.1553 77.6405H89.481V83.764H88.1553V77.6405ZM84.8884 83.7644L83.4036 80.7518C83.1988 80.3048 83.0492 79.9124 82.9548 79.5727C82.9945 80.2793 83.0135 81.1338 83.0135 82.1383V83.7644H81.746V77.6405H83.4911L84.9216 80.5518C85.1069 80.9303 85.2716 81.3377 85.4156 81.7744C85.3742 81.1631 85.354 80.294 85.354 79.1649V77.6405H86.6253V83.7644H84.8884ZM80.2155 81.3584C80.2155 83.0423 79.4042 83.8843 77.7793 83.8843C76.264 83.8843 75.5057 83.1246 75.5057 81.6063V77.6405H76.8318V81.5227C76.8318 81.9098 76.902 82.1943 77.0439 82.3775C77.2047 82.5871 77.478 82.6918 77.863 82.6918C78.2393 82.6918 78.5075 82.5987 78.6648 82.4129C78.8231 82.221 78.902 81.8973 78.902 81.4425V77.6405H80.2155L80.2155 81.3584ZM72.9418 83.7644L72.5758 81.1855C72.5129 80.7747 72.4525 80.2668 72.3978 79.6611H72.3805C72.2727 80.2491 72.1589 80.7738 72.0395 81.2342L71.3088 83.7644H70.0732L69.3757 81.4248C69.1929 80.7747 69.0657 80.1866 68.9937 79.6611H68.9769C68.9299 80.3173 68.876 80.8678 68.8144 81.3144L68.5363 83.7644H67.1977L68.116 77.6405H69.6417L70.4397 80.3526C70.5418 80.6863 70.6475 81.1308 70.7557 81.6861H70.7725C70.8721 81.1722 70.9798 80.7277 71.0962 80.3526L71.9067 77.6405H73.4031L74.3214 83.7644L72.9418 83.7644ZM62.0998 83.7644L60.6164 80.7518C60.4116 80.3048 60.2616 79.9124 60.1676 79.5727C60.2064 80.2793 60.2258 81.1338 60.2258 82.1383V83.7644H58.9583V77.6405H60.7035L62.133 80.5518C62.3193 80.9303 62.4839 81.3377 62.6284 81.7744C62.587 81.1631 62.5659 80.294 62.5659 79.1649V77.6405H63.8376V83.7644H62.0998ZM56.3523 80.7423C56.3523 79.4546 55.9078 78.8105 55.0188 78.8105C54.6136 78.8105 54.2894 78.97 54.0458 79.2886C53.7906 79.6227 53.6634 80.081 53.6634 80.6626C53.6634 81.9451 54.1079 82.5858 54.9981 82.5858C55.4021 82.5858 55.7263 82.4262 55.9703 82.1072C56.2251 81.7766 56.3523 81.3213 56.3523 80.7423ZM57.7572 80.5962C57.7572 81.583 57.4774 82.3831 56.9183 82.9983C56.3833 83.5889 55.7125 83.8842 54.9063 83.8842C54.0333 83.8842 53.3698 83.6079 52.9159 83.0557C52.4779 82.5263 52.2584 81.7766 52.2584 80.8044C52.2584 79.8176 52.5382 79.0175 53.0982 78.4027C53.6337 77.8146 54.3036 77.521 55.1098 77.521C55.9824 77.521 56.6467 77.797 57.1011 78.3497C57.5387 78.8786 57.7573 79.6275 57.7573 80.5962M49.7394 77.6405H51.0651V83.764H49.7394V77.6405ZM48.2267 83.4631C47.6175 83.7321 46.9437 83.8666 46.2065 83.8666C45.2563 83.8666 44.5282 83.5989 44.0207 83.0638C43.5327 82.5504 43.2892 81.8339 43.2892 80.9152C43.2892 79.8788 43.5689 79.0614 44.129 78.4648C44.7049 77.8535 45.5089 77.5478 46.5393 77.5478C47.1295 77.5478 47.6839 77.6319 48.2021 77.8004L47.9361 79.0894C47.4817 78.9036 46.9963 78.8105 46.4811 78.8105C45.8888 78.8105 45.4391 78.9964 45.1347 79.3688C44.8571 79.7055 44.7187 80.1634 44.7187 80.7423C44.7187 81.3213 44.8545 81.7705 45.1257 82.0896C45.4094 82.4207 45.8181 82.5858 46.3522 82.5858C46.5626 82.5858 46.7445 82.5582 46.8967 82.5017V80.4983H48.2267V83.4631ZM38.8698 83.7644V77.6405H42.104V78.8282H40.1964V80.0422H42.0036V81.1946H40.1964V82.5504H42.104V83.7644H38.8698ZM36.0452 79.5283C36.0452 79.014 35.7507 78.7575 35.1597 78.7575C35.0161 78.7575 34.8928 78.7631 34.7902 78.7752V80.3435C34.8821 80.3552 34.9929 80.3617 35.1226 80.3617C35.4054 80.3617 35.63 80.2871 35.7964 80.1401C35.9624 79.9892 36.0452 79.7853 36.0452 79.5283M36.203 83.7644L34.8696 81.367H34.7902V83.7644H33.4646V77.6405C33.8694 77.6082 34.4678 77.5918 35.2597 77.5918C36.7065 77.5918 37.4295 78.1975 37.4295 79.4085C37.4295 79.8193 37.3148 80.1793 37.0846 80.4901C36.8548 80.7997 36.5548 81.0053 36.1866 81.1062C36.3927 81.4015 36.5401 81.6317 36.6319 81.7968L37.8248 83.7644H36.203ZM28.4322 83.7644V81.2166H26.3292V83.7644H25.0036V77.6405H26.3292V79.9892H28.4322V77.6405H29.7626V83.7644H28.4322ZM22.3441 80.6889C22.3441 80.0689 22.2359 79.6081 22.0199 79.3067C21.7759 78.964 21.371 78.7933 20.8059 78.7933C20.5368 78.7933 20.354 78.7984 20.2575 78.8105V82.559C20.4062 82.5828 20.5718 82.5948 20.7511 82.5948C21.2314 82.5948 21.6107 82.4396 21.8905 82.1292C22.1923 81.7955 22.3441 81.3157 22.3441 80.6889M23.765 80.579C23.765 81.6063 23.477 82.4073 22.9011 82.9802C22.3462 83.5329 21.5909 83.8088 20.636 83.8088C20.2032 83.8088 19.635 83.7911 18.9314 83.7554V77.6582C19.5328 77.6202 20.185 77.6008 20.8891 77.6008C22.8062 77.6008 23.765 78.5932 23.765 80.579ZM15.3682 80.0069C15.2906 79.7616 15.2169 79.4779 15.1475 79.1563H15.1311C15.0453 79.546 14.9777 79.8323 14.9276 80.0155L14.4659 81.5136H15.8291L15.3682 80.0069ZM16.5029 83.7644L16.1542 82.6302H14.1504L13.8102 83.7644H12.4919L14.4 77.6405H15.9748L17.9579 83.7644H16.5029ZM10.867 81.6239V83.7644H9.53704V81.633L7.74146 77.6405H9.18784L9.84443 79.2007C9.99704 79.5637 10.1186 79.8905 10.2104 80.1793H10.2268C10.3023 79.9465 10.4501 79.5771 10.6717 79.0718L11.2912 77.6405H12.688L10.867 81.6239ZM5.40527 77.6405H6.73094V83.764H5.40527V77.6405ZM2.58106 79.5283C2.58106 79.014 2.28575 78.7575 1.69556 78.7575C1.55113 78.7575 1.42827 78.7631 1.32567 78.7752V80.3435C1.41749 80.3552 1.52829 80.3617 1.65806 80.3617C1.94087 80.3617 2.16548 80.2871 2.33188 80.1401C2.49786 79.9892 2.58107 79.7853 2.58107 79.5283M2.73885 83.7644L1.40499 81.367H1.32567V83.7644H0V77.6405C0.404385 77.6082 1.0032 77.5918 1.79558 77.5918C3.24153 77.5918 3.96493 78.1975 3.96493 79.4085C3.96493 79.8193 3.85026 80.1793 3.62004 80.4901C3.38983 80.7997 3.09021 81.0053 2.72204 81.1062C2.92725 81.4015 3.07554 81.6317 3.16694 81.7968L4.35982 83.7644H2.73885Z" fill="#006A46"/>
</svg>
