<svg width="27" height="37" viewBox="0 0 27 37" fill="none" xmlns="http://www.w3.org/2000/svg">
<path fill-rule="evenodd" clip-rule="evenodd" d="M26.6003 26.6138L20.9829 20.2511H23.1367C23.7702 20.2511 24.3306 19.8995 24.5978 19.3328C24.865 18.7674 24.7771 18.1191 24.3671 17.6417L18.8735 11.2508H20.9049C21.5447 11.2508 22.1213 10.8746 22.3716 10.2938C22.6191 9.72219 22.5024 9.05702 22.0735 8.60068L14.3199 0.340149C13.8959 -0.113383 13.1049 -0.113383 12.6802 0.340149L4.92592 8.60068C4.497 9.05703 4.38098 9.72219 4.62779 10.2938C4.87811 10.8746 5.45539 11.2508 6.09525 11.2508H8.12663L2.63226 17.6431C2.22373 18.1198 2.13584 18.7674 2.40234 19.3335C2.66954 19.8995 3.22924 20.2511 3.86347 20.2511H6.0172L0.399774 26.6138C-0.0221074 27.0913 -0.11774 27.7452 0.149457 28.3196C0.413134 28.8857 0.99323 29.2513 1.62677 29.2513H11.25V30.9705L9.12017 34.3737C8.7461 35.1219 9.29033 36.0022 10.1264 36.0022H16.8737C17.7098 36.0022 18.254 35.1219 17.8799 34.3737L15.7501 30.9705V29.2513H25.3733C26.0069 29.2513 26.587 28.8857 26.8507 28.3196C27.1178 27.7452 27.0222 27.0913 26.6003 26.6138H26.6003Z" fill="white"/>
</svg>
