<svg width="38" height="47" viewBox="0 0 38 47" fill="none" xmlns="http://www.w3.org/2000/svg">
<path fill-rule="evenodd" clip-rule="evenodd" d="M37.8313 18.9157C37.8313 29.3625 29.3625 37.8309 18.9152 37.8309C8.4692 37.8309 0 29.3625 0 18.9157C0 8.46877 8.4692 0 18.9152 0C29.3625 0 37.8313 8.46877 37.8313 18.9157Z" fill="#7AA3D3"/>
<path fill-rule="evenodd" clip-rule="evenodd" d="M28.8248 31.9218C28.8248 31.9218 30.1617 32.2739 31.566 31.4882C31.566 31.4882 31.5586 32.1233 31.7001 32.2822C31.8055 32.3997 36.897 37.2044 36.897 37.2044L35.8609 38.5596L28.8248 32.0062C28.8248 32.0062 28.7477 31.9061 28.8248 31.9218" fill="white"/>
<path fill-rule="evenodd" clip-rule="evenodd" d="M28.2183 32.6411C28.2183 32.6411 28.4934 34.0577 27.917 35.425L28.6327 35.499L30.6243 37.3048C30.6243 37.3048 29.0323 38.7204 27.8286 39.3978C27.8286 39.3978 27.7285 39.4722 27.6915 39.3978C27.6528 39.3216 26.2867 37.253 26.2867 37.253C26.2867 37.253 26.0743 39.0844 25.4483 39.7609V39.9367C25.4483 39.9367 25.7113 39.9241 25.9111 40.0108C26.1105 40.0996 26.1618 40.1736 26.1618 40.1736L27.5784 42.3802C27.5784 42.3802 27.6402 43.0571 27.5531 43.3087C27.4652 43.5586 27.352 44.0849 26.0978 44.3866C26.0978 44.3866 25.9977 44.7627 27.4278 44.6626C28.8282 44.5642 29.627 43.0815 29.2796 41.6889C29.2731 41.6606 29.2661 41.6323 29.2578 41.604C29.2578 41.604 32.5071 39.555 33.7295 37.9229C33.7386 37.9116 33.746 37.9012 33.7534 37.8903C33.7534 37.8903 28.7167 32.9759 28.2183 32.6411" fill="white"/>
<path fill-rule="evenodd" clip-rule="evenodd" d="M23.3926 37.871C23.3926 37.871 23.4927 37.854 23.5101 37.9872C23.5258 38.1217 25.2801 43.4357 25.2801 43.4357C25.2801 43.4357 19.3053 45.8766 12.1111 43.0927L15.0034 34.243C15.0034 34.243 15.0452 34.2104 15.0452 34.243C15.0452 34.2769 15.6129 35.8654 16.5658 36.4653L16.5562 36.558C16.5562 36.558 16.0635 36.6072 15.8632 37.2263C15.663 37.8444 14.6295 40.9496 14.6295 41.0488C14.6295 41.1503 14.8184 41.1503 14.9185 41.1751C15.0195 41.2008 16.5684 41.6639 18.6958 41.7014C20.822 41.7384 22.7409 41.3649 22.7409 41.3649C22.7409 41.3649 22.7026 40.5365 21.8994 40.2108L21.8502 40.0854C21.8502 40.0854 23.1165 39.304 23.3925 37.871" fill="white"/>
<path fill-rule="evenodd" clip-rule="evenodd" d="M9.98897 34.3791C9.98897 33.8049 10.4539 33.3404 11.0281 33.3404C11.6005 33.3409 12.0659 33.8058 12.0659 34.3791C12.0655 34.952 11.6005 35.4169 11.0281 35.4169C10.4539 35.4169 9.98897 34.952 9.98897 34.3791" fill="white"/>
<path fill-rule="evenodd" clip-rule="evenodd" d="M16.4054 45.9613C16.4054 45.388 16.8708 44.9248 17.4436 44.9248C18.0169 44.9248 18.4823 45.388 18.4823 45.9613C18.4823 46.5364 18.0169 47 17.4436 47C16.8708 47 16.4054 46.5351 16.4054 45.9613Z" fill="white"/>
<path fill-rule="evenodd" clip-rule="evenodd" d="M19.9657 45.9123C19.9657 45.339 20.4315 44.8741 21.0031 44.8741C21.5768 44.8741 22.0426 45.3394 22.0426 45.9123C22.0422 46.4856 21.5768 46.9505 21.0031 46.9505C20.4315 46.9505 19.9657 46.4856 19.9657 45.9123Z" fill="white"/>
<path fill-rule="evenodd" clip-rule="evenodd" d="M32.6349 16.7718C32.6349 16.7718 31.8883 16.0166 30.8958 16.0166C29.9033 16.0147 29.165 16.7718 29.165 16.7718L29.3147 17.0315C29.3147 17.0315 29.8832 16.3693 30.9015 16.3693C31.9192 16.3693 32.4895 16.9913 32.4895 16.9913L32.6349 16.7718Z" fill="#7AA3D3"/>
<path fill-rule="evenodd" clip-rule="evenodd" d="M32.5832 16.2996L32.1422 14.2218H32.0486V14.3998H31.969V14.4682H31.908V14.4456H31.8331V14.3437L31.7926 14.3036H31.7343L31.7347 14.1073H31.6446V14.2719H31.5763L31.5389 14.3097V14.3763H31.4701V14.3511H31.4309V14.264L31.3939 14.2253H31.3408V14.0337L31.2406 14.0329L31.2402 14.2148L31.1527 14.2536V14.3311H31.0274V14.2388L30.989 14.2005H30.9377L30.9385 14.0081H30.841V14.2039H30.7896L30.7374 14.2553V14.3224H30.6277V14.2283L30.5994 14.2005H30.5346V14.0363H30.4392V14.224H30.39L30.343 14.2719V14.3341H30.2712V14.3698H30.2185V14.3067L30.1858 14.2745H30.1275V14.1095H30.0396V14.3041H29.9913L29.9451 14.3485V14.4482L29.8733 14.4473V14.4638H29.8315V14.3924H29.734V14.2218H29.6343L29.2138 16.2996C29.2138 16.2996 29.8594 16.0162 30.888 16.0162C31.9189 16.0162 32.5832 16.2996 32.5832 16.2996" fill="white"/>
<path fill-rule="evenodd" clip-rule="evenodd" d="M30.7048 15.6669H31.7198V16.6819H30.7048V15.6669Z" fill="white"/>
<path fill-rule="evenodd" clip-rule="evenodd" d="M5.61767 16.7663C5.61767 16.7663 6.36553 16.0125 7.35808 16.0125C8.35104 16.0135 9.08849 16.7683 9.08849 16.7683L8.93787 17.0275C8.93787 17.0275 8.36977 16.3674 7.35198 16.3655C6.33377 16.3655 5.76306 16.9854 5.76306 16.9854L5.61767 16.7663Z" fill="#7AA3D3"/>
<path fill-rule="evenodd" clip-rule="evenodd" d="M7.16558 15.6639H8.18051V16.6788H7.16558V15.6639Z" fill="white"/>
<path fill-rule="evenodd" clip-rule="evenodd" d="M19.9836 30.8589C14.7154 30.794 11.4261 28.9335 9.59422 27.3837C7.60567 25.7029 6.8543 24.0108 6.84732 23.9934L6.83863 23.9751L6.84037 23.9569L7.44764 17.9668L13.5448 14.7224H13.5635L24.841 14.6109V14.762L13.5831 14.8717L7.58867 18.0617L6.99185 23.9508C7.07719 24.1332 7.84074 25.7073 9.69739 27.2758C11.5096 28.8059 14.7672 30.6439 19.9854 30.7092L19.9836 30.8589Z" fill="#7AA3D3"/>
<path fill-rule="evenodd" clip-rule="evenodd" d="M19.9829 30.8589V30.7092C20.0016 30.7092 21.8448 30.6996 24.1777 29.8685C26.3234 29.1041 29.3337 27.4686 31.5055 24.0161L30.8438 18.0312L24.8045 14.7524L24.8768 14.6201L30.9866 17.9363L31.6609 24.0518L31.6465 24.0744C29.4499 27.5796 26.3974 29.2378 24.2225 30.0122C21.8666 30.8498 20.0016 30.8589 19.9829 30.8589" fill="#7AA3D3"/>
<path fill-rule="evenodd" clip-rule="evenodd" d="M24.5329 11.3153C24.5329 11.3153 22.2479 10.2614 19.212 10.2609C16.176 10.2609 13.9197 11.314 13.9197 11.314L14.3772 11.6731C14.3772 11.6731 16.1146 10.7537 19.2294 10.755C22.3432 10.7555 24.0889 11.6161 24.0889 11.6161L24.5329 11.3153Z" fill="#7AA3D3"/>
<path fill-rule="evenodd" clip-rule="evenodd" d="M28.0059 21.7809L29.3067 16.4965C29.3067 16.4965 29.7302 16.1769 30.8961 16.1769C31.963 16.1769 32.4954 16.4717 32.4954 16.4717L33.3104 20.2063C33.3104 20.2063 32.3074 23.2274 31.1664 24.6196C30.2931 25.6866 28.0059 21.7809 28.0059 21.7809" fill="white"/>
<path fill-rule="evenodd" clip-rule="evenodd" d="M10.2462 21.7778L8.94637 16.493C8.94637 16.493 8.52455 16.1739 7.35875 16.1739C6.29177 16.1726 5.75807 16.4678 5.75807 16.4678L4.9427 20.2024C4.9427 20.2024 5.94569 23.224 7.08493 24.6166C7.95992 25.6836 10.2462 21.7778 10.2462 21.7778" fill="white"/>
<path fill-rule="evenodd" clip-rule="evenodd" d="M5.67045 16.2956L6.111 14.2178H6.20633V14.3962H6.28425V14.4646H6.34519V14.4415H6.4205V14.3396L6.45966 14.2996H6.51889V14.1041H6.609V14.2678H6.67733L6.7139 14.3061V14.3723H6.78356V14.3475H6.82229V14.2604L6.85972 14.2217H6.91284V14.0297H7.0134V14.2108L7.10092 14.25V14.3283H7.22584V14.2347L7.26459 14.1964H7.31595V14.004H7.4126V14.1999H7.46484L7.51621 14.2521V14.3183H7.6259V14.2251L7.65421 14.1964H7.71952V14.0323H7.81439V14.2204H7.86274L7.91106 14.2691V14.3314H7.98201V14.3662H8.03511V14.3035L8.06777 14.2713H8.12524L8.12611 14.1063H8.2136V14.3009H8.26279L8.30805 14.3462V14.4445H8.38032V14.4611H8.42169V14.3897H8.51875V14.2186H8.61889L9.03811 16.296C9.03811 16.296 8.39251 16.013 7.36429 16.013C6.33475 16.013 5.67045 16.2956 5.67045 16.2956" fill="white"/>
<path fill-rule="evenodd" clip-rule="evenodd" d="M24.8409 14.687L13.5638 14.7981L7.51805 18.0142L6.9147 23.9642C6.9147 23.9642 9.83095 30.6582 19.984 30.7836" fill="white"/>
<path fill-rule="evenodd" clip-rule="evenodd" d="M19.9839 30.784C19.9839 30.784 27.3539 30.7844 31.584 24.0343L30.9162 17.9833L24.8412 14.687" fill="white"/>
<path fill-rule="evenodd" clip-rule="evenodd" d="M24.1234 11.6575C24.1234 11.6575 22.4936 10.7529 19.2304 10.7542C15.6642 10.7555 14.3709 11.7306 14.3709 11.7306L10.396 27.8924C12.8616 29.7099 15.9089 30.7834 19.2082 30.7847C22.619 30.7847 25.5665 29.7835 28.0766 27.8537L24.1234 11.6575Z" fill="white"/>
<path fill-rule="evenodd" clip-rule="evenodd" d="M24.4736 11.2393L23.0449 4.77562H22.7571V5.32064H22.5134V5.52743H22.3306V5.45821H22.0994L22.0998 5.14478L21.9775 5.02202H21.7977V4.42432H21.5222V4.92538H21.3154L21.2 5.04117V5.2449H20.9893V5.16959H20.8705V4.90056L20.7538 4.78477L20.5954 4.78433V4.19926H20.288V4.74994L20.0186 4.86922V5.10735H19.6368V4.82526L19.5166 4.70555H19.3603V4.11655H19.0656V4.71817H18.9098L18.7504 4.87837V5.08166H18.4148V4.79304L18.3265 4.70555H18.1253L18.1262 4.20405H17.8367V4.78173H17.687L17.5389 4.92756V5.11955H17.3235V5.22533H17.1602V5.03161L17.0636 4.9341H16.8842V4.42956H16.6143V5.02508H16.4641L16.3274 5.16308V5.46345H16.1076V5.51308H15.9761V5.29455H15.6819V4.77434H15.3745L13.9989 11.2768C13.9989 11.2768 16.0654 10.2598 19.2114 10.2598C22.3593 10.2616 24.4737 11.2393 24.4737 11.2393" fill="white"/>
<path fill-rule="evenodd" clip-rule="evenodd" d="M23.9621 20.7092C23.9621 20.7092 22.1351 20.4855 19.2302 22.6342C19.2302 22.6342 16.7375 20.6343 14.6048 20.4894C14.6048 20.4894 18.3404 22.2211 18.8475 22.9751C18.8475 22.9751 18.1423 23.8409 17.8715 23.9371C17.8715 23.9371 17.4606 23.0264 17.0479 23.4705C17.0479 23.4705 16.7976 23.6516 17.03 23.8993C17.03 23.8993 17.2616 24.1487 17.4279 23.9881L17.535 24.1209C17.535 24.1209 17.3892 24.349 17.1167 24.4116C17.1167 24.4116 16.5747 24.1222 16.5638 24.7577C16.5638 24.7577 16.8803 25.4481 17.9116 24.5527C17.9116 24.5527 18.3791 25.119 18.7178 25.0206C18.7178 25.0206 19.3629 24.8252 18.8309 24.3812C18.8309 24.3812 18.6538 24.2166 18.3909 24.5361L18.1784 24.355C18.1784 24.355 19.14 23.4613 19.2075 23.4073C19.2741 23.3534 20.2036 24.3481 20.2036 24.3481L20.0721 24.5244C20.0721 24.5244 19.6964 24.1274 19.4239 24.6171C19.4239 24.6171 19.5227 25.4029 20.1879 24.8809L20.5209 24.5758C20.5209 24.5758 21.2866 25.3541 21.7207 25.0294C21.7207 25.0294 22.0524 24.7429 21.8212 24.5109C21.8212 24.5109 21.6401 24.2606 21.3728 24.4425C21.3728 24.4425 21.1861 24.4848 20.8805 24.1509L21.0302 23.9907C21.0302 23.9907 21.3498 24.2545 21.5217 23.8187C21.5217 23.8187 21.661 23.42 21.0259 23.4252C21.0259 23.4252 20.8243 23.5188 20.618 23.9903L19.6563 23.0469C19.6563 23.0469 20.961 21.6613 23.9621 20.7092Z" fill="#7AA3D3"/>
<path fill-rule="evenodd" clip-rule="evenodd" d="M19.0941 17.5781C19.0941 17.5781 18.7989 17.9434 18.8851 18.3983C18.8851 18.3983 18.2896 17.7793 18.7506 17.0928C18.7506 17.0928 18.2892 17.1502 18.1181 18.0944C18.1181 18.0944 17.7925 17.3061 18.3736 16.61C18.3736 16.61 17.7572 16.987 17.5953 17.5194C17.5953 17.5194 17.547 16.573 18.3923 16.2138C18.3923 16.2138 17.9226 16.2034 17.6449 16.408C17.6449 16.408 17.8917 15.6666 18.8486 15.883C18.8486 15.883 18.5003 15.439 18.2713 15.4464C18.2713 15.4464 18.8978 15.3663 19.1955 15.6697C19.1955 15.6697 19.1633 15.4133 19.3344 15.2696C19.3344 15.2696 19.5024 15.6192 19.6082 15.6897C19.6082 15.6897 19.9974 15.3941 20.3557 15.496C20.3557 15.496 20.01 15.7385 19.9582 15.8882C19.9582 15.8882 20.9412 15.863 21.0935 16.5891C21.0935 16.5891 20.5176 16.1646 20.202 16.2787C20.202 16.2787 21.0818 16.6008 21.1693 17.5699C21.1693 17.5699 20.6068 16.7336 20.3069 16.6866C20.3069 16.6866 20.8332 17.559 20.5193 18.0853C20.5193 18.0853 20.303 17.1446 20.0226 17.0053C20.0226 17.0053 20.1537 18.0535 19.8224 18.3852C19.8224 18.3852 19.6922 17.6365 19.4363 17.5316L19.3945 20.5862C19.4215 20.8422 19.4933 20.9262 19.4933 20.9262C19.465 21.0812 19.4863 21.217 19.4863 21.217C19.5586 21.318 19.5616 21.3868 19.5616 21.3868C19.6021 21.5557 19.5555 21.6776 19.5555 21.6776C19.613 21.8478 19.7388 21.9801 19.7388 21.9801L18.7101 22.0171C18.795 21.9627 18.9169 21.5988 18.9169 21.5988C18.859 21.4124 18.9874 21.15 18.9874 21.15C18.98 20.9789 19.1206 20.5788 19.1206 20.5788L19.0941 17.5781Z" fill="#7AA3D3"/>
</svg>
