<svg width="16" height="16" viewBox="0 0 16 16" fill="none" xmlns="http://www.w3.org/2000/svg">
<path fill-rule="evenodd" clip-rule="evenodd" d="M15.9912 15.5958C15.6912 14.2708 13.9787 13.625 13.3871 13.4166C12.7371 13.1875 11.8121 13.1333 11.2162 13C10.8746 12.925 10.3787 12.7375 10.2121 12.5375C10.0454 12.3375 10.1454 10.4833 10.1454 10.4833C10.1454 10.4833 10.4537 10.0041 10.6204 9.57914C10.7871 9.15831 10.9704 7.99998 10.9704 7.99998C10.9704 7.99998 11.3121 7.99998 11.4329 7.39998C11.5621 6.74582 11.7662 6.49165 11.7412 6.00415C11.7162 5.52498 11.4537 5.53748 11.4537 5.53748C11.4537 5.53748 11.7079 4.84165 11.7371 3.39999C11.7746 1.6875 10.4329 0 8.00374 0C5.54125 0 4.22876 1.68749 4.26625 3.39999C4.29958 4.84166 4.54542 5.53748 4.54542 5.53748C4.54542 5.53748 4.28292 5.52498 4.25792 6.00415C4.23292 6.49165 4.43708 6.74581 4.56625 7.39998C4.68291 7.99998 5.02875 7.99998 5.02875 7.99998C5.02875 7.99998 5.21208 9.1583 5.37875 9.57914C5.54542 10.0041 5.85375 10.4833 5.85375 10.4833C5.85375 10.4833 5.95374 12.3375 5.78709 12.5375C5.62042 12.7375 5.12458 12.925 4.78292 13C4.18709 13.1333 3.2621 13.1875 2.6121 13.4166C2.02043 13.625 0.307943 14.2708 0.00793734 15.5958C-0.0378987 15.8041 0.120437 16 0.337103 16H15.6662C15.8787 16 16.0371 15.8041 15.9912 15.5958H15.9912Z" fill="#B9C0C6"/>
</svg>
