<svg width="315" height="46" viewBox="0 0 315 46" fill="none" xmlns="http://www.w3.org/2000/svg">
<path fill-rule="evenodd" clip-rule="evenodd" d="M102.471 30.9724C102.172 29.6479 100.46 29.0023 99.8682 28.794C99.2184 28.5649 98.2938 28.5108 97.6981 28.3775C97.3566 28.3025 96.8609 28.1151 96.6943 27.9151C96.5277 27.7152 96.6277 25.8617 96.6277 25.8617C96.6277 25.8617 96.9359 25.3827 97.1025 24.9579C97.2691 24.5372 97.4524 23.3793 97.4524 23.3793C97.4524 23.3793 97.7939 23.3793 97.9147 22.7795C98.0438 22.1255 98.2479 21.8714 98.223 21.3841C98.198 20.9051 97.9356 20.9176 97.9356 20.9176C97.9356 20.9176 98.1896 20.222 98.2188 18.7809C98.2563 17.069 96.9151 15.3821 94.4868 15.3821C92.0251 15.3821 90.7131 17.069 90.7506 18.7809C90.7839 20.222 91.0297 20.9176 91.0297 20.9176C91.0297 20.9176 90.7673 20.9051 90.7423 21.3841C90.7173 21.8714 90.9214 22.1255 91.0505 22.7795C91.1671 23.3793 91.5128 23.3793 91.5128 23.3793C91.5128 23.3793 91.6961 24.5372 91.8627 24.9579C92.0293 25.3827 92.3375 25.8617 92.3375 25.8617C92.3375 25.8617 92.4375 27.7152 92.2709 27.9151C92.1043 28.1151 91.6086 28.3025 91.2671 28.3775C90.6715 28.5108 89.7468 28.5649 89.097 28.794C88.5056 29.0023 86.7937 29.6479 86.4938 30.9724C86.448 31.1807 86.6062 31.3764 86.8228 31.3764H102.147C102.359 31.3764 102.517 31.1807 102.471 30.9724H102.471Z" fill="#B9C0C6"/>
<g filter="url(#filter0_d_0_37136)">
<path fill-rule="evenodd" clip-rule="evenodd" d="M23 46C35.7025 46 46 35.7025 46 23C46 10.2975 35.7025 0 23 0C10.2975 0 0 10.2975 0 23C0 35.7025 10.2975 46 23 46Z" fill="#4DC18D"/>
</g>
<path fill-rule="evenodd" clip-rule="evenodd" d="M23.177 17.5388C23.1193 17.4926 23.0424 17.4926 22.9847 17.5388L16.9869 22.3371C16.9523 22.3678 16.9292 22.4101 16.9292 22.4562V31.2993C16.9292 31.3416 16.9638 31.3762 17.0061 31.3762H21.1585C21.2008 31.3762 21.2354 31.3416 21.2354 31.2993V25.9166C21.2354 25.8743 21.27 25.8397 21.3123 25.8397H24.8495C24.8918 25.8397 24.9264 25.8743 24.9264 25.9166V31.2993C24.9264 31.3416 24.961 31.3762 25.0033 31.3762H29.1557C29.198 31.3762 29.2326 31.3416 29.2326 31.2993V22.4562C29.2326 22.4101 29.2095 22.364 29.1749 22.3371L23.177 17.5388Z" fill="white"/>
<path fill-rule="evenodd" clip-rule="evenodd" d="M30.8743 21.3877L23.6076 15.5666C23.4615 15.4474 23.2731 15.3821 23.0809 15.3821C22.8886 15.3821 22.7002 15.4474 22.5541 15.5666L19.3899 18.1388V16.5163C19.3899 16.474 19.3553 16.4394 19.313 16.4394H17.0061C16.9638 16.4394 16.9292 16.474 16.9292 16.5163V20.0612L15.2875 21.4107C15.1683 21.5068 15.0914 21.6491 15.0837 21.8029C15.076 21.9567 15.1337 22.1066 15.2413 22.2143C15.3413 22.3142 15.4759 22.3719 15.622 22.3719C15.745 22.3719 15.8642 22.3296 15.9603 22.2527L23.0309 16.5624C23.0501 16.5471 23.0655 16.5471 23.0808 16.5471C23.0962 16.5471 23.1116 16.5509 23.1308 16.5624L30.2014 22.2297C30.2975 22.3066 30.4167 22.3489 30.5397 22.3489C30.682 22.3489 30.8166 22.295 30.9204 22.1912C31.0319 22.0836 31.0896 21.9336 31.0819 21.7798C31.0703 21.626 30.9973 21.4838 30.8742 21.3877L30.8743 21.3877Z" fill="white"/>
<defs>
<filter id="filter0_d_0_37136" x="-20" y="-10" width="86" height="86" filterUnits="userSpaceOnUse" color-interpolation-filters="sRGB">
<feFlood flood-opacity="0" result="BackgroundImageFix"/>
<feColorMatrix in="SourceAlpha" type="matrix" values="0 0 0 0 0 0 0 0 0 0 0 0 0 0 0 0 0 0 127 0" result="hardAlpha"/>
<feOffset dy="10"/>
<feGaussianBlur stdDeviation="10"/>
<feColorMatrix type="matrix" values="0 0 0 0 0.333333 0 0 0 0 0.839216 0 0 0 0 0.611765 0 0 0 0.423529 0"/>
<feBlend mode="normal" in2="BackgroundImageFix" result="effect1_dropShadow_0_37136"/>
<feBlend mode="normal" in="SourceGraphic" in2="effect1_dropShadow_0_37136" result="shape"/>
</filter>
</defs>
</svg>
