<svg width="32" height="61" viewBox="0 0 32 61" fill="none" xmlns="http://www.w3.org/2000/svg">
<mask id="mask0_0_37372" style="mask-type:luminance" maskUnits="userSpaceOnUse" x="0" y="0" width="32" height="62">
<path fill-rule="evenodd" clip-rule="evenodd" d="M0 0H31.7484V61.0004H0V0Z" fill="white"/>
</mask>
<g mask="url(#mask0_0_37372)">
<path fill-rule="evenodd" clip-rule="evenodd" d="M30.1247 41.9739H27.9913C27.7078 40.9117 27.2881 39.897 26.7398 38.9481L28.2474 37.4404C28.8433 36.844 28.8433 35.8736 28.2474 35.2781L25.8179 32.8486C25.5287 32.5595 25.145 32.4005 24.7365 32.4005C24.328 32.4005 23.9437 32.5595 23.6546 32.8486L22.1475 34.3557C21.199 33.8074 20.1848 33.3877 19.1216 33.1041V30.9708C19.1216 30.1272 18.4356 29.4413 17.5925 29.4413H14.1567C13.3136 29.4413 12.6277 30.1272 12.6277 30.9708V33.1041C11.5649 33.3877 10.5502 33.8074 9.60175 34.3557L8.09415 32.8486C7.8055 32.5595 7.42126 32.4005 7.01277 32.4005C6.60427 32.4005 6.22004 32.5599 5.93185 32.8486L3.50189 35.2781C2.90547 35.8741 2.90547 36.8445 3.50189 37.4404L5.00949 38.9481C4.46109 39.897 4.04141 40.9112 3.75789 41.9739H1.6245C0.780939 41.9739 0.0949815 42.6599 0.0949815 43.503V46.9388C0.0949815 47.782 0.780929 48.4684 1.6245 48.4684H3.75789C4.04141 49.5306 4.46109 50.5453 5.00949 51.4938L3.50189 53.0014C2.90594 53.5974 2.90594 54.5672 3.50189 55.1641L5.93139 57.5932C6.22004 57.8824 6.60428 58.0413 7.01277 58.0413C7.42127 58.0413 7.8055 57.8824 8.09415 57.5937L9.60175 56.0861C10.5502 56.6344 11.5649 57.0541 12.6277 57.3376V59.4715C12.6277 60.3146 13.3136 61.0001 14.1567 61.0001H17.5925C18.4356 61.0001 19.1216 60.3146 19.1216 59.4715V57.3376C20.1848 57.0541 21.199 56.6344 22.1475 56.0861L23.6546 57.5937C23.9437 57.8824 24.328 58.0413 24.7365 58.0413C25.145 58.0413 25.5287 57.8824 25.8179 57.5937L28.2474 55.1637C28.8433 54.5672 28.8428 53.5974 28.2474 53.0014L26.7398 51.4938C27.2881 50.5453 27.7078 49.5306 27.9913 48.4684H30.1247C30.9678 48.4684 31.6538 47.782 31.6538 46.9388V43.503C31.6538 42.6599 30.9678 41.9739 30.1247 41.9739ZM23.5091 45.2209C23.5091 49.4308 20.084 52.8559 15.8746 52.8559C11.6647 52.8559 8.24011 49.4308 8.24011 45.2209C8.24011 41.011 11.6647 37.5864 15.8746 37.5864C20.084 37.5864 23.5091 41.011 23.5091 45.2209Z" fill="#4DC18D"/>
<path fill-rule="evenodd" clip-rule="evenodd" d="M15.8746 36.5605C11.0991 36.5605 7.21422 40.4454 7.21422 45.2209C7.21422 49.9964 11.0991 53.8818 15.8746 53.8818C20.6497 53.8818 24.535 49.9964 24.535 45.2209C24.535 40.4454 20.6497 36.5605 15.8746 36.5605ZM15.8746 52.8559C11.6647 52.8559 8.24011 49.4308 8.24011 45.2209C8.24011 41.011 11.6647 37.5864 15.8746 37.5864C20.084 37.5864 23.5091 41.011 23.5091 45.2209C23.5091 49.4308 20.084 52.8559 15.8746 52.8559ZM15.8746 36.5605C11.0991 36.5605 7.21422 40.4454 7.21422 45.2209C7.21422 49.9964 11.0991 53.8818 15.8746 53.8818C20.6497 53.8818 24.535 49.9964 24.535 45.2209C24.535 40.4454 20.6497 36.5605 15.8746 36.5605ZM15.8746 52.8559C11.6647 52.8559 8.24011 49.4308 8.24011 45.2209C8.24011 41.011 11.6647 37.5864 15.8746 37.5864C20.084 37.5864 23.5091 41.011 23.5091 45.2209C23.5091 49.4308 20.084 52.8559 15.8746 52.8559ZM30.1247 41.9739H27.9913C27.7078 40.9117 27.2881 39.897 26.7398 38.9481L28.2474 37.4404C28.8433 36.844 28.8433 35.8736 28.2474 35.2781L25.8179 32.8486C25.5287 32.5595 25.145 32.4005 24.7365 32.4005C24.328 32.4005 23.9437 32.5595 23.6546 32.8486L22.1475 34.3557C21.199 33.8074 20.1848 33.3877 19.1216 33.1041V30.9708C19.1216 30.1272 18.4356 29.4413 17.5925 29.4413H14.1567C13.3136 29.4413 12.6277 30.1272 12.6277 30.9708V33.1041C11.5649 33.3877 10.5502 33.8074 9.60175 34.3557L8.09415 32.8486C7.8055 32.5595 7.42126 32.4005 7.01277 32.4005C6.60427 32.4005 6.22004 32.5599 5.93185 32.8486L3.50189 35.2781C2.90547 35.8741 2.90547 36.8445 3.50189 37.4404L5.00949 38.9481C4.46109 39.897 4.04141 40.9112 3.75789 41.9739H1.6245C0.780939 41.9739 0.0949815 42.6599 0.0949815 43.503V46.9388C0.0949815 47.782 0.780929 48.4684 1.6245 48.4684H3.75789C4.04141 49.5306 4.46109 50.5453 5.00949 51.4938L3.50189 53.0014C2.90594 53.5974 2.90594 54.5672 3.50189 55.1641L5.93139 57.5932C6.22004 57.8824 6.60428 58.0413 7.01277 58.0413C7.42127 58.0413 7.8055 57.8824 8.09415 57.5937L9.60175 56.0861C10.5502 56.6344 11.5649 57.0541 12.6277 57.3376V59.4715C12.6277 60.3146 13.3136 61.0001 14.1567 61.0001H17.5925C18.4356 61.0001 19.1216 60.3146 19.1216 59.4715V57.3376C20.1848 57.0541 21.199 56.6344 22.1475 56.0861L23.6546 57.5937C23.9437 57.8824 24.328 58.0413 24.7365 58.0413C25.145 58.0413 25.5287 57.8824 25.8179 57.5937L28.2474 55.1637C28.8433 54.5672 28.8428 53.5974 28.2474 53.0014L26.7398 51.4938C27.2881 50.5453 27.7078 49.5306 27.9913 48.4684H30.1247C30.9678 48.4684 31.6538 47.782 31.6538 46.9388V43.503C31.6538 42.6599 30.9678 41.9739 30.1247 41.9739ZM30.6279 46.9388C30.6279 47.2163 30.4022 47.4424 30.1247 47.4424H27.5908C27.352 47.4424 27.145 47.6066 27.0909 47.8393C26.805 49.0699 26.3229 50.2347 25.6584 51.3022C25.532 51.505 25.5623 51.7675 25.7311 51.9363L27.5218 53.727C27.7181 53.9233 27.7176 54.2427 27.5218 54.4385L25.0923 56.8681C24.9971 56.9632 24.8708 57.0154 24.7365 57.0154C24.6017 57.0154 24.4753 56.9632 24.3802 56.8681L22.59 55.0774C22.4212 54.9086 22.1587 54.8782 21.9558 55.0047C20.8889 55.6692 19.7236 56.1513 18.4925 56.4372C18.2603 56.4913 18.0957 56.6983 18.0957 56.9371V59.4715C18.0957 59.749 17.87 59.9742 17.5925 59.9742H14.1567C13.8792 59.9742 13.6536 59.749 13.6536 59.4715V56.9371C13.6536 56.6983 13.4889 56.4913 13.2567 56.4372C12.0261 56.1513 10.8608 55.6692 9.7934 55.0047C9.70992 54.9524 9.61573 54.9268 9.52247 54.9268C9.39003 54.9268 9.25853 54.9781 9.15968 55.0774L7.36903 56.8681C7.27343 56.9632 7.14706 57.0155 7.01276 57.0155C6.87846 57.0155 6.75209 56.9632 6.65697 56.8681L4.22747 54.439C4.03115 54.2427 4.03115 53.9233 4.22747 53.727L6.01812 51.9363C6.18692 51.7675 6.21677 51.505 6.09087 51.3022C5.4259 50.2352 4.94419 49.0699 4.65788 47.8388C4.60425 47.6066 4.39675 47.4425 4.15846 47.4425H1.6245C1.34704 47.4425 1.12088 47.2163 1.12088 46.9388V43.503C1.12088 43.2256 1.34704 42.9999 1.6245 42.9999H4.15846C4.39674 42.9999 4.60425 42.8352 4.65788 42.603C4.9442 41.3724 5.4259 40.2071 6.09087 39.1397C6.21677 38.9373 6.18693 38.6748 6.01812 38.506L4.22747 36.7149C4.03115 36.519 4.03115 36.1996 4.22747 36.0033L6.65743 33.5737C6.75209 33.4786 6.87846 33.4264 7.01276 33.4264C7.14706 33.4264 7.27343 33.4791 7.36903 33.5742L9.15968 35.3644C9.32848 35.5332 9.59102 35.5631 9.7934 35.4372C10.8608 34.7722 12.0261 34.2905 13.2567 34.0042C13.4889 33.9501 13.6536 33.743 13.6536 33.5047V30.9708C13.6536 30.6929 13.8792 30.4672 14.1567 30.4672H17.5925C17.87 30.4672 18.0957 30.6929 18.0957 30.9708V33.5047C18.0957 33.743 18.2603 33.9501 18.4925 34.0042C19.7236 34.2905 20.8889 34.7727 21.9558 35.4372C22.1587 35.5631 22.4212 35.5332 22.59 35.3644L24.3802 33.5742C24.4753 33.4791 24.6017 33.4264 24.7365 33.4264C24.8708 33.4264 24.9971 33.4791 25.0923 33.5742L27.5218 36.0033C27.7181 36.1996 27.7176 36.519 27.5218 36.7149L25.7311 38.506C25.5623 38.6748 25.532 38.9373 25.6584 39.1397C26.3229 40.2071 26.805 41.3724 27.0909 42.603C27.145 42.8352 27.352 42.9999 27.5908 42.9999H30.1247C30.4022 42.9999 30.6279 43.2256 30.6279 43.503V46.9388ZM15.8746 36.5605C11.0991 36.5605 7.21422 40.4454 7.21422 45.2209C7.21422 49.9964 11.0991 53.8818 15.8746 53.8818C20.6497 53.8818 24.535 49.9964 24.535 45.2209C24.535 40.4454 20.6497 36.5605 15.8746 36.5605ZM15.8746 52.8559C11.6647 52.8559 8.24011 49.4308 8.24011 45.2209C8.24011 41.011 11.6647 37.5864 15.8746 37.5864C20.084 37.5864 23.5091 41.011 23.5091 45.2209C23.5091 49.4308 20.084 52.8559 15.8746 52.8559ZM15.8746 36.5605C11.0991 36.5605 7.21422 40.4454 7.21422 45.2209C7.21422 49.9964 11.0991 53.8818 15.8746 53.8818C20.6497 53.8818 24.535 49.9964 24.535 45.2209C24.535 40.4454 20.6497 36.5605 15.8746 36.5605ZM15.8746 52.8559C11.6647 52.8559 8.24011 49.4308 8.24011 45.2209C8.24011 41.011 11.6647 37.5864 15.8746 37.5864C20.084 37.5864 23.5091 41.011 23.5091 45.2209C23.5091 49.4308 20.084 52.8559 15.8746 52.8559ZM15.8746 36.5605C11.0991 36.5605 7.21422 40.4454 7.21422 45.2209C7.21422 49.9964 11.0991 53.8818 15.8746 53.8818C20.6497 53.8818 24.535 49.9964 24.535 45.2209C24.535 40.4454 20.6497 36.5605 15.8746 36.5605ZM15.8746 52.8559C11.6647 52.8559 8.24011 49.4308 8.24011 45.2209C8.24011 41.011 11.6647 37.5864 15.8746 37.5864C20.084 37.5864 23.5091 41.011 23.5091 45.2209C23.5091 49.4308 20.084 52.8559 15.8746 52.8559Z" fill="#232323"/>
<path fill-rule="evenodd" clip-rule="evenodd" d="M20.2102 10.1242H11.5382C11.2549 10.1242 11.0252 9.89452 11.0252 9.61123C11.0252 9.32795 11.2549 9.09829 11.5382 9.09829H20.2102C20.4935 9.09829 20.7232 9.32795 20.7232 9.61123C20.7232 9.89452 20.4935 10.1242 20.2102 10.1242Z" fill="#232323"/>
<path fill-rule="evenodd" clip-rule="evenodd" d="M24.8802 15.5637H6.86784C6.58456 15.5637 6.3549 15.334 6.3549 15.0507C6.3549 14.7675 6.58456 14.5378 6.86784 14.5378H24.8802C25.1635 14.5378 25.3932 14.7675 25.3932 15.0507C25.3932 15.334 25.1635 15.5637 24.8802 15.5637Z" fill="#232323"/>
<path fill-rule="evenodd" clip-rule="evenodd" d="M24.8803 20.4075H13.5924C13.3091 20.4075 13.0794 20.1779 13.0794 19.8946C13.0794 19.6113 13.3091 19.3816 13.5924 19.3816H24.8803C25.1636 19.3816 25.3932 19.6113 25.3932 19.8946C25.3932 20.1779 25.1636 20.4075 24.8803 20.4075Z" fill="#232323"/>
<path fill-rule="evenodd" clip-rule="evenodd" d="M10.8875 20.4075H6.86784C6.58456 20.4075 6.3549 20.1779 6.3549 19.8946C6.3549 19.6113 6.58456 19.3816 6.86784 19.3816H10.8875C11.1708 19.3816 11.4005 19.6113 11.4005 19.8946C11.4005 20.1779 11.1708 20.4075 10.8875 20.4075Z" fill="#232323"/>
<path fill-rule="evenodd" clip-rule="evenodd" d="M24.8802 25.2513H6.86784C6.58456 25.2513 6.3549 25.0217 6.3549 24.7384C6.3549 24.4551 6.58456 24.2254 6.86784 24.2254H24.8802C25.1635 24.2254 25.3932 24.4551 25.3932 24.7384C25.3932 25.0217 25.1635 25.2513 24.8802 25.2513Z" fill="#232323"/>
<path fill-rule="evenodd" clip-rule="evenodd" d="M31.2355 40.9469C30.9522 40.9469 30.7225 40.7172 30.7225 40.434V4.06357H1.02589V40.434C1.02589 40.7172 0.79623 40.9469 0.512944 40.9469C0.229657 40.9469 0 40.7172 0 40.434V3.55063C0 3.26729 0.229657 3.03768 0.512944 3.03768H31.2355C31.5187 3.03768 31.7484 3.26729 31.7484 3.55063V40.434C31.7484 40.7172 31.5187 40.9469 31.2355 40.9469Z" fill="#232323"/>
<path fill-rule="evenodd" clip-rule="evenodd" d="M28.7479 3.87708C28.4647 3.87708 28.235 3.64742 28.235 3.36413V1.02589H3.51214V3.36413C3.51214 3.64742 3.28247 3.87708 2.99919 3.87708C2.71591 3.87708 2.48625 3.64742 2.48625 3.36413V0.512944C2.48625 0.229657 2.71591 0 2.99919 0H28.748C29.0312 0 29.2609 0.229657 29.2609 0.512944V3.36413C29.2609 3.64742 29.0312 3.87708 28.748 3.87708" fill="#232323"/>
<path fill-rule="evenodd" clip-rule="evenodd" d="M15.0206 47.7772C14.8893 47.7772 14.758 47.7271 14.6579 47.6269L12.492 45.461C12.2916 45.2606 12.2916 44.9359 12.492 44.7355C12.6923 44.5353 13.0171 44.5353 13.2174 44.7355L15.0206 46.5387L18.8097 42.7497C19.0101 42.5494 19.3348 42.5494 19.5352 42.7497C19.7355 42.95 19.7355 43.2748 19.5352 43.4751L15.3833 47.6269C15.2831 47.7271 15.1518 47.7772 15.0206 47.7772" fill="#232323"/>
</g>
</svg>
