<svg width="25" height="24" viewBox="0 0 25 24" fill="none" xmlns="http://www.w3.org/2000/svg">
<mask id="mask0_0_36246" style="mask-type:luminance" maskUnits="userSpaceOnUse" x="0" y="0" width="26" height="25">
<path fill-rule="evenodd" clip-rule="evenodd" d="M0 0H25.1716V24.1648H0V0Z" fill="white"/>
</mask>
<g mask="url(#mask0_0_36246)">
<path fill-rule="evenodd" clip-rule="evenodd" d="M24.0999 11.4977L19.9449 15.4905L20.9254 21.1227C21.0859 22.0424 20.7146 22.9588 19.9573 23.5139C19.1853 24.0781 18.1759 24.1561 17.3242 23.7171L12.1791 21.0523L7.03364 23.7171C6.66734 23.9059 6.27136 24 5.87838 24C5.35763 24 4.84122 23.8355 4.40053 23.5139C3.64359 22.9588 3.27197 22.0424 3.43242 21.1227L4.41288 15.4905L0.25789 11.4977C-0.422983 10.8435 -0.666513 9.88171 -0.37862 8.988C-0.0873846 8.08361 0.684226 7.43842 1.63332 7.30299L7.38291 6.47933L9.95263 1.3489C10.3746 0.505893 11.2283 -0.0181904 12.1791 -0.0181904C13.1295 -0.0181904 13.9832 0.505893 14.4052 1.3489L16.9752 6.47933L22.7252 7.30299C23.6739 7.43843 24.4452 8.08361 24.7364 8.988C25.0243 9.88171 24.7808 10.8435 24.0999 11.4977" fill="#4DC18D"/>
</g>
</svg>
