<svg width="58" height="65" viewBox="0 0 58 65" fill="none" xmlns="http://www.w3.org/2000/svg">
<mask id="mask0_0_37308" style="mask-type:luminance" maskUnits="userSpaceOnUse" x="0" y="0" width="58" height="65">
<path fill-rule="evenodd" clip-rule="evenodd" d="M0 0H57.9516V64.9999H0V0Z" fill="white"/>
</mask>
<g mask="url(#mask0_0_37308)">
<path fill-rule="evenodd" clip-rule="evenodd" d="M33.6095 60.3571H6.28978C3.70183 60.3571 1.5961 58.2514 1.5961 55.6626V6.2898C1.5961 3.70185 3.70183 1.59534 6.28978 1.59534H36.1521V13.5847C36.1521 14.0254 36.509 14.3816 36.9505 14.3816H48.9384V35.731C48.9384 36.1717 49.2961 36.5294 49.7368 36.5294C50.1775 36.5294 50.5345 36.1717 50.5345 35.731V13.5847C50.5345 13.5479 50.5188 13.5174 50.5141 13.4822C50.5095 13.4462 50.5032 13.4149 50.4938 13.3796C50.4562 13.2434 50.3975 13.1166 50.3004 13.0195L37.515 0.233268C37.4179 0.136985 37.2911 0.078277 37.1549 0.0407016C37.1196 0.0313128 37.0883 0.0242587 37.0515 0.0195693C37.0171 0.0156514 36.9866 0 36.9506 0H6.28981C2.82121 0 0 2.822 0 6.28981V55.6627C0 59.132 2.82122 61.954 6.28981 61.954H33.6096C34.0503 61.954 34.408 61.5963 34.408 61.1556C34.408 60.7148 34.0503 60.3571 33.6096 60.3571M37.7482 12.7863V2.72493L47.8096 12.7863H37.7482Z" fill="#1A1A1A"/>
<path fill-rule="evenodd" clip-rule="evenodd" d="M39.7621 20.5762C39.7621 20.1355 39.4043 19.7777 38.9636 19.7777H11.5703C11.1295 19.7777 10.7726 20.1354 10.7726 20.5762C10.7726 21.0169 11.1295 21.3746 11.5703 21.3746H38.9636C39.4043 21.3746 39.7621 21.0169 39.7621 20.5762Z" fill="#1A1A1A"/>
<path fill-rule="evenodd" clip-rule="evenodd" d="M37.8043 31.1995C37.8043 30.7588 37.4474 30.4011 37.0067 30.4011H13.5281C13.0866 30.4011 12.7296 30.7588 12.7296 31.1995C12.7296 31.6402 13.0866 31.998 13.5281 31.998H37.0067C37.4474 31.998 37.8043 31.6402 37.8043 31.1995Z" fill="#1A1A1A"/>
<path fill-rule="evenodd" clip-rule="evenodd" d="M25.6143 41.8226C25.6143 41.3819 25.2565 41.0242 24.8158 41.0242H9.61302C9.1723 41.0242 8.81455 41.3819 8.81455 41.8226C8.81455 42.2634 9.17229 42.6211 9.61302 42.6211H24.8158C25.2565 42.6211 25.6143 42.2634 25.6143 41.8226Z" fill="#1A1A1A"/>
<path fill-rule="evenodd" clip-rule="evenodd" d="M46.7585 39.685C46.7429 39.6686 46.71 39.6357 46.6943 39.6357C44.8508 37.7938 42.378 36.7918 39.7603 36.7918C37.1254 36.7918 34.6361 37.8102 32.7769 39.685C30.9021 41.5599 29.868 44.0327 29.868 46.6841C29.868 49.3182 30.9021 51.8075 32.7769 53.6823C35.8971 56.8018 40.6331 57.3998 44.3663 55.4444C44.4312 55.3951 44.5119 55.3638 44.5768 55.3309C45.3683 54.8949 46.0955 54.3446 46.7585 53.6823C47.4857 52.9708 48.0681 52.1629 48.5206 51.3065V51.2901C50.476 47.5726 49.9109 42.8687 46.807 39.7328C46.7906 39.7171 46.775 39.7007 46.7585 39.685" fill="#4DC18D"/>
<path fill-rule="evenodd" clip-rule="evenodd" d="M17.4429 53.2439H25.7547C26.1954 53.2439 26.5523 52.8869 26.5523 52.4462C26.5523 52.0055 26.1954 51.6485 25.7547 51.6485H17.4429C17.0022 51.6485 16.6452 52.0055 16.6452 52.4462C16.6452 52.8869 17.0022 53.2439 17.4429 53.2439Z" fill="#1A1A1A"/>
<path fill-rule="evenodd" clip-rule="evenodd" d="M56.874 58.7241L49.4727 51.3219C51.3717 47.2819 50.6672 42.3119 47.3333 38.978C43.0858 34.7297 36.1744 34.7297 31.9269 38.978C27.6787 43.2254 27.6787 50.1368 31.9269 54.3835C34.0507 56.508 36.8406 57.5703 39.6297 57.5703C41.2196 57.5703 42.8048 57.2133 44.2709 56.5229L51.6723 63.9251C52.3894 64.6421 53.3311 65.0006 54.2736 65.0006C55.2145 65.0006 56.157 64.6413 56.874 63.9251C57.5692 63.2307 57.9512 62.307 57.9512 61.3246C57.9512 60.3414 57.5692 59.4177 56.874 58.7241ZM33.0558 53.2555C29.4298 49.6303 29.4298 43.7319 33.0558 40.1067C34.8679 38.2938 37.2492 37.3881 39.6297 37.3881C42.011 37.3881 44.3923 38.2938 46.2045 40.1067C49.8296 43.7319 49.8296 49.6303 46.2045 53.2555C42.5793 56.8806 36.6809 56.8806 33.0558 53.2555ZM55.7452 62.7962C54.9335 63.6072 53.6129 63.608 52.8011 62.7962L45.716 55.7111C46.2859 55.3275 46.8291 54.8884 47.3333 54.3835C47.8366 53.8801 48.2765 53.3377 48.6609 52.7678L55.7452 59.8521C56.139 60.2451 56.3551 60.768 56.3551 61.3246C56.3551 61.8804 56.139 62.4033 55.7452 62.7962Z" fill="#1A1A1A"/>
</g>
</svg>
